SplineFontDB: 3.0
FontName: Eater-Regular
FullName: Eater
FamilyName: Eater
Weight: Regular
Copyright: Copyright (c) 2011, Typomondo, with Reserved Font Name "Eater"
Version: 001.002
ItalicAngle: 0
UnderlinePosition: -103
UnderlineWidth: 102
Ascent: 1638
Descent: 410
sfntRevision: 0x00010083
LayerCount: 2
Layer: 0 0 "Back"  1
Layer: 1 0 "Fore"  0
NeedsXUIDChange: 1
XUID: [1021 118 1023546858 4976522]
FSType: 0
OS2Version: 3
OS2_WeightWidthSlopeOnly: 0
OS2_UseTypoMetrics: 1
CreationTime: 1318951038
ModificationTime: 1319463393
PfmFamily: 81
TTFWeight: 400
TTFWidth: 5
LineGap: 0
VLineGap: 0
Panose: 0 0 0 0 0 0 0 0 0 0
OS2TypoAscent: 2898
OS2TypoAOffset: 0
OS2TypoDescent: -919
OS2TypoDOffset: 0
OS2TypoLinegap: 0
OS2WinAscent: 2898
OS2WinAOffset: 0
OS2WinDescent: 919
OS2WinDOffset: 0
HheadAscent: 2898
HheadAOffset: 0
HheadDescent: -919
HheadDOffset: 0
OS2SubXSize: 1331
OS2SubYSize: 1228
OS2SubXOff: 0
OS2SubYOff: 153
OS2SupXSize: 1331
OS2SupYSize: 1228
OS2SupXOff: 0
OS2SupYOff: 716
OS2StrikeYSize: 102
OS2StrikeYPos: 1137
OS2Vendor: 'typm'
OS2CodePages: 20000001.00000000
OS2UnicodeRanges: 00000003.00000000.00000000.00000000
MarkAttachClasses: 1
DEI: 91125
LangName: 1033 "" "" "" "" "" "" "" "" "" "" "" "" "" "This Font Software is licensed under the SIL Open Font License, Version 1.1. This license is available with a FAQ at: http://scripts.sil.org/OFL" "http://scripts.sil.org/OFL" 
GaspTable: 1 65535 15
Encoding: UnicodeBmp
Compacted: 1
UnicodeInterp: none
NameList: Adobe Glyph List
DisplaySize: -96
AntiAlias: 1
FitToEm: 1
WidthSeparation: 460
WinInfo: 0 12 4
BeginPrivate: 6
BlueValues 27 [-16 0 1780 1780 1896 1896]
OtherBlues 11 [-541 -541]
StdHW 5 [178]
StdVW 5 [362]
StemSnapH 17 [160 178 199 225]
StemSnapV 21 [215 268 297 324 362]
EndPrivate
BeginChars: 65538 344

StartChar: E
Encoding: 69 69 4
Width: 1466
Flags: MW
LayerCount: 2
Fore
SplineSet
664 1317 m 0
 664 1308 668 1302 670 1294 c 0
 670 1292 672 1290 674 1288 c 0
 688 1268 692 1233 692 1200 c 0
 692 1151 682 1090 682 1055 c 0
 682 1014 696 913 731 913 c 0
 747 913 799 950 852 950 c 0
 866 950 883 950 899 948 c 1
 920 948 934 958 934 981 c 2
 934 1118 l 2
 934 1135 932 1145 864 1174 c 1
 870 1186 l 1
 909 1161 930 1161 940 1161 c 0
 950 1161 953 1164 958 1169 c 0
 969 1178 975 1188 995 1260 c 1
 1003 1257 l 1
 989 1210 985 1188 985 1178 c 0
 985 1139 1034 1087 1067 1087 c 0
 1083 1087 1104 1096 1143 1114 c 1
 1153 1096 l 1
 1090 1059 1083 1047 1083 1018 c 2
 1083 1014 l 1
 1081 989 1141 963 1139 909 c 2
 1137 854 l 2
 1137 844 1141 836 1163 823 c 1
 1165 823 1184 815 1214 803 c 1
 1206 774 l 1
 1173 786 1155 795 1153 795 c 0
 1147 797 1143 797 1139 797 c 0
 1122 797 1116 788 1108 780 c 1
 1087 752 l 2
 1085 748 1083 741 1083 737 c 2
 1087 698 l 1
 1087 653 1079 616 1053 590 c 0
 1036 573 1026 555 1024 481 c 1
 1008 481 l 1
 1008 502 l 2
 1008 559 999 575 983 592 c 0
 930 647 913 725 909 803 c 0
 909 819 901 827 889 827 c 0
 860 827 829 813 799 813 c 0
 778 813 758 817 739 817 c 0
 707 817 682 729 682 694 c 2
 682 653 l 2
 682 596 682 496 686 496 c 0
 698 496 715 498 737 504 c 1
 745 475 l 1
 672 457 670 440 670 410 c 2
 670 369 l 2
 670 350 682 338 700 338 c 2
 856 338 l 2
 887 338 903 342 920 414 c 1
 948 408 l 1
 942 385 940 369 940 356 c 0
 940 307 1059 274 1108 274 c 0
 1124 274 1139 285 1141 303 c 1
 1149 350 l 2
 1159 412 1235 432 1290 438 c 0
 1313 440 1331 449 1386 498 c 1
 1397 487 l 1
 1341 438 1331 420 1327 397 c 1
 1305 301 1296 195 1266 90 c 0
 1264 84 1264 78 1264 72 c 0
 1264 68 1276 37 1292 -10 c 1
 1270 -16 l 1
 1247 43 1235 80 1243 63 c 1
 1227 94 1214 90 1196 96 c 0
 1184 100 1173 102 1165 102 c 0
 1145 102 1128 90 1110 45 c 1
 1092 53 l 1
 1114 106 1104 125 1110 125 c 0
 1112 125 1114 123 1120 121 c 1
 1055 154 993 156 940 186 c 0
 936 188 932 188 928 188 c 2
 471 188 l 2
 418 188 369 176 360 139 c 1
 322 53 l 1
 289 68 l 1
 332 158 l 1
 340 193 342 225 342 258 c 0
 342 451 278 903 274 1255 c 1
 272 1278 268 1292 199 1315 c 1
 205 1335 l 1
 235 1327 256 1319 268 1319 c 0
 285 1319 293 1319 301 1337 c 1
 326 1368 l 1
 336 1395 l 2
 336 1397 338 1401 338 1403 c 0
 338 1405 336 1407 336 1411 c 1
 330 1434 l 1
 322 1454 229 1475 201 1475 c 0
 184 1475 168 1462 143 1413 c 1
 121 1425 l 1
 135 1456 141 1475 141 1487 c 0
 141 1503 133 1509 123 1520 c 1
 72 1563 l 2
 61 1571 53 1579 35 1579 c 0
 20 1579 0 1571 -33 1563 c 1
 -41 1583 l 1
 37 1610 45 1634 45 1665 c 2
 45 1688 l 2
 45 1700 43 1708 -10 1759 c 1
 -4 1765 l 1
 47 1714 57 1710 68 1710 c 2
 72 1710 l 2
 84 1710 90 1712 121 1780 c 1
 129 1776 l 1
 109 1733 104 1714 104 1706 c 0
 104 1695 119 1677 129 1677 c 2
 135 1677 l 1
 152 1679 162 1694 178 1751 c 1
 199 1745 l 1
 190 1716 188 1698 188 1686 c 0
 188 1649 287 1612 317 1612 c 0
 332 1612 344 1624 369 1675 c 1
 387 1667 l 1
 371 1632 362 1610 362 1602 c 0
 362 1569 457 1532 491 1532 c 0
 508 1532 520 1540 545 1595 c 1
 565 1587 l 1
 551 1556 545 1538 545 1526 c 1
 551 1544 672 1556 717 1556 c 0
 737 1556 752 1565 776 1626 c 1
 797 1616 l 1
 782 1583 776 1563 776 1548 c 0
 776 1534 782 1526 793 1520 c 1
 799 1513 807 1505 819 1505 c 2
 1044 1505 l 2
 1046 1505 1046 1507 1049 1509 c 1
 1053 1505 l 1
 1061 1505 1065 1509 1069 1513 c 0
 1133 1577 1264 1548 1352 1692 c 1
 1362 1683 l 1
 1321 1622 1317 1604 1317 1581 c 2
 1317 1229 l 2
 1317 1204 1321 1184 1352 1116 c 1
 1343 1112 l 1
 1313 1180 1298 1196 1282 1212 c 1
 1184 1296 l 1
 1180 1298 1176 1300 1173 1305 c 1
 1155 1303 1143 1292 1112 1239 c 1
 1098 1247 l 1
 1120 1288 1126 1305 1126 1319 c 0
 1126 1337 1100 1372 1071 1399 c 1
 1083 1389 l 1
 1049 1440 1014 1454 997 1454 c 2
 700 1452 l 2
 680 1452 664 1397 664 1317 c 0
EndSplineSet
EndChar

StartChar: F
Encoding: 70 70 5
Width: 1336
Flags: MW
LayerCount: 2
Fore
SplineSet
782 1167 m 1
 767 1208 767 1210 711 1276 c 1
 717 1282 l 1
 809 1174 840 1178 899 1178 c 0
 919 1178 938 1186 987 1231 c 1
 997 1219 l 1
 944 1167 938 1151 938 1126 c 2
 938 825 l 2
 938 784 913 745 913 709 c 0
 913 694 924 682 973 647 c 1
 962 633 l 1
 924 662 905 670 893 670 c 0
 850 670 848 598 848 575 c 0
 848 553 858 528 932 504 c 1
 926 485 l 1
 885 500 866 502 850 502 c 0
 829 502 807 496 778 383 c 1
 768 387 l 1
 780 430 784 455 784 469 c 0
 784 508 741 586 702 586 c 0
 688 586 670 582 641 571 c 1
 633 596 l 1
 702 621 706 637 706 664 c 2
 706 715 l 2
 706 733 694 745 676 745 c 2
 561 745 l 2
 543 745 530 733 530 715 c 2
 530 369 l 2
 530 276 637 297 690 231 c 0
 704 213 721 203 790 178 c 1
 786 166 l 1
 739 182 715 188 696 188 c 0
 674 188 651 176 629 176 c 0
 625 176 623 176 618 178 c 1
 530 188 l 1
 426 188 211 166 211 94 c 0
 211 80 219 59 237 25 c 1
 225 18 l 1
 205 55 194 74 182 80 c 1
 160 74 143 63 143 35 c 1
 117 37 l 1
 174 115 235 184 311 229 c 1
 313 233 315 238 315 242 c 2
 315 457 l 2
 315 522 311 662 289 662 c 0
 276 662 260 659 237 653 c 1
 231 682 l 1
 293 698 301 711 301 733 c 1
 293 836 l 1
 276 1356 l 2
 276 1372 266 1382 250 1384 c 1
 194 1399 l 2
 190 1401 186 1401 182 1401 c 0
 168 1401 154 1391 125 1343 c 1
 108 1354 l 1
 131 1389 137 1407 137 1419 c 0
 137 1462 76 1464 57 1464 c 0
 45 1464 31 1460 -43 1432 c 1
 -45 1438 l 1
 10 1458 35 1466 35 1481 c 0
 35 1493 27 1511 6 1546 c 1
 27 1561 l 1
 53 1520 70 1507 82 1507 c 0
 102 1507 131 1532 154 1548 c 0
 170 1559 180 1571 201 1642 c 1
 213 1638 l 1
 203 1599 199 1577 199 1563 c 0
 199 1485 307 1501 367 1495 c 1
 680 1483 l 1
 729 1483 858 1505 868 1516 c 1
 885 1532 l 2
 895 1542 901 1550 901 1563 c 0
 901 1577 893 1595 870 1626 c 1
 893 1642 l 1
 915 1606 938 1591 952 1591 c 0
 971 1591 1001 1610 1008 1626 c 1
 950 1612 l 2
 971 1618 991 1626 1010 1634 c 1
 1010 1649 1008 1667 995 1698 c 1
 1026 1708 l 1
 1036 1679 1044 1663 1053 1653 c 1
 1108 1679 1151 1710 1175 1743 c 1
 1239 1698 l 1
 1202 1645 1184 1554 1184 1497 c 0
 1184 1475 1188 1458 1188 1434 c 2
 1188 1227 l 2
 1188 1202 1194 1186 1245 1133 c 1
 1235 1122 l 1
 1182 1174 1165 1180 1141 1180 c 2
 1085 1180 l 2
 1061 1180 1046 1176 1012 1110 c 1
 993 1120 l 1
 1014 1157 1022 1178 1022 1194 c 0
 1022 1204 1018 1210 1014 1219 c 1
 915 1374 l 1
 911 1378 905 1382 899 1384 c 2
 846 1395 l 1
 571 1382 l 2
 553 1382 530 1339 530 1329 c 2
 530 1266 l 1
 530 1266 532 1178 532 1104 c 1
 545 1087 530 926 573 926 c 2
 706 926 l 2
 754 926 760 989 760 1038 c 2
 760 1079 l 2
 760 1094 784 1143 784 1159 c 0
 784 1161 782 1163 782 1167 c 1
950 1612 m 2
 944 1610 938 1608 934 1608 c 2
 950 1612 l 2
EndSplineSet
EndChar

StartChar: G
Encoding: 71 71 6
Width: 1545
Flags: MW
LayerCount: 2
Fore
SplineSet
441 1716 m 2
 462 1716 480 1736 480 1759 c 0
 480 1772 478 1790 470 1817 c 1
 490 1823 l 1
 511 1751 523 1749 547 1749 c 2
 691 1749 l 2
 726 1749 742 1751 754 1825 c 1
 789 1819 l 1
 785 1800 785 1788 785 1776 c 0
 785 1733 822 1718 869 1718 c 0
 883 1718 893 1726 914 1786 c 1
 930 1782 l 1
 918 1749 914 1729 914 1716 c 0
 914 1667 1066 1681 1154 1530 c 1
 1160 1522 1168 1516 1178 1516 c 2
 1295 1516 l 2
 1317 1516 1330 1520 1360 1587 c 1
 1379 1579 l 1
 1362 1542 1356 1522 1356 1509 c 0
 1356 1495 1365 1487 1373 1479 c 0
 1381 1470 1387 1464 1401 1464 c 0
 1414 1464 1434 1468 1467 1481 c 1
 1475 1462 l 1
 1405 1436 1401 1423 1399 1401 c 1
 1393 1180 l 2
 1393 1159 1401 1141 1449 1094 c 1
 1436 1081 l 1
 1385 1135 1369 1141 1344 1141 c 2
 1340 1141 l 1
 1338 1137 1338 1133 1338 1126 c 0
 1338 1112 1348 1096 1385 1067 c 1
 1367 1042 l 1
 1336 1067 1315 1077 1303 1077 c 1
 1281 1016 1262 1008 1248 995 c 1
 1221 1030 l 1
 1221 1032 1219 1032 1219 1034 c 0
 1205 1069 1182 1102 1182 1141 c 0
 1182 1165 1176 1262 1125 1296 c 1
 1109 1315 1082 1339 1066 1368 c 1
 1041 1362 1008 1362 975 1362 c 0
 959 1362 941 1364 922 1366 c 1
 969 1366 l 2
 988 1366 1002 1378 1002 1393 c 0
 1002 1432 922 1493 902 1493 c 1
 748 1505 l 1
 644 1505 603 1427 541 1415 c 0
 533 1413 525 1407 521 1399 c 0
 498 1346 420 1174 420 1167 c 2
 420 756 l 2
 420 600 537 520 594 393 c 0
 603 375 713 358 748 358 c 0
 767 358 781 371 812 424 c 1
 832 412 l 1
 812 377 803 356 803 342 c 0
 803 327 820 310 828 299 c 1
 816 276 l 1
 869 330 982 541 982 668 c 0
 982 698 924 705 896 705 c 0
 875 705 857 696 807 655 c 1
 797 666 l 1
 855 715 861 729 863 750 c 1
 863 752 l 2
 863 862 861 938 791 1071 c 1
 797 1075 l 1
 904 874 1000 948 1088 854 c 1
 1104 860 1125 860 1145 860 c 0
 1172 860 1203 858 1225 856 c 0
 1248 854 1391 844 1391 756 c 0
 1391 729 1393 700 1399 674 c 0
 1405 647 1410 637 1483 637 c 1
 1483 616 l 1
 1410 616 1405 608 1399 588 c 1
 1399 578 l 2
 1399 563 1408 543 1442 500 c 1
 1430 489 l 1
 1385 549 1371 553 1350 553 c 2
 1260 553 l 2
 1244 553 1231 541 1229 524 c 0
 1219 406 1145 205 1082 125 c 1
 1080 133 l 1
 1080 106 1082 92 1129 23 c 1
 1121 16 l 1
 1055 115 1002 125 943 125 c 0
 924 125 904 125 883 125 c 0
 871 125 857 127 842 127 c 0
 812 127 781 113 775 20 c 1
 758 23 l 1
 760 39 760 53 760 63 c 0
 760 100 746 123 734 123 c 1
 676 16 l 1
 689 45 695 70 697 90 c 1
 697 111 689 127 668 141 c 1
 660 141 l 1
 654 139 648 137 644 131 c 2
 629 111 l 2
 619 98 613 86 613 59 c 0
 613 45 615 27 619 2 c 1
 603 0 l 1
 592 74 582 88 564 102 c 0
 513 145 416 217 363 217 c 0
 345 217 324 207 293 168 c 1
 271 188 l 1
 298 221 306 242 306 258 c 0
 306 283 275 313 273 346 c 0
 273 360 214 403 199 432 c 0
 195 440 191 444 177 444 c 0
 164 444 146 442 115 434 c 1
 111 449 l 1
 191 469 185 477 185 496 c 0
 185 582 97 651 97 756 c 2
 97 1049 l 2
 97 1186 171 1317 171 1454 c 0
 171 1473 162 1485 103 1511 c 1
 111 1530 l 1
 144 1516 162 1511 175 1511 c 0
 224 1511 326 1704 326 1706 c 0
 326 1720 320 1741 302 1778 c 1
 320 1788 l 1
 353 1720 367 1716 390 1716 c 2
 441 1716 l 2
676 16 m 1
 670 6 l 1
 676 16 l 1
EndSplineSet
EndChar

StartChar: H
Encoding: 72 72 7
Width: 1561
Flags: MW
LayerCount: 2
Fore
SplineSet
1365 236 m 1
 1374 233 1386 229 1396 229 c 0
 1408 229 1428 238 1484 274 c 1
 1490 262 l 1
 1422 219 1416 207 1412 190 c 1
 1412 186 l 1
 1408 182 1408 180 1408 178 c 0
 1408 164 1420 152 1473 115 c 1
 1465 100 l 1
 1422 131 1402 137 1391 137 c 0
 1383 137 1379 135 1375 133 c 2
 1350 115 l 2
 1340 109 1338 96 1338 84 c 0
 1338 76 1340 66 1340 59 c 2
 1342 -12 l 1
 1307 -12 l 1
 1307 72 l 2
 1307 147 1037 125 963 154 c 1
 902 176 855 217 797 236 c 1
 806 311 l 1
 832 322 861 322 896 322 c 2
 951 322 l 2
 972 322 986 334 986 354 c 0
 990 481 1017 600 1021 731 c 1
 1021 766 988 764 959 764 c 0
 922 764 881 762 849 756 c 0
 824 752 810 743 810 664 c 1
 785 664 l 1
 785 743 773 752 748 756 c 0
 714 762 671 762 632 762 c 0
 585 762 529 760 525 727 c 1
 513 410 l 2
 511 377 550 311 585 311 c 0
 599 311 617 319 617 381 c 2
 617 408 l 1
 632 408 l 1
 634 328 640 326 654 322 c 2
 677 315 l 2
 681 313 685 313 691 313 c 0
 707 313 730 322 783 344 c 1
 787 334 l 1
 714 303 703 291 691 276 c 1
 687 266 l 1
 681 258 677 250 677 240 c 1
 693 248 l 1
 689 233 l 1
 685 233 681 233 677 231 c 1
 679 215 689 195 716 162 c 1
 695 145 l 1
 660 193 642 207 623 207 c 0
 546 207 396 111 320 84 c 0
 300 76 285 68 277 -12 c 1
 257 -10 l 1
 259 12 259 27 259 41 c 0
 259 68 257 82 242 82 c 0
 226 82 208 66 208 43 c 2
 208 16 l 2
 208 -33 181 -10 181 -115 c 2
 181 -150 l 1
 175 -150 l 1
 171 -70 169 -57 161 -47 c 1
 156 -35 l 1
 152 -31 148 -27 136 -27 c 0
 122 -27 103 -29 64 -37 c 1
 62 -27 l 1
 140 -8 142 0 144 12 c 0
 144 18 183 121 181 125 c 2
 144 188 l 1
 134 209 120 217 42 231 c 1
 44 250 l 1
 73 244 95 242 109 242 c 0
 163 242 216 297 216 311 c 2
 216 653 l 2
 216 688 183 727 183 762 c 2
 183 1073 l 2
 183 1079 159 1094 122 1114 c 1
 140 1155 l 1
 159 1149 169 1145 171 1145 c 0
 197 1145 216 1166 216 1190 c 1
 202 1366 l 2
 202 1372 195 1378 191 1382 c 2
 113 1452 l 2
 99 1464 87 1470 48 1470 c 0
 36 1470 17 1470 -5 1468 c 1
 -5 1489 l 1
 75 1495 91 1507 107 1526 c 1
 152 1587 l 2
 167 1608 177 1628 181 1708 c 1
 193 1708 l 1
 191 1690 191 1677 191 1663 c 0
 191 1618 195 1599 208 1583 c 1
 230 1565 437 1542 498 1542 c 0
 515 1542 527 1550 562 1614 c 1
 576 1606 l 1
 552 1563 546 1540 546 1526 c 0
 546 1481 630 1477 671 1477 c 0
 693 1477 722 1485 785 1511 c 1
 789 1499 l 1
 732 1475 707 1460 691 1444 c 1
 711 1448 l 1
 699 1403 l 1
 685 1403 671 1405 658 1405 c 1
 656 1403 654 1399 654 1397 c 0
 654 1370 660 1350 707 1284 c 1
 695 1276 l 1
 646 1341 630 1352 605 1358 c 1
 572 1368 l 1
 562 1368 l 2
 527 1368 513 1300 513 1290 c 2
 513 961 l 2
 513 940 525 926 546 926 c 2
 711 926 l 2
 752 926 781 963 822 963 c 0
 867 963 908 930 951 930 c 0
 970 930 986 946 986 967 c 2
 986 1323 l 2
 986 1354 920 1374 841 1389 c 1
 812 1462 l 1
 828 1462 843 1460 855 1456 c 1
 873 1456 886 1473 886 1495 c 0
 886 1509 884 1528 875 1561 c 1
 898 1567 l 1
 920 1491 933 1487 961 1487 c 2
 970 1487 l 2
 996 1487 1019 1540 1072 1540 c 1
 1084 1546 1090 1552 1090 1595 c 2
 1090 1636 l 1
 1107 1636 l 1
 1114 1542 1116 1551 1154 1542 c 1
 1156 1540 1160 1540 1162 1540 c 0
 1195 1542 1281 1573 1326 1604 c 1
 1340 1612 1348 1622 1357 1704 c 1
 1371 1702 l 1
 1367 1671 1367 1653 1367 1638 c 0
 1367 1599 1375 1585 1416 1585 c 0
 1428 1585 1449 1587 1479 1591 c 1
 1484 1575 l 1
 1404 1565 1396 1556 1385 1538 c 1
 1371 1503 l 2
 1369 1497 1367 1491 1367 1485 c 0
 1367 1468 1377 1450 1420 1415 c 1
 1404 1395 l 1
 1365 1427 1344 1440 1330 1440 c 0
 1318 1440 1307 1430 1299 1423 c 1
 1289 1419 1287 1415 1287 1407 c 0
 1287 1403 1293 1397 1301 1389 c 1
 1342 1335 1350 1171 1350 1126 c 2
 1340 668 l 1
 1330 584 1340 537 1281 494 c 0
 1273 487 1269 479 1269 469 c 2
 1269 324 l 2
 1269 311 1361 236 1365 236 c 1
EndSplineSet
EndChar

StartChar: I
Encoding: 73 73 8
Width: 808
Flags: MW
LayerCount: 2
Fore
SplineSet
259 231 m 2
 244 1425 l 2
 244 1458 189 1454 181 1489 c 1
 177 1513 117 1530 105 1530 c 0
 91 1530 76 1520 44 1479 c 1
 27 1491 l 1
 64 1534 64 1550 64 1565 c 0
 64 1577 56 1595 -38 1638 c 1
 -36 1642 l 1
 31 1612 46 1610 62 1610 c 2
 142 1610 l 2
 173 1610 191 1616 220 1683 c 1
 246 1673 l 1
 234 1642 228 1620 228 1606 c 0
 228 1561 287 1538 330 1538 c 2
 480 1538 l 1
 521 1595 l 1
 527 1591 531 1585 535 1581 c 1
 539 1585 541 1591 541 1599 c 0
 541 1614 535 1634 517 1671 c 1
 537 1681 l 1
 570 1614 582 1610 607 1610 c 2
 646 1610 l 2
 656 1610 722 1677 722 1690 c 0
 722 1700 717 1718 705 1755 c 1
 715 1759 l 1
 738 1690 744 1688 756 1688 c 2
 762 1688 l 2
 775 1688 787 1690 855 1716 c 1
 857 1712 l 1
 787 1686 779 1679 769 1671 c 2
 742 1647 l 1
 736 1640 734 1634 734 1626 c 0
 730 1552 695 1546 668 1540 c 0
 638 1534 601 1520 566 1511 c 1
 572 1473 l 1
 574 1448 590 1440 646 1440 c 1
 646 1393 l 1
 611 1393 593 1389 582 1378 c 1
 582 1366 584 1354 584 1339 c 1
 580 1376 l 1
 570 1366 570 1350 570 1329 c 0
 570 1221 584 1122 584 1016 c 0
 584 836 564 637 560 457 c 0
 560 432 564 418 625 377 c 1
 615 360 l 1
 574 387 554 395 537 395 c 0
 513 395 504 381 504 367 c 2
 504 279 l 2
 504 233 636 236 636 188 c 0
 636 186 633 182 633 180 c 0
 633 164 660 127 666 106 c 0
 672 84 681 61 732 10 c 1
 724 0 l 1
 672 53 652 66 627 72 c 1
 625 72 l 2
 623 72 621 74 619 74 c 0
 584 74 578 -2 578 -25 c 1
 554 -23 l 1
 554 20 537 84 488 96 c 1
 468 59 l 2
 472 68 474 76 474 84 c 0
 474 88 472 94 472 98 c 1
 459 98 443 96 420 94 c 1
 420 104 l 1
 466 109 l 1
 457 121 443 131 427 131 c 2
 316 131 l 2
 302 131 169 53 169 14 c 1
 152 -45 l 1
 124 -37 l 1
 144 18 l 1
 144 92 259 190 259 231 c 2
595 1272 m 1
 590 1296 586 1319 584 1339 c 1
 595 1272 l 1
EndSplineSet
EndChar

StartChar: J
Encoding: 74 74 9
Width: 1205
Flags: MW
LayerCount: 2
Fore
SplineSet
70 1692 m 1
 76 1703 85 1713 85 1729 c 0
 85 1743 77 1763 54 1802 c 1
 70 1810 l 1
 107 1747 122 1743 144 1743 c 2
 330 1743 l 2
 363 1743 382 1747 400 1819 c 1
 433 1810 l 1
 425 1786 423 1767 423 1755 c 0
 423 1702 503 1686 550 1688 c 2
 634 1692 l 1
 634 1692 652 1696 652 1700 c 1
 705 1769 914 1767 986 1767 c 2
 1232 1767 l 2
 1256 1767 1277 1774 1342 1810 c 1
 1348 1798 l 1
 1215 1724 1256 1700 1201 1669 c 0
 1197 1667 1193 1665 1191 1661 c 2
 1178 1642 l 1
 1174 1634 1170 1626 1170 1616 c 0
 1170 1602 1178 1581 1205 1544 c 1
 1184 1532 l 1
 1152 1577 1135 1587 1119 1587 c 0
 1082 1587 1025 1563 1025 1526 c 0
 1025 1513 1027 1497 1033 1473 c 1
 1017 1468 l 1
 1002 1542 992 1544 976 1546 c 1
 974 1546 l 2
 939 1546 867 1542 867 1503 c 2
 867 1270 l 2
 867 1251 895 1229 914 1229 c 0
 926 1229 947 1235 982 1249 c 1
 990 1229 l 1
 922 1200 918 1188 918 1163 c 2
 918 1104 l 2
 918 1075 922 1061 994 1042 c 1
 986 1016 l 1
 961 1022 945 1024 933 1024 c 0
 863 1024 849 866 849 758 c 0
 849 627 867 483 867 397 c 0
 867 367 867 311 849 276 c 1
 836 256 820 248 820 246 c 1
 842 246 865 250 931 285 c 1
 935 274 l 1
 869 242 853 227 840 207 c 0
 802 150 746 74 746 4 c 0
 746 -12 756 -27 806 -61 c 1
 795 -76 l 1
 754 -47 736 -37 724 -37 c 0
 685 -37 621 -123 621 -154 c 0
 621 -166 632 -182 668 -219 c 1
 656 -233 l 1
 619 -197 601 -186 589 -186 c 0
 541 -186 517 -250 517 -287 c 0
 517 -309 527 -332 566 -375 c 1
 548 -389 l 1
 503 -340 482 -330 455 -330 c 2
 447 -330 l 2
 427 -330 404 -324 378 -324 c 1
 378 -324 376 -326 373 -326 c 2
 369 -326 l 1
 351 -330 339 -338 310 -406 c 1
 296 -399 l 1
 312 -358 318 -338 318 -324 c 0
 318 -297 283 -233 279 -174 c 1
 279 -156 275 -143 206 -115 c 1
 214 -98 l 1
 251 -115 271 -121 283 -121 c 0
 320 -121 353 -51 353 -31 c 0
 353 -14 345 6 318 47 c 1
 335 59 l 1
 376 -2 392 -8 416 -8 c 2
 490 -8 l 2
 505 -8 517 2 519 16 c 2
 527 66 l 2
 527 70 525 74 525 80 c 0
 525 98 539 133 539 145 c 2
 539 207 l 2
 539 213 537 217 535 221 c 0
 515 250 509 283 509 317 c 0
 509 340 513 362 515 385 c 1
 515 399 468 461 455 504 c 1
 453 516 449 524 425 524 c 0
 414 524 398 522 373 518 c 1
 371 537 l 1
 445 549 445 557 445 575 c 0
 437 797 416 862 416 1274 c 0
 416 1362 421 1440 421 1489 c 0
 421 1505 406 1518 390 1518 c 0
 279 1522 173 1538 62 1542 c 0
 36 1542 13 1536 -48 1495 c 1
 -57 1507 l 1
 3 1550 17 1569 25 1593 c 1
 36 1622 l 2
 38 1626 38 1630 38 1634 c 0
 38 1647 27 1659 -24 1683 c 1
 -14 1700 l 1
 19 1683 38 1677 48 1677 c 0
 70 1677 70 1683 70 1692 c 1
EndSplineSet
EndChar

StartChar: K
Encoding: 75 75 10
Width: 1350
Flags: MW
LayerCount: 2
Fore
SplineSet
1274 1475 m 2
 1286 1454 l 1
 1300 1434 1315 1419 1380 1384 c 1
 1376 1376 l 1
 1311 1411 1290 1415 1266 1415 c 2
 1262 1415 l 2
 1253 1415 1208 1382 1208 1352 c 0
 1208 1339 1210 1321 1214 1294 c 1
 1198 1292 l 1
 1186 1366 1178 1370 1159 1374 c 2
 1112 1384 l 2
 1110 1384 1108 1386 1106 1386 c 0
 1104 1386 1102 1384 1100 1384 c 0
 1055 1370 1020 1348 979 1348 c 2
 971 1348 l 2
 963 1348 954 1346 948 1339 c 2
 766 1155 l 1
 772 1159 l 1
 825 1067 l 1
 799 1051 788 1032 788 1012 c 0
 788 981 811 942 842 887 c 0
 864 846 909 809 917 752 c 1
 917 743 924 737 932 735 c 1
 967 717 983 586 983 537 c 0
 983 526 981 516 979 506 c 1
 1036 477 1139 342 1139 254 c 0
 1139 238 1104 190 1104 176 c 0
 1104 168 1112 150 1137 104 c 1
 1128 100 l 1
 1094 166 1087 168 1079 168 c 2
 1053 168 l 2
 1024 168 997 195 983 221 c 1
 981 231 930 252 905 279 c 1
 899 289 899 295 897 295 c 0
 877 295 860 289 811 233 c 1
 799 244 l 1
 840 291 848 309 848 326 c 1
 844 377 l 1
 834 420 l 1
 831 428 827 434 819 438 c 0
 766 467 745 535 745 569 c 0
 745 573 747 578 747 578 c 1
 739 582 731 586 721 586 c 0
 707 586 688 578 651 551 c 1
 637 569 l 1
 684 604 696 621 696 639 c 0
 696 729 604 764 606 764 c 1
 571 764 569 713 569 694 c 0
 569 627 612 451 647 444 c 1
 653 444 l 1
 659 442 664 442 670 442 c 0
 686 442 707 451 752 485 c 1
 762 471 l 1
 704 424 698 410 698 385 c 2
 698 371 l 2
 698 359 704 353 709 346 c 0
 721 326 733 313 807 305 c 1
 805 285 l 1
 784 287 770 287 758 287 c 0
 723 287 711 281 698 266 c 1
 668 186 l 1
 670 168 672 158 743 139 c 1
 739 121 l 1
 709 129 690 131 676 131 c 0
 656 131 652 122 645 111 c 0
 635 94 631 80 631 6 c 1
 621 6 l 1
 618 80 614 94 604 111 c 1
 595 120 593 127 575 127 c 0
 563 127 543 123 512 115 c 1
 506 131 l 1
 578 152 580 162 580 180 c 1
 567 233 l 1
 545 242 l 1
 500 238 l 1
 500 231 414 180 408 158 c 1
 403 96 l 1
 403 80 381 31 381 -4 c 0
 381 -18 383 -43 387 -82 c 1
 381 -82 l 1
 370 2 367 2 354 25 c 0
 350 31 346 37 332 37 c 0
 319 37 301 33 268 25 c 1
 264 39 l 1
 336 59 338 68 338 84 c 1
 354 246 l 1
 354 270 352 283 283 311 c 1
 291 332 l 1
 326 317 344 311 358 311 c 0
 373 311 379 317 387 328 c 1
 410 348 l 1
 414 354 416 360 416 367 c 0
 414 459 395 553 395 643 c 0
 395 649 393 653 391 657 c 2
 377 678 l 1
 369 688 365 696 348 696 c 0
 336 696 317 692 287 680 c 1
 279 700 l 1
 338 723 346 735 346 754 c 1
 330 868 l 1
 323 872 314 874 305 874 c 0
 291 874 270 866 231 842 c 1
 219 860 l 1
 274 895 285 909 285 930 c 0
 285 1036 262 1145 260 1253 c 0
 260 1260 258 1266 252 1272 c 1
 250 1272 l 1
 238 1284 225 1290 192 1290 c 0
 180 1290 164 1290 145 1288 c 1
 143 1305 l 1
 217 1313 229 1325 242 1343 c 2
 256 1364 l 2
 258 1368 260 1372 260 1378 c 2
 260 1427 l 1
 246 1417 235 1397 227 1360 c 1
 180 1370 l 1
 182 1384 184 1397 184 1407 c 0
 184 1503 43 1458 29 1530 c 0
 23 1556 4 1556 -80 1556 c 1
 -80 1565 l 1
 5 1565 10 1569 37 1585 c 0
 55 1595 66 1604 66 1620 c 0
 66 1632 61 1651 49 1679 c 1
 68 1688 l 1
 88 1638 100 1624 113 1624 c 1
 127 1632 133 1649 133 1704 c 1
 158 1704 l 1
 158 1622 186 1610 215 1610 c 0
 287 1610 356 1632 428 1632 c 0
 471 1632 567 1620 614 1587 c 0
 625 1579 631 1575 639 1575 c 0
 649 1575 661 1593 661 1608 c 0
 661 1620 655 1640 641 1675 c 1
 661 1683 l 1
 690 1616 702 1612 727 1612 c 2
 762 1612 l 2
 795 1612 813 1614 825 1688 c 1
 858 1681 l 1
 856 1665 854 1653 854 1642 c 0
 854 1534 1253 1583 1270 1485 c 0
 1270 1481 1272 1477 1274 1475 c 2
549 1458 m 2
 549 1196 l 2
 549 1171 563 1155 584 1155 c 0
 590 1155 596 1157 604 1161 c 1
 621 1174 l 1
 651 1206 l 1
 621 1255 l 1
 653 1206 l 1
 676 1231 700 1251 727 1260 c 1
 727 1270 l 2
 727 1303 743 1331 743 1333 c 2
 756 1360 l 1
 766 1427 l 1
 766 1436 762 1442 758 1448 c 1
 707 1497 l 1
 700 1501 694 1503 688 1503 c 2
 580 1503 l 2
 559 1503 549 1479 549 1458 c 2
EndSplineSet
EndChar

StartChar: L
Encoding: 76 76 11
Width: 1103
Flags: MW
LayerCount: 2
Fore
SplineSet
576 1741 m 1
 578 1653 586 1663 621 1659 c 1
 632 1659 642 1667 679 1718 c 1
 689 1712 l 1
 658 1669 650 1651 650 1640 c 0
 650 1624 666 1595 666 1567 c 2
 666 1550 l 2
 666 1538 668 1530 720 1477 c 1
 713 1470 l 1
 664 1526 656 1528 644 1528 c 2
 619 1530 l 2
 613 1530 605 1528 599 1526 c 1
 513 1452 l 2
 505 1446 502 1440 502 1432 c 0
 502 1411 505 1260 568 1260 c 0
 578 1260 593 1262 611 1266 c 1
 617 1231 l 1
 543 1214 548 1200 548 1161 c 0
 548 1133 554 1118 632 1118 c 1
 632 1096 l 1
 558 1096 554 1085 552 1063 c 1
 548 1040 548 1016 548 993 c 0
 548 870 562 690 562 569 c 2
 562 528 l 2
 562 521 567 513 570 508 c 0
 576 496 582 487 599 487 c 0
 611 487 629 492 660 504 c 1
 668 481 l 1
 613 461 601 449 601 434 c 0
 601 430 601 426 603 422 c 1
 611 387 l 2
 615 373 627 365 642 365 c 1
 744 383 l 1
 767 391 779 399 799 471 c 1
 818 467 l 1
 810 434 806 416 806 399 c 0
 806 377 814 360 836 360 c 2
 904 360 l 2
 951 360 1035 541 1035 563 c 0
 1035 573 1025 590 986 627 c 1
 998 639 l 1
 1033 604 1049 594 1062 594 c 0
 1092 594 1131 625 1178 748 c 1
 1184 745 l 1
 1160 676 1156 653 1156 631 c 2
 1156 432 l 2
 1156 342 1078 270 1078 186 c 0
 1078 172 1088 156 1135 123 c 1
 1123 106 l 1
 1084 135 1066 143 1053 143 c 0
 1040 143 1032 136 1023 131 c 0
 1008 121 1000 109 984 37 c 1
 974 39 l 1
 982 74 984 96 984 111 c 0
 984 145 955 172 947 207 c 1
 926 201 916 188 916 141 c 2
 916 127 l 1
 883 127 l 1
 881 201 865 205 834 207 c 0
 799 209 761 209 732 209 c 0
 568 209 539 190 419 121 c 1
 404 111 396 102 388 29 c 1
 373 31 l 1
 378 55 378 74 378 86 c 0
 378 120 369 123 355 137 c 1
 351 139 349 143 343 143 c 0
 332 143 314 137 273 121 c 1
 269 131 l 1
 337 160 339 166 339 178 c 2
 339 207 l 2
 339 227 343 250 349 270 c 1
 349 270 349 272 335 281 c 1
 345 276 351 274 351 274 c 1
 373 297 l 2
 378 301 380 303 380 313 c 1
 378 324 371 342 357 379 c 1
 367 383 l 1
 382 342 392 326 398 317 c 1
 404 322 408 330 408 338 c 0
 408 344 406 352 402 362 c 0
 380 424 398 567 332 567 c 0
 322 567 308 565 287 561 c 1
 281 592 l 1
 343 604 351 616 351 637 c 2
 351 649 l 1
 332 791 271 985 267 1126 c 0
 267 1143 230 1178 230 1245 c 0
 230 1274 232 1303 232 1321 c 0
 232 1356 232 1419 195 1419 c 0
 167 1419 134 1423 105 1423 c 0
 89 1423 68 1413 23 1374 c 1
 13 1386 l 1
 68 1436 74 1452 74 1475 c 2
 74 1548 l 2
 74 1571 68 1587 15 1638 c 1
 25 1651 l 1
 74 1606 93 1597 113 1597 c 0
 212 1597 449 1632 531 1655 c 1
 552 1659 560 1663 560 1708 c 2
 560 1739 l 1
 576 1741 l 1
EndSplineSet
EndChar

StartChar: M
Encoding: 77 77 12
Width: 1923
Flags: MW
LayerCount: 2
Fore
SplineSet
678 217 m 1
 673 212 670 210 670 201 c 0
 670 193 674 176 688 145 c 1
 676 143 l 1
 658 190 647 195 639 195 c 0
 561 195 289 139 289 113 c 0
 289 94 295 80 334 39 c 1
 328 31 l 1
 285 72 273 78 252 78 c 0
 238 78 193 74 166 10 c 1
 148 12 l 1
 191 106 l 1
 191 111 164 125 123 145 c 1
 138 174 l 1
 168 162 189 154 191 154 c 0
 203 154 211 160 211 170 c 0
 211 178 205 193 181 217 c 1
 197 231 l 1
 219 207 234 195 242 195 c 0
 250 195 256 201 262 207 c 1
 330 256 334 317 334 397 c 0
 334 434 326 471 326 508 c 0
 326 518 328 524 328 535 c 0
 328 539 326 541 324 545 c 0
 299 580 289 627 289 676 c 0
 289 698 291 727 295 750 c 1
 295 752 l 1
 291 864 289 1401 244 1493 c 1
 203 1532 l 1
 199 1534 193 1536 189 1536 c 2
 111 1536 l 2
 92 1536 82 1532 62 1481 c 1
 47 1485 l 1
 62 1513 64 1530 64 1538 c 0
 64 1551 59 1560 47 1565 c 1
 47 1569 39 1573 31 1573 c 0
 25 1573 6 1567 -20 1556 c 1
 -26 1567 l 1
 29 1589 31 1595 31 1612 c 0
 31 1624 27 1632 -16 1675 c 1
 -8 1679 l 1
 29 1645 41 1638 51 1638 c 0
 92 1638 123 1661 160 1661 c 2
 504 1661 l 2
 525 1661 537 1663 561 1718 c 1
 576 1710 l 1
 563 1679 557 1663 557 1653 c 0
 557 1645 561 1638 568 1630 c 2
 600 1589 l 1
 604 1579 611 1575 623 1575 c 0
 633 1575 650 1579 674 1587 c 1
 680 1571 l 1
 625 1550 621 1542 621 1522 c 2
 621 1520 l 2
 621 1516 623 1513 627 1509 c 0
 729 1382 860 1133 883 971 c 1
 888 961 896 952 906 952 c 0
 916 952 930 958 955 967 c 1
 963 948 l 1
 920 932 912 922 912 909 c 0
 912 868 949 780 979 780 c 0
 992 780 1006 786 1026 799 c 1
 1041 778 l 1
 1006 760 994 750 994 737 c 1
 996 731 1004 729 1010 729 c 0
 1039 729 1047 793 1059 838 c 1
 1067 985 1176 1118 1217 1262 c 0
 1219 1266 1219 1270 1219 1274 c 0
 1219 1286 1209 1296 1170 1313 c 1
 1176 1331 l 1
 1198 1323 1211 1319 1221 1319 c 0
 1254 1319 1311 1513 1311 1559 c 0
 1311 1573 1303 1587 1268 1620 c 1
 1280 1630 l 1
 1311 1599 1327 1593 1340 1593 c 0
 1344 1593 1348 1593 1354 1595 c 1
 1379 1597 l 1
 1391 1602 1401 1606 1401 1636 c 0
 1401 1645 1399 1655 1399 1665 c 1
 1415 1667 l 1
 1422 1610 1430 1608 1448 1608 c 0
 1579 1602 1719 1579 1841 1530 c 1
 1848 1526 1856 1524 1870 1524 c 0
 1882 1524 1903 1528 1932 1532 c 1
 1934 1522 l 1
 1859 1505 1864 1499 1839 1470 c 0
 1833 1464 1829 1458 1829 1446 c 0
 1829 1434 1831 1417 1841 1391 c 1
 1827 1384 l 1
 1807 1440 1798 1448 1780 1452 c 1
 1757 1454 l 1
 1692 1448 l 2
 1688 1448 1682 1446 1678 1440 c 2
 1653 1409 l 1
 1649 1407 1647 1401 1647 1399 c 2
 1647 1237 l 2
 1647 1221 1651 1212 1704 1188 c 1
 1698 1176 l 1
 1669 1188 1655 1192 1643 1192 c 0
 1626 1192 1624 1184 1624 1171 c 2
 1626 1012 l 2
 1626 977 1620 942 1598 913 c 0
 1594 909 1594 907 1594 901 c 0
 1587 793 1571 684 1571 573 c 1
 1577 272 l 2
 1577 258 1577 250 1600 248 c 2
 1659 244 l 1
 1676 244 1688 248 1731 287 c 1
 1739 279 l 1
 1694 240 1692 225 1692 209 c 2
 1692 195 l 2
 1692 184 1692 178 1749 158 c 1
 1743 147 l 1
 1712 160 1698 164 1690 164 c 0
 1684 164 1680 162 1676 160 c 1
 1676 158 l 1
 1674 154 1669 152 1669 143 c 0
 1669 135 1678 119 1686 88 c 1
 1676 84 l 1
 1657 141 1651 143 1641 143 c 2
 1338 168 l 1
 1295 168 l 2
 1250 168 1205 160 1190 80 c 1
 1180 82 l 1
 1184 109 1186 123 1186 133 c 0
 1186 147 1182 154 1176 160 c 1
 1174 160 l 1
 1170 164 1162 170 1139 170 c 0
 1129 170 1116 168 1096 166 c 1
 1096 176 l 1
 1169 183 1164 190 1182 215 c 1
 1186 223 1190 227 1190 238 c 0
 1190 246 1184 262 1168 291 c 1
 1180 303 l 1
 1207 258 1217 250 1233 250 c 1
 1233 250 1237 252 1239 252 c 2
 1276 260 l 1
 1284 264 1288 270 1291 279 c 1
 1307 393 l 1
 1296 420 1296 428 1233 442 c 1
 1235 459 l 1
 1256 453 1270 453 1280 453 c 0
 1305 453 1317 461 1317 475 c 2
 1311 1112 l 2
 1311 1139 1295 1153 1278 1153 c 0
 1239 1153 1205 1012 1205 965 c 0
 1205 950 1215 942 1260 930 c 1
 1256 909 l 1
 1235 915 1223 918 1213 918 c 0
 1194 918 1190 909 1186 897 c 2
 1139 725 l 1
 1139 721 1137 715 1137 713 c 0
 1137 698 1147 684 1190 666 c 1
 1182 647 l 1
 1155 657 1141 664 1129 664 c 0
 1026 664 1045 301 1010 213 c 1
 1006 207 1004 201 1004 193 c 0
 1004 176 1008 160 1016 127 c 1
 1010 127 l 1
 989 189 981 189 963 207 c 0
 961 209 955 209 946 209 c 0
 936 209 920 207 889 190 c 1
 883 203 l 1
 934 229 938 240 938 256 c 2
 938 260 l 2
 938 276 928 283 916 283 c 0
 903 283 887 276 858 262 c 1
 852 276 l 1
 901 301 908 311 910 326 c 1
 903 338 l 1
 805 461 791 647 715 793 c 0
 711 801 707 807 695 807 c 0
 686 807 672 805 647 793 c 1
 639 809 l 1
 678 825 686 836 686 846 c 0
 686 909 604 977 584 1057 c 1
 584 1057 523 1159 514 1159 c 0
 504 1159 492 1067 492 1018 c 0
 492 975 480 829 467 819 c 1
 496 786 502 743 502 698 c 0
 502 676 498 651 496 631 c 0
 496 627 496 623 498 618 c 0
 520 567 529 305 566 305 c 2
 625 305 l 2
 643 305 656 309 686 358 c 1
 701 350 l 1
 682 317 674 303 674 289 c 0
 674 276 681 265 686 256 c 0
 693 244 699 240 756 225 c 1
 754 217 l 1
 723 223 707 223 701 223 c 0
 678 223 678 223 678 217 c 1
262 1485 m 2
 252 1485 l 1
 254 1483 256 1483 258 1483 c 2
 258 1483 260 1485 262 1485 c 2
EndSplineSet
EndChar

StartChar: N
Encoding: 78 78 13
Width: 1494
Flags: MW
LayerCount: 2
Fore
SplineSet
615 154 m 1
 567 225 561 226 525 244 c 0
 523 244 521 246 519 246 c 0
 508 246 496 246 463 225 c 1
 445 225 431 233 428 233 c 1
 424 229 422 229 422 219 c 0
 422 211 426 190 439 152 c 1
 428 147 l 1
 404 217 398 219 388 219 c 2
 365 219 l 2
 345 219 330 217 330 217 c 1
 330 193 336 176 392 129 c 1
 381 115 l 1
 334 154 316 164 297 164 c 0
 293 164 289 162 285 162 c 1
 287 164 l 1
 269 160 263 143 263 129 c 0
 263 113 273 90 312 47 c 1
 297 37 l 1
 250 92 234 98 209 98 c 2
 162 98 l 2
 144 98 132 94 80 41 c 1
 70 51 l 1
 123 102 127 115 127 133 c 2
 127 170 l 2
 127 197 125 233 156 246 c 1
 189 258 207 422 207 422 c 1
 213 424 l 1
 220 399 234 383 250 383 c 0
 261 383 277 391 277 410 c 0
 279 498 285 571 285 664 c 0
 285 739 279 793 189 793 c 1
 185 836 l 1
 258 842 263 864 263 907 c 0
 263 969 267 1032 267 1096 c 0
 267 1257 232 1362 154 1454 c 1
 148 1458 142 1460 136 1460 c 0
 119 1460 110 1447 101 1438 c 1
 93 1432 86 1423 56 1356 c 1
 52 1356 l 1
 84 1423 84 1436 84 1446 c 0
 84 1456 78 1464 13 1485 c 1
 15 1497 l 1
 54 1489 74 1481 82 1481 c 0
 111 1481 132 1565 132 1589 c 0
 132 1610 123 1628 80 1677 c 1
 95 1690 l 1
 144 1634 156 1630 185 1630 c 2
 211 1630 l 2
 242 1630 261 1634 261 1706 c 1
 293 1706 l 1
 293 1620 320 1628 365 1628 c 0
 390 1628 404 1632 441 1696 c 1
 459 1686 l 1
 435 1647 426 1626 426 1610 c 1
 426 1610 428 1587 433 1587 c 1
 437 1575 514 1571 514 1520 c 0
 514 1516 512 1509 512 1505 c 0
 512 1501 517 1495 521 1491 c 0
 607 1372 691 1253 781 1143 c 1
 789 1135 795 1128 809 1128 c 0
 824 1128 844 1135 877 1147 c 1
 885 1126 l 1
 818 1100 813 1085 813 1063 c 2
 813 999 l 2
 813 987 822 983 830 977 c 1
 859 963 854 909 873 881 c 1
 910 817 924 795 949 795 c 0
 990 795 1000 850 1000 905 c 0
 1000 954 992 1008 992 1030 c 0
 992 1083 1018 1133 1018 1186 c 1
 1006 1376 l 1
 994 1427 l 2
 983 1470 848 1470 816 1470 c 0
 777 1470 744 1468 664 1419 c 1
 656 1432 l 1
 717 1470 738 1491 752 1518 c 0
 775 1559 834 1606 834 1649 c 0
 834 1663 826 1686 799 1726 c 1
 818 1737 l 1
 854 1677 871 1669 897 1669 c 0
 932 1669 949 1673 963 1745 c 1
 998 1739 l 1
 994 1718 992 1704 992 1692 c 0
 992 1612 1270 1591 1387 1591 c 0
 1407 1591 1432 1597 1491 1624 c 1
 1495 1614 l 1
 1428 1583 1409 1569 1395 1550 c 1
 1346 1493 1280 1425 1270 1362 c 1
 1309 1262 l 2
 1303 1280 1282 1286 1262 1286 c 0
 1170 1286 1172 1255 1172 1247 c 0
 1172 1188 1176 1118 1145 1067 c 0
 1143 1063 1141 1059 1141 1055 c 0
 1141 907 1135 764 1135 618 c 0
 1135 604 1143 594 1207 582 c 1
 1203 565 l 1
 1176 569 1160 573 1147 573 c 0
 1119 573 1113 541 1113 512 c 0
 1113 496 1115 481 1115 479 c 0
 1115 440 1115 406 1113 383 c 1
 1106 377 1100 369 1100 358 c 2
 1104 309 l 1
 1104 268 1106 221 1092 182 c 0
 1090 176 1088 170 1088 164 c 0
 1088 150 1094 127 1119 84 c 1
 1106 78 l 1
 1049 131 1035 147 1008 154 c 1
 1012 154 l 1
 1006 156 1002 156 996 156 c 0
 979 156 963 145 930 102 c 1
 914 115 l 1
 945 152 953 170 953 184 c 0
 953 207 927 238 906 238 c 0
 893 238 875 233 844 219 c 1
 832 244 l 1
 883 266 895 281 895 299 c 0
 895 352 863 455 838 498 c 1
 840 494 842 489 842 485 c 0
 842 473 832 461 785 438 c 1
 768 469 l 1
 801 487 822 494 822 512 c 0
 822 526 770 612 687 690 c 1
 678 700 672 709 656 709 c 0
 641 709 623 705 592 694 c 1
 586 715 l 1
 646 733 658 745 660 762 c 1
 660 766 l 1
 658 774 652 780 646 786 c 1
 598 813 539 872 531 924 c 1
 531 952 459 963 459 963 c 1
 449 963 437 958 416 942 c 1
 414 827 410 643 410 625 c 2
 410 477 l 2
 410 418 523 424 566 416 c 0
 574 414 582 412 592 412 c 0
 613 412 637 418 682 440 c 1
 691 424 l 1
 613 387 580 346 580 311 c 2
 580 266 l 2
 580 242 586 223 625 160 c 1
 615 154 l 1
EndSplineSet
EndChar

StartChar: O
Encoding: 79 79 14
Width: 1285
Flags: MW
LayerCount: 2
Fore
SplineSet
552 1620 m 1
 589 1636 626 1653 663 1653 c 0
 792 1653 955 1552 1015 1423 c 1
 1064 1329 1197 1315 1197 1194 c 0
 1197 1161 1218 1106 1254 1106 c 0
 1269 1106 1287 1108 1314 1118 c 1
 1322 1094 l 1
 1259 1073 1250 1061 1250 1038 c 0
 1250 965 1269 901 1269 827 c 0
 1269 709 1191 608 1173 496 c 0
 1171 489 1171 485 1171 481 c 0
 1171 463 1181 449 1236 422 c 1
 1226 401 l 1
 1193 416 1173 422 1158 422 c 0
 1144 422 1138 416 1130 406 c 0
 1056 326 984 246 902 174 c 0
 892 166 886 160 886 145 c 0
 886 131 890 113 902 80 c 1
 882 72 l 1
 857 141 845 145 820 145 c 2
 814 145 l 2
 781 145 761 139 736 70 c 1
 706 82 l 1
 716 111 720 129 720 143 c 0
 720 231 581 170 536 262 c 0
 527 281 509 307 503 336 c 1
 454 342 384 375 271 416 c 1
 310 403 l 2
 316 401 323 399 329 399 c 0
 353 399 372 418 372 438 c 0
 372 471 306 535 282 535 c 0
 269 535 249 528 214 514 c 1
 206 530 l 1
 261 555 276 567 278 584 c 1
 276 592 269 598 263 604 c 1
 220 637 206 696 204 748 c 0
 204 754 202 760 198 764 c 0
 106 834 104 948 104 1044 c 0
 104 1204 60 1298 -1 1337 c 1
 85 1468 l 1
 108 1450 138 1442 183 1442 c 0
 216 1442 255 1442 304 1460 c 1
 306 1585 462 1573 552 1620 c 1
908 520 m 1
 921 532 910 580 929 592 c 1
 945 625 937 668 960 700 c 0
 964 705 966 709 966 715 c 2
 966 942 l 2
 966 1032 941 1067 900 1067 c 0
 890 1067 878 1067 863 1065 c 1
 859 1090 l 1
 927 1100 933 1112 935 1135 c 1
 929 1153 910 1153 910 1184 c 0
 910 1190 912 1204 912 1212 c 0
 912 1217 910 1223 906 1227 c 0
 857 1282 841 1360 792 1415 c 1
 777 1407 769 1389 765 1348 c 1
 722 1352 l 1
 724 1362 724 1374 724 1384 c 0
 724 1434 691 1448 644 1448 c 0
 630 1448 552 1415 548 1411 c 1
 536 1389 511 1352 511 1325 c 0
 511 1311 523 1298 570 1272 c 1
 560 1255 l 1
 525 1274 509 1282 497 1282 c 0
 450 1282 446 1167 403 1149 c 1
 392 1149 384 1137 384 1124 c 2
 384 1034 l 2
 384 948 525 705 532 557 c 0
 532 551 534 547 536 543 c 2
 558 514 l 2
 568 500 577 492 591 492 c 0
 605 492 622 498 650 514 c 1
 669 487 l 1
 628 463 616 446 616 432 c 0
 616 424 618 416 624 406 c 1
 630 389 631 373 656 373 c 2
 669 373 l 2
 706 373 712 348 724 348 c 2
 779 348 l 2
 783 348 788 348 790 350 c 2
 822 367 l 1
 828 369 872 477 908 520 c 1
241 428 m 1
 265 418 l 1
 241 428 l 1
265 418 m 2
 267 418 269 418 271 416 c 1
 265 418 l 2
EndSplineSet
EndChar

StartChar: P
Encoding: 80 80 15
Width: 1415
Flags: MW
LayerCount: 2
Fore
SplineSet
653 55 m 1
 635 55 614 31 614 14 c 0
 614 0 620 -20 637 -53 c 1
 614 -61 l 1
 590 -2 575 6 555 6 c 0
 467 6 387 2 330 -135 c 1
 319 -129 l 1
 342 -78 348 -53 348 -33 c 0
 348 -2 340 25 340 55 c 0
 340 92 354 139 389 154 c 0
 403 160 414 166 414 180 c 2
 414 483 l 2
 414 541 360 580 360 637 c 0
 360 715 252 1473 231 1481 c 1
 166 1524 l 2
 162 1526 158 1528 151 1528 c 2
 84 1528 l 2
 59 1528 43 1522 -10 1470 c 1
 -21 1481 l 1
 31 1534 37 1550 37 1575 c 2
 37 1587 l 2
 37 1610 33 1622 -33 1657 c 1
 -25 1673 l 1
 14 1653 35 1645 49 1645 c 0
 61 1645 68 1651 76 1655 c 0
 86 1661 92 1667 92 1686 c 0
 92 1698 88 1718 80 1747 c 1
 100 1753 l 1
 121 1681 131 1679 153 1677 c 1
 250 1677 291 1696 291 1747 c 0
 291 1757 291 1765 289 1778 c 1
 325 1782 l 1
 334 1708 352 1706 389 1706 c 2
 584 1706 l 2
 600 1706 655 1749 694 1755 c 0
 704 1757 710 1757 710 1788 c 0
 710 1798 710 1812 708 1833 c 1
 721 1833 l 1
 725 1776 729 1761 735 1759 c 1
 747 1759 l 2
 788 1759 811 1769 825 1835 c 1
 874 1823 l 1
 870 1806 868 1794 868 1784 c 0
 868 1634 1163 1778 1186 1638 c 1
 1186 1606 1315 1438 1333 1438 c 0
 1345 1438 1364 1444 1401 1456 c 1
 1405 1444 l 1
 1335 1417 1333 1409 1333 1393 c 2
 1333 1362 l 2
 1333 1133 1216 905 1009 799 c 0
 1003 797 999 793 997 788 c 0
 950 707 917 752 811 612 c 1
 807 616 l 1
 852 674 862 692 868 711 c 1
 880 741 l 1
 883 745 883 752 883 756 c 0
 883 778 866 791 844 791 c 2
 829 791 l 2
 790 791 743 803 702 803 c 0
 686 803 674 793 672 772 c 0
 663 684 637 596 637 508 c 0
 637 422 657 340 710 340 c 0
 721 340 731 342 745 344 c 1
 747 328 l 1
 751 328 l 1
 747 317 l 1
 749 313 l 1
 747 313 l 1
 741 287 737 268 737 256 c 0
 737 240 743 231 749 223 c 1
 749 221 l 1
 753 213 758 207 770 207 c 0
 780 207 799 213 833 227 c 1
 842 211 l 1
 788 186 778 176 778 164 c 0
 778 131 792 90 893 41 c 1
 887 25 l 1
 835 49 809 57 786 57 c 0
 764 57 741 51 719 51 c 0
 694 51 672 53 653 55 c 1
833 1026 m 1
 909 1106 l 1
 917 1106 l 1
 917 1108 915 1110 915 1112 c 1
 952 1153 987 1192 1016 1227 c 1
 915 1128 l 1
 917 1141 923 1149 930 1159 c 2
 993 1260 l 2
 995 1264 995 1268 995 1272 c 0
 995 1290 971 1350 964 1354 c 1
 932 1378 854 1536 821 1536 c 0
 792 1536 772 1526 751 1526 c 0
 737 1526 725 1526 706 1528 c 1
 688 1528 674 1513 674 1495 c 2
 674 1069 l 2
 674 1051 645 1032 645 1012 c 0
 645 985 688 983 713 983 c 0
 762 983 809 999 833 1026 c 1
EndSplineSet
EndChar

StartChar: Q
Encoding: 81 81 16
Width: 2067
Flags: MW
LayerCount: 2
Fore
SplineSet
925 -213 m 0
 925 -205 918 -193 916 -190 c 1
 894 -190 882 -195 859 -264 c 1
 839 -258 l 1
 849 -225 853 -207 853 -195 c 0
 853 -178 847 -172 839 -164 c 1
 693 -53 306 129 282 262 c 0
 280 270 275 276 269 281 c 1
 130 369 79 588 79 739 c 2
 79 973 l 2
 79 1053 114 1124 114 1208 c 0
 114 1305 175 1444 218 1544 c 0
 220 1550 222 1556 222 1563 c 0
 222 1577 214 1597 183 1638 c 1
 198 1649 l 1
 239 1593 253 1587 269 1587 c 1
 282 1591 288 1612 304 1612 c 0
 308 1612 312 1606 312 1606 c 1
 347 1638 l 1
 343 1657 331 1673 280 1706 c 1
 290 1722 l 1
 333 1696 351 1688 368 1688 c 0
 402 1688 493 1753 509 1753 c 1
 517 1761 523 1769 523 1786 c 0
 523 1798 519 1819 509 1849 c 1
 529 1858 l 1
 554 1788 566 1784 591 1784 c 2
 734 1784 l 2
 749 1784 759 1796 759 1823 c 0
 759 1837 757 1858 751 1886 c 1
 769 1890 l 1
 785 1819 798 1808 818 1800 c 0
 851 1788 892 1776 921 1776 c 0
 947 1776 957 1788 982 1841 c 1
 994 1835 l 1
 976 1796 968 1778 968 1767 c 0
 968 1755 978 1753 986 1753 c 2
 996 1753 l 2
 1039 1753 1091 1724 1136 1702 c 0
 1142 1698 1148 1696 1154 1696 c 0
 1166 1696 1181 1708 1209 1749 c 1
 1228 1737 l 1
 1203 1704 1195 1686 1195 1673 c 0
 1195 1628 1396 1532 1457 1475 c 0
 1461 1470 1467 1466 1474 1466 c 0
 1484 1466 1498 1477 1533 1507 c 1
 1545 1493 l 1
 1506 1462 1496 1448 1496 1438 c 0
 1496 1432 1498 1427 1502 1423 c 1
 1578 1313 l 1
 1600 1292 l 1
 1609 1282 1617 1276 1629 1276 c 0
 1643 1276 1664 1284 1697 1300 c 1
 1707 1280 l 1
 1654 1251 1643 1237 1643 1221 c 0
 1643 1217 1643 1210 1646 1206 c 1
 1664 1096 1732 995 1732 885 c 2
 1732 618 l 2
 1732 608 1711 586 1711 571 c 0
 1711 565 1715 555 1715 547 c 0
 1715 449 1617 324 1584 254 c 0
 1582 250 1582 248 1582 246 c 0
 1582 238 1592 227 1639 195 c 1
 1627 178 l 1
 1594 201 1578 211 1566 211 c 0
 1519 211 1517 119 1453 109 c 1
 1437 109 1383 41 1349 23 c 1
 1332 12 1322 -2 1322 -16 c 0
 1322 -29 1334 -47 1351 -47 c 2
 1359 -47 l 2
 1392 -47 1408 -43 1424 29 c 1
 1455 20 l 1
 1449 -2 1447 -18 1447 -31 c 0
 1447 -102 1582 -94 1643 -106 c 1
 1750 -117 l 1
 1773 -117 1787 -109 1807 -47 c 1
 1834 -55 l 1
 1826 -82 1822 -100 1822 -113 c 0
 1822 -211 2092 -168 2170 -217 c 0
 2176 -221 2182 -223 2186 -223 c 0
 2229 -217 2272 -211 2315 -211 c 0
 2571 -211 2819 -299 3075 -301 c 0
 3081 -301 3087 -299 3091 -295 c 2
 3120 -270 l 2
 3128 -264 3134 -258 3134 -244 c 0
 3134 -231 3130 -211 3118 -178 c 1
 3136 -170 l 1
 3163 -240 3173 -244 3196 -244 c 2
 3204 -244 l 2
 3223 -244 3237 -240 3292 -190 c 1
 3300 -199 l 1
 3239 -254 3237 -266 3237 -289 c 0
 3237 -303 3245 -319 3292 -362 c 1
 3282 -375 l 1
 3237 -334 3218 -324 3204 -324 c 0
 3151 -324 3112 -358 3063 -358 c 2
 3040 -358 l 2
 3032 -358 3024 -377 3024 -383 c 0
 3024 -397 3032 -416 3050 -449 c 1
 3034 -459 l 1
 3005 -408 2993 -395 2977 -395 c 0
 2973 -395 2969 -397 2964 -397 c 2
 2962 -397 l 1
 2946 -401 2936 -403 2936 -430 c 0
 2936 -442 2938 -457 2942 -477 c 1
 2919 -481 l 1
 2911 -420 2903 -412 2887 -412 c 1
 2608 -440 l 1
 2387 -455 l 1
 2364 -455 2352 -461 2325 -528 c 1
 2307 -522 l 1
 2319 -489 2323 -469 2323 -455 c 0
 2323 -428 2307 -424 2299 -424 c 2
 1758 -424 l 2
 1752 -424 1742 -457 1730 -510 c 1
 1693 -502 l 1
 1699 -469 1701 -449 1701 -446 c 0
 1701 -389 1586 -381 1514 -360 c 1
 1514 -362 1512 -362 1508 -362 c 0
 1471 -362 1256 -309 1226 -303 c 1
 1220 -303 1215 -301 1211 -301 c 0
 1193 -301 1177 -313 1142 -362 c 1
 1123 -348 l 1
 1150 -311 1158 -293 1158 -276 c 0
 1158 -266 1154 -258 1150 -250 c 1
 1152 -256 l 1
 1148 -248 1142 -244 1131 -242 c 2
 980 -227 l 1
 962 -227 947 -238 923 -295 c 1
 904 -285 l 1
 919 -248 925 -227 925 -213 c 0
861 -45 m 0
 863 -45 865 -47 865 -47 c 1
 880 -47 892 -37 892 -8 c 0
 892 4 892 18 888 41 c 1
 910 45 l 1
 923 -27 947 -39 970 -39 c 0
 1170 -39 1254 2 1326 199 c 0
 1328 205 1328 209 1328 213 c 0
 1328 225 1318 236 1267 256 c 1
 1275 276 l 1
 1306 264 1324 258 1334 258 c 0
 1404 258 1431 610 1431 700 c 0
 1431 791 1426 1366 1172 1473 c 0
 1166 1475 1160 1477 1154 1477 c 0
 1140 1477 1123 1466 1088 1427 c 1
 1072 1442 l 1
 1103 1477 1113 1495 1113 1509 c 0
 1113 1516 1111 1522 1107 1530 c 0
 1045 1634 914 1763 802 1763 c 0
 538 1763 466 1434 376 1356 c 0
 372 1352 368 1346 366 1339 c 1
 353 1214 347 1092 347 969 c 0
 347 819 349 664 392 518 c 1
 415 444 480 416 480 342 c 0
 480 309 548 137 595 137 c 0
 607 137 626 145 656 162 c 1
 667 143 l 1
 617 115 607 100 607 90 c 0
 607 2 796 -25 861 -45 c 0
EndSplineSet
EndChar

StartChar: R
Encoding: 82 82 17
Width: 1140
Flags: MW
LayerCount: 2
Fore
SplineSet
901 57 m 1
 901 88 894 115 858 115 c 0
 841 115 823 106 784 80 c 1
 772 96 l 1
 821 131 833 147 833 166 c 0
 833 225 813 385 796 401 c 1
 735 451 659 686 532 795 c 1
 526 803 518 807 510 807 c 0
 471 807 458 727 458 682 c 0
 458 571 479 465 483 356 c 0
 483 336 635 254 659 254 c 0
 674 254 694 256 727 262 c 1
 731 246 l 1
 657 231 643 219 631 201 c 2
 606 162 l 2
 602 156 600 152 600 145 c 0
 600 133 608 113 635 74 c 1
 622 66 l 1
 588 119 575 127 559 127 c 0
 547 127 528 123 514 123 c 0
 477 123 440 164 420 164 c 1
 422 164 385 133 356 121 c 0
 329 109 317 102 317 63 c 0
 317 53 317 41 319 25 c 1
 299 25 l 1
 293 86 284 102 266 102 c 0
 250 102 229 94 186 59 c 1
 178 72 l 1
 237 117 243 131 243 152 c 1
 248 213 l 1
 248 236 235 248 180 281 c 1
 192 301 l 1
 227 285 245 276 260 276 c 0
 286 276 323 317 323 332 c 0
 323 334 321 338 321 342 c 1
 245 627 241 926 241 1221 c 1
 239 1221 192 1403 186 1411 c 1
 80 1485 l 1
 69 1491 59 1497 43 1497 c 0
 28 1497 6 1493 -27 1483 c 1
 -33 1501 l 1
 39 1522 49 1534 57 1556 c 1
 88 1628 l 2
 90 1634 92 1640 92 1647 c 0
 92 1663 84 1683 55 1726 c 1
 71 1739 l 1
 112 1677 127 1671 151 1671 c 2
 315 1671 l 2
 334 1671 348 1688 348 1708 c 0
 348 1722 344 1743 329 1776 c 1
 352 1784 l 1
 379 1714 393 1712 418 1712 c 0
 473 1714 536 1706 536 1823 c 1
 561 1825 l 1
 563 1712 618 1724 665 1724 c 0
 710 1724 764 1731 764 1819 c 1
 792 1819 l 1
 796 1675 895 1782 899 1679 c 0
 899 1673 901 1667 907 1661 c 0
 942 1624 964 1575 964 1524 c 0
 964 1360 927 1204 846 1065 c 1
 852 1049 868 1036 903 1024 c 1
 887 975 l 1
 866 983 850 985 837 985 c 0
 798 985 764 928 766 868 c 2
 768 819 l 2
 768 813 770 809 772 805 c 1
 848 735 950 455 1036 455 c 0
 1048 455 1069 459 1093 465 c 1
 1100 444 l 1
 1028 426 1024 416 1024 395 c 1
 1022 360 l 2
 1022 358 1022 356 1022 354 c 0
 1022 313 1054 258 1079 258 c 0
 1091 258 1110 264 1145 287 c 1
 1155 268 l 1
 1110 240 1100 227 1100 215 c 0
 1100 174 1157 123 1183 123 c 0
 1198 123 1218 127 1251 135 c 1
 1255 121 l 1
 1178 101 1177 95 1167 74 c 0
 1165 70 1163 66 1163 59 c 0
 1163 47 1171 27 1202 -16 c 1
 1192 -25 l 1
 1149 37 1136 41 1120 41 c 0
 1114 41 1110 39 1106 37 c 2
 1081 20 l 2
 1063 8 1050 -4 1016 -70 c 1
 1007 -66 l 1
 1030 -23 1040 0 1044 16 c 1
 1038 31 1024 39 1007 39 c 2
 938 35 l 1
 917 35 913 23 909 4 c 1
 897 -41 l 1
 878 -41 l 1
 901 57 l 1
458 1470 m 2
 458 1071 l 2
 458 1049 473 1032 493 1032 c 0
 499 1032 506 1034 514 1038 c 2
 549 1057 l 1
 571 1090 657 1106 657 1186 c 0
 657 1221 682 1253 682 1286 c 2
 682 1384 l 2
 682 1415 657 1440 657 1470 c 0
 657 1505 604 1538 600 1538 c 2
 501 1538 l 2
 471 1538 458 1475 458 1470 c 2
EndSplineSet
EndChar

StartChar: S
Encoding: 83 83 18
Width: 1241
Flags: MW
LayerCount: 2
Fore
SplineSet
251 270 m 1
 244 272 l 1
 244 276 244 279 224 279 c 0
 210 279 189 270 152 248 c 1
 142 262 l 1
 199 299 206 313 208 336 c 1
 208 391 208 463 146 463 c 0
 136 463 124 463 113 461 c 1
 107 496 l 1
 177 506 179 524 179 563 c 2
 179 582 l 2
 179 604 175 625 142 684 c 1
 150 688 l 1
 183 627 197 614 216 600 c 1
 249 580 l 2
 253 578 257 575 259 575 c 0
 337 567 347 453 349 391 c 0
 349 375 408 322 427 283 c 1
 439 256 447 233 457 233 c 0
 466 233 472 252 472 262 c 0
 472 276 472 295 453 328 c 1
 470 336 l 1
 498 272 511 268 533 268 c 2
 605 268 l 2
 656 268 677 276 707 285 c 1
 724 315 781 324 789 373 c 1
 797 522 l 2
 797 539 769 590 769 592 c 1
 640 700 l 1
 636 705 632 705 625 705 c 2
 566 705 l 2
 539 705 523 702 492 639 c 1
 472 647 l 1
 488 680 494 700 494 715 c 0
 494 752 455 772 423 772 c 0
 406 772 392 762 367 715 c 1
 345 727 l 1
 361 758 367 774 367 786 c 0
 367 821 277 831 236 883 c 1
 220 897 208 907 138 907 c 1
 138 924 l 1
 156 924 l 2
 210 924 224 932 236 946 c 2
 255 967 l 1
 247 979 236 991 220 991 c 0
 208 991 189 983 163 975 c 1
 152 1001 l 1
 195 1022 208 1034 208 1053 c 0
 208 1064 203 1078 199 1087 c 0
 191 1104 185 1124 181 1143 c 1
 142 1176 109 1190 72 1190 c 0
 64 1190 56 1190 48 1188 c 1
 23 1307 l 1
 91 1319 134 1384 171 1530 c 1
 130 1618 l 1
 132 1626 138 1630 146 1630 c 0
 179 1630 249 1573 249 1573 c 1
 253 1577 255 1581 255 1585 c 0
 273 1665 492 1616 492 1710 c 0
 492 1718 492 1731 490 1743 c 1
 521 1745 l 1
 529 1673 548 1671 578 1671 c 2
 679 1669 l 2
 699 1669 709 1677 732 1735 c 1
 754 1729 l 1
 744 1704 742 1683 742 1671 c 0
 742 1622 910 1552 883 1552 c 1
 890 1552 896 1554 902 1561 c 2
 1051 1718 l 1
 1068 1706 l 1
 1039 1626 l 2
 1037 1622 1037 1620 1037 1616 c 0
 1037 1597 1082 1559 1082 1513 c 0
 1082 1354 1027 1186 980 1032 c 1
 978 1032 978 1024 978 1016 c 0
 978 1006 982 983 992 940 c 1
 986 938 l 1
 955 1079 918 1036 875 1079 c 1
 838 1114 820 1245 797 1296 c 0
 779 1337 736 1366 732 1409 c 0
 732 1415 730 1421 726 1425 c 2
 648 1497 l 1
 642 1505 634 1509 630 1509 c 0
 615 1509 605 1495 605 1475 c 0
 605 1460 607 1444 615 1421 c 1
 597 1415 l 1
 578 1481 566 1485 543 1485 c 2
 480 1485 l 2
 474 1485 468 1483 464 1479 c 2
 404 1427 l 1
 400 1427 398 1427 398 1407 c 2
 398 1231 l 1
 398 1231 400 1212 406 1212 c 1
 517 1124 842 967 890 854 c 0
 894 844 900 840 908 840 c 1
 982 821 978 625 978 590 c 0
 978 440 978 301 853 203 c 1
 849 197 845 193 845 184 c 1
 834 135 775 111 763 63 c 1
 746 53 726 49 703 49 c 0
 558 49 496 74 396 74 c 0
 339 74 308 68 265 -4 c 1
 240 10 l 1
 263 49 271 78 271 96 c 0
 271 109 259 113 247 113 c 0
 236 113 222 111 199 106 c 1
 197 129 l 1
 253 139 261 150 261 166 c 2
 257 252 l 1
 255 262 253 268 251 270 c 1
263 952 m 1
 255 967 l 1
 257 961 259 956 263 952 c 1
EndSplineSet
EndChar

StartChar: T
Encoding: 84 84 19
Width: 1604
Flags: MW
LayerCount: 2
Fore
SplineSet
713 530 m 0
 713 594 692 651 678 709 c 1
 672 727 662 743 602 788 c 1
 610 799 l 1
 655 766 674 756 690 752 c 1
 713 758 713 770 713 782 c 2
 715 842 l 2
 717 881 696 940 653 940 c 0
 641 940 625 936 598 930 c 1
 592 954 l 1
 664 973 666 987 666 1016 c 0
 666 1110 662 1227 580 1227 c 0
 571 1227 559 1227 547 1223 c 1
 535 1274 l 1
 590 1288 602 1315 602 1335 c 0
 602 1358 598 1399 584 1399 c 0
 567 1399 557 1380 557 1364 c 0
 557 1352 561 1333 569 1305 c 1
 547 1298 l 1
 526 1360 514 1368 494 1368 c 0
 455 1368 340 1350 332 1307 c 0
 324 1262 264 1221 264 1196 c 1
 260 1126 199 1143 191 1100 c 0
 180 1042 152 1075 115 928 c 1
 105 930 l 1
 117 979 121 1004 121 1024 c 0
 121 1077 102 1135 102 1192 c 0
 102 1233 109 1276 123 1315 c 1
 123 1319 125 1321 125 1323 c 0
 125 1337 100 1391 100 1401 c 2
 102 1761 l 2
 102 1778 98 1790 47 1843 c 1
 55 1851 l 1
 107 1798 119 1794 135 1794 c 2
 139 1794 l 2
 156 1794 166 1798 201 1864 c 1
 213 1855 l 1
 191 1815 184 1796 184 1784 c 0
 184 1776 186 1772 191 1767 c 1
 225 1716 l 1
 232 1710 238 1706 246 1706 c 0
 307 1700 328 1651 402 1651 c 0
 418 1651 543 1679 809 1679 c 0
 905 1679 993 1677 1026 1677 c 0
 1073 1677 1106 1636 1159 1636 c 0
 1194 1636 1231 1677 1276 1698 c 0
 1294 1706 1303 1714 1309 1788 c 1
 1325 1786 l 1
 1325 1774 1323 1763 1323 1753 c 0
 1323 1710 1331 1702 1346 1694 c 1
 1438 1636 l 2
 1446 1630 1454 1626 1464 1626 c 0
 1481 1626 1501 1632 1540 1651 c 1
 1548 1632 l 1
 1481 1604 1473 1589 1469 1567 c 0
 1456 1503 1446 1442 1446 1378 c 0
 1446 1346 1450 1303 1555 1257 c 1
 1548 1243 l 1
 1503 1264 1481 1270 1462 1270 c 0
 1440 1270 1407 1264 1407 1233 c 0
 1407 1223 1409 1204 1413 1178 c 1
 1403 1178 l 1
 1395 1251 1389 1251 1380 1253 c 1
 1372 1253 l 2
 1360 1253 1352 1251 1307 1194 c 1
 1299 1200 l 1
 1333 1243 1342 1260 1342 1270 c 0
 1342 1331 1204 1368 1149 1368 c 0
 1129 1368 1116 1360 1086 1303 c 1
 1069 1311 l 1
 1088 1348 1096 1368 1096 1380 c 0
 1096 1391 1092 1397 1086 1403 c 1
 1088 1399 l 1
 1077 1409 997 1427 987 1427 c 0
 979 1427 973 1425 967 1419 c 2
 899 1352 l 2
 893 1346 891 1339 891 1333 c 2
 891 1087 l 2
 891 1053 864 1020 864 985 c 0
 864 958 893 936 893 909 c 0
 893 881 881 850 881 821 c 0
 881 758 891 696 891 637 c 0
 891 573 891 512 870 453 c 1
 870 444 870 436 877 430 c 1
 932 367 l 1
 938 358 950 354 963 354 c 0
 975 354 995 362 1030 371 c 1
 1036 350 l 1
 967 328 959 315 957 293 c 1
 950 248 932 199 899 170 c 1
 895 164 891 158 891 150 c 2
 895 90 l 1
 868 92 l 1
 864 147 l 1
 864 184 811 178 780 178 c 0
 725 178 678 164 649 47 c 1
 635 51 l 1
 643 90 651 115 651 131 c 0
 651 145 647 156 643 166 c 0
 610 252 629 322 580 422 c 1
 571 436 535 434 533 434 c 2
 533 434 535 436 537 436 c 2
 610 455 l 1
 633 354 l 2
 633 352 635 352 635 352 c 1
 639 352 645 358 649 362 c 0
 694 414 713 461 713 530 c 0
1088 1399 m 1
 1090 1397 l 1
 1088 1397 1088 1399 1088 1399 c 1
EndSplineSet
EndChar

StartChar: U
Encoding: 85 85 20
Width: 1641
Flags: MW
LayerCount: 2
Fore
SplineSet
199 844 m 1
 197 868 l 1
 233 877 256 883 258 883 c 0
 276 891 278 903 278 918 c 2
 280 991 l 1
 280 1028 l 2
 280 1151 264 1348 80 1352 c 0
 59 1352 45 1348 6 1298 c 1
 -8 1309 l 1
 22 1348 31 1364 31 1378 c 2
 31 1393 l 1
 22 1423 l 2
 16 1442 10 1452 -47 1477 c 1
 -41 1491 l 1
 -10 1477 8 1473 20 1473 c 0
 41 1473 88 1501 100 1501 c 1
 102 1499 l 1
 102 1520 96 1532 53 1575 c 1
 63 1587 l 1
 108 1544 121 1540 139 1540 c 2
 342 1550 l 1
 364 1550 373 1550 377 1614 c 1
 395 1614 l 1
 395 1550 401 1550 424 1548 c 1
 491 1538 l 2
 493 1538 498 1540 502 1542 c 2
 586 1589 l 1
 604 1597 616 1610 639 1669 c 1
 649 1663 l 1
 635 1626 629 1606 629 1591 c 0
 629 1583 631 1575 633 1569 c 2
 668 1470 l 1
 670 1470 674 1470 680 1452 c 1
 692 1452 704 1456 749 1501 c 1
 758 1495 l 1
 713 1448 709 1438 709 1423 c 2
 709 1417 l 2
 709 1405 713 1395 766 1364 c 1
 760 1354 l 1
 723 1374 709 1380 696 1380 c 0
 692 1380 690 1378 686 1376 c 0
 649 1354 602 1348 559 1348 c 2
 536 1348 l 2
 504 1348 496 1303 496 1282 c 0
 496 1210 506 1038 592 1038 c 0
 604 1038 614 1040 635 1044 c 1
 641 1022 l 1
 582 1006 577 991 577 969 c 2
 577 877 l 2
 577 870 580 866 582 864 c 0
 610 823 588 766 610 731 c 1
 651 686 694 473 692 475 c 2
 807 354 l 1
 815 350 815 350 823 350 c 2
 995 350 l 1
 1059 434 1092 461 1092 555 c 0
 1092 567 1087 575 1034 596 c 1
 1040 608 l 1
 1067 598 1087 596 1094 596 c 0
 1153 596 1143 756 1153 782 c 1
 1163 961 l 1
 1163 1014 1153 1171 1114 1272 c 1
 1059 1380 l 1
 1053 1389 1046 1393 1038 1393 c 2
 1022 1393 l 2
 1003 1393 995 1393 969 1331 c 1
 952 1339 l 1
 967 1370 971 1386 971 1399 c 0
 971 1415 915 1479 891 1509 c 1
 872 1526 856 1538 797 1556 c 1
 801 1569 l 1
 838 1556 858 1550 874 1550 c 0
 911 1550 967 1569 1012 1569 c 2
 1018 1569 l 2
 1032 1569 1044 1577 1061 1630 c 1
 1077 1624 l 1
 1069 1599 1065 1583 1065 1571 c 0
 1065 1556 1071 1550 1077 1548 c 1
 1095 1534 1115 1520 1132 1520 c 0
 1139 1520 1143 1522 1143 1524 c 0
 1143 1548 1137 1561 1094 1606 c 1
 1104 1616 l 1
 1147 1571 1161 1567 1182 1565 c 2
 1446 1552 l 2
 1458 1552 1468 1561 1472 1614 c 1
 1491 1614 l 1
 1491 1579 l 2
 1491 1548 1499 1548 1511 1546 c 1
 1515 1546 l 1
 1520 1544 1524 1544 1528 1544 c 0
 1544 1544 1565 1548 1608 1569 c 1
 1612 1556 l 1
 1554 1532 1542 1524 1532 1505 c 1
 1448 1382 l 1
 1444 1374 1440 1370 1440 1362 c 0
 1440 1350 1448 1335 1470 1303 c 1
 1454 1294 l 1
 1425 1329 1415 1339 1401 1339 c 0
 1389 1339 1377 1333 1368 1329 c 1
 1331 1319 1331 1237 1331 1202 c 0
 1331 1139 1339 1094 1368 1040 c 1
 1370 1030 1374 1024 1397 1018 c 1
 1448 1016 l 1
 1446 991 l 1
 1413 993 1393 993 1391 993 c 0
 1374 991 1368 987 1364 973 c 1
 1341 940 1337 907 1337 874 c 0
 1337 852 1339 834 1339 813 c 0
 1339 774 1333 731 1296 698 c 1
 1294 694 1292 690 1292 688 c 0
 1292 616 1282 537 1233 487 c 1
 1227 479 1225 479 1225 471 c 0
 1223 348 1157 211 1044 154 c 1
 1038 154 1034 154 1034 135 c 0
 1034 129 1038 111 1044 84 c 1
 1034 78 l 1
 1016 129 1010 135 999 135 c 0
 930 135 876 53 807 47 c 0
 801 47 795 43 788 37 c 1
 752 -23 l 1
 739 -39 737 -53 723 -115 c 1
 715 -115 l 1
 723 -78 725 -55 725 -43 c 0
 725 113 493 262 399 285 c 1
 401 291 l 1
 436 285 459 281 471 281 c 0
 493 281 493 293 493 305 c 1
 450 354 336 856 260 856 c 0
 258 856 235 852 199 844 c 1
EndSplineSet
EndChar

StartChar: V
Encoding: 86 86 21
Width: 1621
Flags: MW
LayerCount: 2
Fore
SplineSet
900 451 m 0
 887 451 884 443 882 434 c 1
 882 422 890 406 927 375 c 1
 917 365 l 1
 882 397 865 406 855 406 c 0
 849 406 845 403 839 401 c 1
 835 401 l 1
 829 395 822 387 822 377 c 2
 822 362 l 2
 822 326 824 307 892 297 c 1
 890 260 l 1
 878 262 865 262 859 262 c 0
 796 262 798 199 798 154 c 0
 798 135 800 127 865 102 c 1
 859 88 l 1
 829 98 810 102 798 102 c 0
 767 102 751 45 751 14 c 1
 759 -102 l 1
 740 -102 l 1
 730 49 l 2
 730 55 728 72 728 80 c 0
 728 82 728 84 728 86 c 1
 724 86 720 88 716 88 c 0
 702 88 685 76 650 47 c 1
 634 66 l 1
 669 96 677 115 677 127 c 0
 677 188 595 231 587 309 c 1
 587 319 585 326 577 332 c 0
 501 387 478 616 435 735 c 0
 421 776 398 854 370 868 c 1
 384 872 392 887 392 901 c 0
 392 973 310 1106 278 1106 c 0
 263 1106 245 1102 216 1092 c 1
 206 1116 l 1
 269 1141 276 1159 276 1188 c 2
 276 1241 l 2
 276 1245 274 1249 271 1253 c 2
 198 1376 l 1
 192 1382 187 1386 177 1386 c 0
 159 1386 149 1376 132 1325 c 1
 108 1333 l 1
 116 1358 120 1374 120 1384 c 0
 120 1430 -9 1456 -21 1456 c 0
 -36 1456 -58 1452 -97 1444 c 1
 -101 1456 l 1
 -34 1470 -17 1481 -1 1497 c 2
 73 1575 l 2
 81 1583 87 1589 87 1602 c 0
 87 1616 81 1632 67 1665 c 1
 85 1673 l 1
 110 1618 122 1608 140 1608 c 2
 503 1618 l 1
 575 1626 l 1
 587 1629 592 1639 597 1651 c 1
 599 1653 601 1659 601 1663 c 0
 601 1677 593 1694 566 1735 c 1
 579 1743 l 1
 607 1696 620 1683 634 1681 c 1
 648 1683 661 1698 683 1747 c 1
 702 1741 l 1
 685 1708 679 1688 679 1675 c 0
 679 1642 710 1630 742 1628 c 0
 749 1628 753 1630 757 1632 c 2
 788 1655 l 2
 804 1667 818 1683 853 1743 c 1
 859 1737 l 1
 900 1686 917 1681 939 1681 c 2
 1027 1681 l 2
 1058 1681 1074 1683 1095 1751 c 1
 1121 1743 l 1
 1113 1716 1111 1702 1111 1688 c 0
 1111 1634 1187 1624 1232 1624 c 1
 1287 1628 l 2
 1293 1628 1300 1630 1304 1634 c 2
 1318 1651 l 2
 1324 1657 1330 1663 1330 1677 c 0
 1330 1690 1324 1708 1312 1741 c 1
 1330 1747 l 1
 1357 1683 1369 1681 1392 1681 c 2
 1592 1681 l 2
 1613 1681 1633 1686 1693 1720 c 1
 1699 1712 l 1
 1640 1675 1625 1659 1615 1640 c 0
 1523 1462 1207 1376 1181 1059 c 1
 1181 1051 l 2
 1181 1034 1189 1022 1244 997 c 1
 1236 981 l 1
 1203 995 1185 1001 1173 1001 c 0
 1107 1001 1037 799 992 737 c 0
 990 733 988 729 988 723 c 0
 984 643 906 571 906 494 c 0
 906 477 919 467 964 451 c 1
 955 434 l 1
 927 444 910 451 900 451 c 0
851 1419 m 1
 839 1407 l 1
 794 1460 777 1466 755 1466 c 2
 667 1466 l 2
 659 1466 650 1462 646 1454 c 1
 595 1378 l 2
 593 1376 591 1370 591 1366 c 0
 591 1362 593 1358 595 1354 c 0
 652 1241 724 1141 724 1014 c 0
 724 948 734 700 798 684 c 1
 798 944 l 1
 804 926 849 911 886 911 c 0
 906 911 923 915 927 926 c 0
 994 1114 1066 1317 1066 1411 c 0
 1066 1421 1060 1427 1052 1432 c 1
 1052 1434 l 1
 1044 1438 1035 1440 1027 1440 c 0
 1013 1440 998 1430 972 1395 c 1
 949 1411 l 1
 970 1440 978 1456 978 1468 c 0
 978 1499 902 1546 882 1546 c 0
 867 1546 847 1542 812 1528 c 1
 806 1538 l 1
 802 1501 l 1
 802 1483 810 1466 851 1419 c 1
818 1636 m 2
 806 1542 l 1
 867 1571 876 1585 882 1606 c 1
 888 1638 l 2
 888 1642 890 1647 890 1651 c 0
 890 1665 882 1683 851 1720 c 1
 824 1675 820 1657 818 1636 c 2
247 934 m 1
 362 872 l 1
 329 887 290 909 247 934 c 1
228 944 m 2
 247 934 l 1
 241 936 235 940 228 944 c 2
368 868 m 1
 362 872 l 1
 370 868 l 1
 368 868 l 1
EndSplineSet
EndChar

StartChar: W
Encoding: 87 87 22
Width: 1879
Flags: MW
LayerCount: 2
Fore
SplineSet
1165 1608 m 1
 1160 1602 1149 1592 1149 1583 c 0
 1149 1573 1155 1554 1182 1509 c 1
 1174 1503 l 1
 1139 1563 1128 1573 1118 1575 c 1
 1112 1573 1106 1571 1104 1567 c 2
 1057 1509 l 2
 1053 1505 1051 1501 1051 1495 c 1
 1051 1495 1053 1493 1053 1491 c 2
 1188 674 l 1
 1188 721 1200 760 1233 791 c 1
 1237 793 1239 797 1239 803 c 1
 1270 948 1282 1098 1331 1247 c 1
 1333 1249 1333 1255 1333 1260 c 1
 1350 1280 l 1
 1339 1292 l 1
 1352 1282 l 1
 1354 1284 l 1
 1354 1282 l 1
 1362 1278 1370 1278 1370 1278 c 1
 1382 1278 1415 1300 1415 1325 c 0
 1415 1327 1415 1327 1415 1329 c 2
 1387 1442 l 1
 1382 1446 1376 1448 1370 1450 c 0
 1317 1462 1298 1516 1272 1540 c 1
 1247 1612 l 1
 1257 1618 1262 1626 1262 1640 c 1
 1256 1683 1257 1689 1206 1767 c 1
 1217 1772 l 1
 1257 1704 1278 1690 1296 1673 c 1
 1325 1653 l 1
 1333 1651 1333 1649 1341 1649 c 2
 1430 1649 l 2
 1438 1649 1497 1649 1554 1767 c 1
 1567 1761 l 1
 1546 1710 1532 1673 1532 1659 c 0
 1532 1655 1534 1653 1536 1653 c 2
 1536 1653 1538 1655 1540 1655 c 2
 1692 1704 l 1
 1704 1714 1716 1724 1733 1794 c 1
 1745 1790 l 1
 1739 1755 1737 1735 1737 1718 c 0
 1737 1686 1751 1608 1894 1597 c 1
 1894 1579 l 1
 1874 1581 1858 1581 1845 1581 c 0
 1810 1581 1798 1581 1788 1563 c 1
 1716 1489 1573 1374 1563 1321 c 1
 1450 915 l 1
 1413 686 1276 492 1219 262 c 1
 1208 227 1221 162 1200 129 c 0
 1184 104 1171 78 1159 8 c 1
 1149 10 l 1
 1155 51 1159 78 1159 100 c 0
 1159 117 1157 131 1155 145 c 1
 1096 301 1001 446 942 604 c 1
 936 637 903 659 875 659 c 0
 799 659 768 147 768 129 c 1
 772 115 784 100 838 61 c 1
 829 51 l 1
 784 84 764 94 752 94 c 0
 748 94 741 92 739 90 c 1
 737 90 l 1
 721 84 713 76 709 4 c 1
 694 6 l 1
 694 20 696 35 696 45 c 0
 696 86 688 90 678 102 c 1
 674 104 l 1
 668 111 664 113 653 113 c 0
 641 113 621 109 586 92 c 1
 578 109 l 1
 633 133 641 141 641 156 c 0
 641 158 641 162 641 164 c 2
 610 332 l 1
 598 362 569 416 549 446 c 1
 547 446 512 479 446 512 c 1
 449 518 l 1
 496 496 518 487 535 483 c 1
 545 487 551 496 551 506 c 0
 551 559 510 678 453 678 c 0
 442 678 426 676 408 672 c 1
 397 698 l 1
 453 711 465 721 465 739 c 0
 465 745 463 750 463 756 c 2
 455 807 l 1
 449 821 l 1
 395 899 276 1272 266 1278 c 1
 219 1319 225 1352 199 1405 c 1
 174 1434 l 1
 162 1442 162 1446 150 1446 c 2
 141 1446 l 2
 117 1446 102 1442 78 1376 c 1
 57 1386 l 1
 70 1419 76 1438 76 1452 c 0
 76 1481 49 1481 47 1481 c 0
 33 1481 14 1450 -23 1386 c 1
 -25 1389 l 1
 8 1448 18 1466 27 1487 c 1
 51 1563 l 1
 53 1573 55 1575 55 1581 c 0
 55 1595 45 1618 10 1661 c 1
 25 1671 l 1
 74 1610 90 1604 115 1604 c 2
 160 1604 l 2
 166 1604 172 1606 176 1612 c 1
 213 1612 336 1589 377 1589 c 1
 412 1622 432 1651 432 1692 c 0
 432 1706 432 1726 424 1747 c 1
 479 1755 l 1
 489 1718 514 1681 543 1657 c 1
 596 1518 l 1
 551 1473 508 1415 508 1411 c 2
 539 1223 l 1
 545 1180 594 1169 600 1145 c 1
 614 1102 l 2
 619 1085 623 1077 653 1077 c 0
 666 1077 680 1079 698 1081 c 1
 702 1063 l 1
 645 1055 637 1047 637 1032 c 0
 637 1030 637 1028 637 1024 c 2
 690 784 l 2
 694 766 754 735 754 729 c 1
 760 731 762 745 764 768 c 0
 774 924 768 987 850 1163 c 0
 852 1167 852 1171 852 1176 c 2
 819 1380 l 1
 817 1386 745 1473 745 1479 c 1
 748 1479 l 1
 725 1499 715 1548 696 1556 c 1
 680 1565 l 2
 678 1567 674 1569 670 1569 c 1
 643 1661 l 1
 670 1684 678 1692 678 1776 c 1
 694 1774 l 1
 694 1765 692 1757 692 1751 c 0
 692 1708 700 1683 711 1667 c 1
 709 1667 l 1
 711 1665 711 1665 713 1665 c 1
 717 1661 722 1655 727 1655 c 0
 739 1655 750 1677 750 1692 c 0
 750 1704 741 1722 723 1755 c 1
 748 1767 l 1
 778 1712 795 1700 815 1700 c 0
 846 1700 891 1702 891 1749 c 0
 891 1763 887 1774 883 1796 c 1
 909 1800 l 1
 928 1724 944 1722 971 1718 c 2
 997 1714 l 2
 999 1714 1004 1714 1006 1716 c 1
 1040 1726 l 2
 1055 1731 1063 1735 1063 1763 c 0
 1063 1774 1063 1790 1059 1812 c 1
 1081 1812 l 1
 1099 1725 1107 1737 1147 1724 c 1
 1165 1608 l 1
EndSplineSet
EndChar

StartChar: X
Encoding: 88 88 23
Width: 1540
Flags: MW
LayerCount: 2
Fore
SplineSet
422 -195 m 1
 414 -177 394 -174 371 -174 c 0
 354 -174 334 -184 291 -221 c 1
 279 -207 l 1
 344 -150 336 -135 336 -102 c 0
 336 -59 328 -27 232 33 c 1
 238 41 l 1
 287 10 307 0 324 -2 c 1
 330 -2 l 2
 348 -2 494 184 494 184 c 1
 500 240 539 283 569 328 c 1
 561 338 549 346 522 346 c 0
 510 346 496 344 477 342 c 1
 473 365 l 1
 547 375 555 389 561 414 c 1
 582 487 547 662 621 696 c 1
 631 702 639 709 639 721 c 2
 639 780 l 2
 639 866 381 1239 268 1352 c 0
 262 1358 258 1362 250 1362 c 0
 238 1362 221 1354 186 1333 c 1
 176 1350 l 1
 219 1376 232 1391 232 1403 c 0
 232 1475 47 1589 -33 1638 c 1
 -51 1651 -70 1655 -143 1655 c 1
 -143 1667 l 1
 -12 1667 -8 1698 23 1729 c 1
 37 1741 45 1755 45 1784 c 0
 45 1798 43 1817 39 1841 c 1
 64 1847 l 1
 78 1774 94 1759 123 1747 c 0
 160 1733 195 1712 236 1712 c 2
 485 1712 l 2
 492 1712 496 1714 500 1716 c 0
 543 1747 596 1767 649 1767 c 0
 703 1767 723 1726 789 1726 c 1
 758 1757 l 1
 768 1767 l 1
 789 1747 805 1735 817 1726 c 1
 848 1731 l 1
 848 1716 l 1
 846 1716 844 1714 842 1714 c 1
 850 1712 856 1712 864 1712 c 2
 1434 1712 l 2
 1458 1712 1475 1718 1520 1776 c 1
 1534 1763 l 1
 1497 1718 1489 1700 1489 1683 c 0
 1489 1671 1493 1660 1495 1649 c 0
 1499 1628 1507 1618 1579 1599 c 1
 1575 1581 l 1
 1546 1587 1528 1589 1514 1589 c 0
 1493 1589 1485 1581 1477 1573 c 1
 1436 1524 1387 1505 1323 1505 c 0
 1311 1505 1297 1507 1282 1507 c 0
 1266 1507 1256 1499 1253 1481 c 0
 1233 1380 1118 1329 1075 1253 c 0
 1028 1171 973 1057 920 983 c 1
 924 971 924 950 924 932 c 2
 924 838 l 1
 936 809 946 793 957 778 c 0
 983 743 975 676 1004 647 c 1
 1135 557 1063 397 1127 289 c 0
 1137 272 1143 262 1170 262 c 0
 1182 262 1198 264 1223 270 c 1
 1231 244 l 1
 1159 225 1155 209 1155 180 c 2
 1155 160 l 2
 1155 154 1157 150 1161 145 c 0
 1217 74 1284 12 1348 -49 c 1
 1364 -66 1383 -76 1454 -84 c 1
 1452 -98 l 1
 1423 -94 1403 -92 1389 -92 c 0
 1364 -92 1352 -96 1340 -104 c 1
 1342 -104 l 1
 1333 -109 1329 -117 1329 -125 c 1
 1319 -203 1256 -152 1251 -305 c 1
 1235 -305 l 1
 1235 -285 l 2
 1235 -186 1182 -176 1155 -172 c 2
 1120 -166 l 1
 1110 -166 1098 -172 1049 -213 c 1
 1043 -205 l 1
 1098 -158 1102 -150 1102 -137 c 0
 1102 -121 1092 -109 1075 -106 c 1
 934 -90 l 2
 930 -90 926 -90 924 -74 c 1
 918 -92 903 -90 852 -90 c 0
 789 -90 737 -33 737 -33 c 1
 729 -43 723 -53 723 -63 c 0
 723 -78 733 -96 762 -127 c 1
 739 -147 l 1
 709 -115 692 -104 676 -104 c 0
 639 -104 533 -207 533 -229 c 0
 533 -242 539 -260 553 -297 c 1
 537 -303 l 1
 508 -236 498 -231 479 -231 c 2
 475 -231 l 2
 455 -231 442 -236 402 -297 c 1
 389 -289 l 1
 418 -246 426 -227 426 -213 c 0
 426 -207 424 -203 422 -197 c 1
 422 -195 l 1
741 1681 m 1
 676 1618 l 1
 672 1618 670 1610 670 1602 c 0
 664 1552 594 1522 594 1497 c 1
 598 1440 635 1403 635 1350 c 0
 635 1346 633 1339 633 1335 c 1
 686 1313 735 1221 739 1139 c 0
 739 1128 748 1119 754 1112 c 1
 764 1094 776 1094 789 1094 c 0
 809 1094 828 1108 834 1133 c 0
 858 1239 909 1368 965 1421 c 0
 971 1427 973 1434 973 1440 c 2
 973 1493 l 2
 973 1526 901 1542 879 1542 c 0
 858 1542 838 1532 799 1493 c 1
 780 1509 l 1
 821 1550 832 1571 832 1591 c 0
 832 1624 825 1679 803 1710 c 1
 766 1702 754 1696 741 1681 c 1
903 211 m 0
 903 236 887 250 866 250 c 0
 854 250 836 242 793 215 c 1
 787 227 l 1
 848 266 852 276 852 291 c 2
 852 367 l 2
 852 371 780 510 752 510 c 0
 690 510 670 266 670 221 c 0
 670 188 684 152 690 119 c 1
 711 119 727 127 768 176 c 1
 785 164 l 1
 754 125 746 104 746 88 c 0
 746 57 770 14 795 14 c 0
 848 14 903 182 903 211 c 0
EndSplineSet
EndChar

StartChar: Y
Encoding: 89 89 24
Width: 1337
Flags: MW
LayerCount: 2
Fore
SplineSet
491 215 m 0
 507 215 526 235 526 250 c 2
 526 401 l 2
 526 406 498 455 498 494 c 0
 498 621 428 735 424 862 c 0
 424 868 422 874 416 881 c 1
 389 905 l 2
 381 913 373 918 358 918 c 0
 344 918 326 911 291 895 c 1
 281 915 l 1
 338 946 346 961 346 979 c 0
 346 1016 326 1085 297 1085 c 0
 285 1085 266 1079 238 1069 c 1
 229 1090 l 1
 283 1110 293 1122 293 1135 c 0
 293 1227 145 1294 115 1380 c 1
 94 1436 92 1534 31 1534 c 0
 18 1534 2 1530 -23 1524 c 1
 -29 1546 l 1
 41 1567 45 1579 45 1604 c 2
 45 1610 l 2
 45 1622 43 1630 -10 1681 c 1
 -4 1688 l 1
 47 1634 57 1632 68 1632 c 2
 72 1632 l 2
 82 1632 90 1634 125 1700 c 1
 135 1694 l 1
 108 1649 102 1630 102 1622 c 0
 102 1618 102 1614 104 1612 c 0
 225 1411 418 1442 608 1372 c 0
 625 1366 643 1360 682 1352 c 1
 682 1356 684 1360 684 1364 c 0
 684 1378 676 1397 649 1438 c 1
 663 1446 l 1
 702 1384 717 1380 735 1380 c 2
 924 1380 l 2
 928 1380 932 1382 936 1384 c 0
 1006 1427 1069 1430 1149 1430 c 0
 1155 1430 1161 1432 1167 1438 c 2
 1214 1485 l 1
 1227 1495 1233 1507 1255 1577 c 1
 1264 1575 l 1
 1247 1522 1241 1501 1241 1487 c 0
 1241 1483 1241 1479 1243 1475 c 1
 1243 1473 l 1
 1245 1456 1249 1448 1321 1432 c 1
 1319 1417 l 1
 1286 1425 1268 1430 1255 1430 c 0
 1239 1430 1235 1423 1231 1417 c 2
 1173 1341 l 2
 1167 1333 1163 1329 1163 1321 c 0
 1163 1309 1175 1294 1210 1266 c 1
 1194 1247 l 1
 1163 1274 1147 1284 1135 1284 c 0
 1126 1284 1120 1278 1114 1272 c 2
 1092 1247 l 1
 1083 1239 1077 1233 1077 1221 c 0
 1077 1208 1085 1188 1104 1155 c 1
 1085 1143 l 1
 1057 1194 1042 1204 1026 1204 c 0
 1014 1204 1006 1194 1003 1182 c 1
 995 1130 952 1090 913 1057 c 0
 907 1053 905 1047 903 1042 c 0
 895 1026 833 981 833 932 c 0
 833 920 844 909 893 879 c 1
 883 862 l 1
 846 885 829 893 817 893 c 0
 770 893 752 756 752 719 c 2
 752 303 l 2
 752 295 756 289 760 283 c 1
 813 236 850 190 860 123 c 0
 862 113 862 106 911 106 c 2
 936 106 l 1
 938 94 l 1
 864 92 862 86 862 74 c 1
 858 45 l 1
 858 27 860 14 913 -39 c 1
 903 -49 l 1
 852 4 838 8 819 8 c 1
 721 2 625 -16 526 -16 c 0
 455 -16 391 43 336 43 c 0
 317 43 297 41 266 33 c 1
 262 53 l 1
 334 72 350 88 364 115 c 1
 381 145 420 184 420 221 c 0
 420 238 414 260 397 301 c 1
 414 307 l 1
 441 236 454 226 481 217 c 0
 485 215 487 215 491 215 c 0
592 1286 m 1
 670 1314 667 1317 680 1343 c 1
 680 1346 680 1346 682 1348 c 1
 641 1354 623 1354 606 1354 c 1
 541 1350 471 1307 471 1266 c 0
 471 1257 475 1247 485 1241 c 1
 596 1147 l 2
 606 1139 614 1133 627 1133 c 0
 641 1133 661 1141 694 1163 c 1
 709 1141 l 1
 666 1112 655 1096 655 1077 c 0
 655 1059 676 1006 688 1006 c 0
 700 1006 778 1051 778 1137 c 0
 778 1155 770 1174 717 1204 c 1
 715 1200 715 1198 715 1196 c 1
 700 1200 l 1
 707 1231 711 1249 711 1260 c 0
 711 1283 692 1294 672 1294 c 0
 657 1294 637 1288 596 1276 c 1
 592 1286 l 1
797 1196 m 0
 816 1196 821 1208 821 1223 c 0
 821 1235 815 1249 801 1257 c 2
 782 1268 l 2
 778 1270 774 1272 768 1272 c 2
 758 1272 l 1
 743 1270 735 1268 723 1227 c 1
 762 1204 782 1196 797 1196 c 0
819 1202 m 2
 815 1200 l 1
 815 1200 817 1200 819 1202 c 2
805 1194 m 1
 803 1192 l 1
 803 1192 805 1192 805 1194 c 1
EndSplineSet
EndChar

StartChar: Z
Encoding: 90 90 25
Width: 1284
Flags: MW
LayerCount: 2
Fore
SplineSet
538 838 m 1
 534 836 610 965 622 1042 c 0
 628 1083 640 1094 661 1200 c 1
 663 1200 l 1
 651 1126 649 1108 649 1090 c 2
 649 1085 l 2
 649 1069 661 1053 673 1053 c 0
 716 1053 716 1192 770 1192 c 0
 772 1192 774 1192 776 1192 c 1
 778 1198 780 1204 780 1210 c 0
 780 1229 765 1243 743 1243 c 2
 393 1243 l 2
 325 1243 264 1112 204 1042 c 0
 202 1040 200 1038 200 1036 c 0
 200 1030 210 1018 245 977 c 1
 233 967 l 1
 202 1004 190 1016 178 1016 c 0
 169 1016 161 1014 151 1008 c 1
 128 987 l 2
 102 963 96 942 67 874 c 1
 59 879 l 1
 85 946 90 967 90 989 c 2
 90 1118 l 2
 90 1126 139 1239 139 1245 c 1
 102 1376 l 2
 96 1399 85 1415 26 1460 c 1
 34 1470 l 1
 83 1434 104 1423 124 1421 c 1
 135 1423 143 1430 147 1440 c 2
 157 1466 l 2
 161 1475 163 1485 163 1497 c 0
 163 1513 157 1538 145 1581 c 1
 159 1585 l 1
 190 1489 241 1450 258 1450 c 1
 307 1446 358 1423 409 1423 c 0
 427 1423 446 1434 479 1485 c 1
 497 1473 l 1
 471 1436 462 1415 462 1401 c 0
 462 1386 471 1380 483 1380 c 0
 518 1380 536 1405 536 1483 c 1
 563 1483 l 1
 563 1378 626 1364 677 1364 c 0
 798 1364 903 1417 1021 1421 c 0
 1036 1421 1048 1436 1062 1440 c 0
 1079 1446 1087 1452 1087 1526 c 1
 1103 1526 l 1
 1103 1437 1111 1446 1146 1434 c 0
 1150 1432 1157 1430 1163 1430 c 0
 1179 1430 1200 1438 1245 1464 c 1
 1253 1452 l 1
 1187 1413 1181 1401 1179 1380 c 1
 1173 1350 1134 1296 1134 1282 c 1
 1126 1210 1026 1028 974 930 c 0
 970 924 968 920 968 915 c 0
 968 905 980 891 1019 858 c 1
 1007 844 l 1
 972 872 954 881 944 881 c 0
 907 881 864 768 864 741 c 0
 864 727 874 715 921 682 c 1
 909 666 l 1
 872 692 853 700 841 700 c 0
 790 700 704 555 704 516 c 0
 704 502 714 487 759 455 c 1
 749 440 l 1
 710 469 692 477 679 477 c 0
 626 477 657 379 597 362 c 0
 565 352 561 272 561 256 c 0
 561 240 573 227 591 225 c 1
 718 201 l 1
 718 201 720 199 722 199 c 0
 727 199 731 201 735 203 c 0
 776 225 853 231 923 231 c 0
 958 231 993 229 1017 229 c 0
 1046 229 1050 291 1083 303 c 1
 1124 330 1097 455 1183 459 c 2
 1220 461 l 1
 1239 461 1251 465 1300 520 c 1
 1308 512 l 1
 1265 465 1259 449 1259 434 c 1
 1265 346 l 2
 1267 324 1271 313 1345 305 c 1
 1343 285 l 1
 1325 287 1312 287 1302 287 c 0
 1267 287 1261 279 1257 262 c 1
 1226 170 1148 47 1148 2 c 0
 1148 -10 1150 -29 1152 -51 c 1
 1140 -53 l 1
 1132 20 1122 35 1107 49 c 1
 1107 47 l 1
 1103 51 1097 53 1091 53 c 0
 948 53 804 68 661 78 c 1
 643 78 628 57 600 57 c 0
 587 57 571 66 557 66 c 1
 466 53 387 49 309 49 c 0
 272 49 231 63 194 63 c 0
 176 63 153 55 110 27 c 1
 100 41 l 1
 161 82 169 98 171 123 c 1
 178 160 190 199 217 219 c 0
 221 223 223 227 225 231 c 2
 284 387 l 2
 286 391 286 393 286 397 c 0
 286 410 276 424 235 461 c 1
 243 471 l 1
 282 434 298 426 309 426 c 0
 313 426 315 426 319 428 c 1
 327 440 l 1
 358 524 464 807 538 838 c 1
471 1376 m 1
 466 1382 l 1
 466 1380 468 1378 471 1376 c 1
458 1395 m 1
 456 1399 l 2
 456 1397 458 1395 458 1395 c 1
EndSplineSet
EndChar

StartChar: b
Encoding: 98 98 26
Width: 1736
Flags: MW
LayerCount: 2
Fore
SplineSet
627 1769 m 1
 639 1774 648 1781 648 1798 c 0
 648 1810 642 1831 629 1866 c 1
 648 1872 l 1
 672 1804 685 1798 705 1796 c 1
 779 1784 l 2
 783 1783 785 1782 787 1782 c 0
 804 1782 808 1798 808 1810 c 0
 808 1825 800 1845 775 1884 c 1
 791 1894 l 1
 826 1839 841 1829 861 1829 c 2
 951 1833 l 1
 976 1833 988 1835 992 1909 c 1
 1015 1907 l 1
 1015 1896 1013 1888 1013 1882 c 0
 1013 1833 1025 1831 1045 1827 c 0
 1415 1765 1288 1798 1526 1505 c 0
 1534 1495 1540 1489 1555 1489 c 0
 1569 1489 1590 1495 1622 1507 c 1
 1631 1487 l 1
 1561 1460 1557 1446 1557 1423 c 2
 1555 1223 l 2
 1555 1217 1598 1208 1665 1196 c 1
 1659 1163 l 1
 1620 1169 1596 1174 1594 1174 c 0
 1524 1174 1538 1108 1524 1067 c 0
 1497 993 1436 930 1362 924 c 0
 1354 924 1348 922 1342 915 c 2
 1307 872 l 2
 1301 866 1299 860 1299 854 c 0
 1299 838 1309 823 1327 823 c 0
 1338 823 1356 827 1385 838 c 1
 1393 815 l 1
 1340 799 1330 786 1330 772 c 0
 1330 763 1334 750 1336 741 c 1
 1393 670 1395 573 1413 573 c 0
 1434 573 1452 582 1504 625 c 1
 1514 612 l 1
 1459 563 1450 547 1448 522 c 2
 1424 152 l 2
 1424 147 1461 133 1520 111 c 1
 1516 82 l 1
 1459 100 1420 113 1418 113 c 0
 1403 113 1397 106 1389 98 c 1
 1379 82 l 1
 1368 18 l 1
 1368 23 l 1
 1366 16 1366 10 1366 4 c 0
 1366 -16 1379 -33 1430 -59 c 1
 1416 -86 l 1
 1383 -70 1364 -63 1350 -63 c 0
 1301 -66 1266 -166 1219 -166 c 1
 1086 -170 l 2
 1021 -172 861 -70 794 -31 c 0
 789 -29 785 -27 779 -27 c 0
 767 -27 755 -29 738 -29 c 0
 722 -29 703 -12 691 -12 c 0
 685 -12 678 -16 674 -18 c 0
 658 -27 648 -35 648 -72 c 0
 648 -82 650 -96 652 -113 c 1
 629 -115 l 1
 621 -41 611 -35 588 -29 c 2
 504 -8 l 2
 500 -8 496 -6 490 -6 c 0
 474 -6 453 -16 408 -55 c 1
 398 -41 l 1
 453 6 459 23 459 47 c 2
 459 125 l 2
 459 131 457 137 447 154 c 1
 406 203 l 1
 412 209 l 1
 441 178 457 164 468 156 c 1
 480 160 486 170 486 180 c 2
 486 213 l 1
 484 236 480 256 447 322 c 1
 455 326 l 1
 515 207 547 190 580 190 c 0
 599 190 613 207 613 227 c 0
 613 281 605 334 605 387 c 0
 605 446 609 502 623 553 c 1
 623 559 l 2
 623 582 603 598 603 625 c 0
 603 715 584 799 584 889 c 0
 584 905 584 920 586 936 c 0
 586 942 584 946 582 950 c 0
 541 1022 482 1276 482 1346 c 0
 482 1401 500 1458 500 1528 c 0
 500 1552 498 1579 470 1579 c 0
 416 1579 349 1559 349 1499 c 0
 349 1487 349 1473 353 1452 c 1
 334 1450 l 1
 322 1536 291 1548 265 1548 c 0
 220 1548 185 1542 138 1542 c 0
 115 1542 91 1546 68 1546 c 0
 64 1546 37 1540 -3 1534 c 1
 -10 1554 l 1
 37 1565 70 1573 74 1575 c 2
 273 1700 l 1
 212 1673 l 2
 234 1683 253 1704 271 1712 c 1
 269 1722 261 1741 246 1769 c 1
 257 1774 l 1
 269 1747 277 1733 283 1722 c 1
 308 1743 322 1765 322 1792 c 0
 322 1798 322 1804 320 1810 c 1
 449 1841 l 1
 463 1780 531 1767 592 1767 c 0
 605 1767 615 1769 627 1769 c 1
912 1049 m 1
 910 1061 l 1
 982 1071 1011 1079 1033 1096 c 1
 1002 1073 988 1065 988 1057 c 0
 988 1042 1035 1044 1082 1044 c 0
 1105 1044 1252 1255 1252 1311 c 0
 1252 1372 1236 1591 1179 1591 c 0
 1156 1591 1144 1587 1123 1505 c 1
 1107 1509 l 1
 1113 1540 1117 1561 1117 1573 c 0
 1117 1642 974 1642 935 1673 c 0
 931 1675 927 1677 921 1677 c 0
 802 1677 798 1540 798 1452 c 2
 798 1053 l 2
 798 1018 806 987 843 979 c 1
 878 979 912 1049 912 1049 c 1
826 150 m 2
 826 104 l 2
 826 90 904 86 916 86 c 0
 945 86 957 70 972 63 c 1
 976 63 980 63 984 66 c 1
 1056 96 l 2
 1066 99 1076 118 1076 131 c 0
 1076 143 1064 156 1017 178 c 1
 1025 197 l 1
 1058 182 1074 176 1086 176 c 0
 1121 176 1177 328 1177 381 c 1
 1174 424 1158 492 1136 539 c 2
 1111 590 l 1
 1080 614 l 1
 1070 614 1062 612 1052 612 c 0
 1031 612 1009 614 984 616 c 1
 1064 616 l 2
 1068 616 1072 616 1076 618 c 1
 1074 618 1072 621 1070 623 c 1
 1072 627 l 1
 1080 621 l 1
 1088 625 1095 637 1095 649 c 1
 1082 776 964 823 839 823 c 0
 828 823 802 821 802 807 c 0
 802 723 837 641 837 557 c 0
 837 506 834 442 820 397 c 0
 818 393 818 391 818 387 c 2
 826 340 l 2
 828 324 832 315 906 313 c 1
 906 295 l 1
 873 295 l 2
 830 295 828 287 824 272 c 2
 812 227 l 2
 812 225 812 225 816 219 c 1
 808 225 l 1
 824 195 826 172 826 150 c 2
1086 614 m 1
 1107 600 l 1
 1105 606 1103 612 1103 618 c 1
 1086 614 l 1
816 219 m 1
 816 219 818 217 820 213 c 1
 818 215 816 219 816 219 c 1
304 1714 m 1
 298 1712 l 2
 300 1712 302 1712 304 1714 c 1
205 1671 m 2
 201 1669 l 2
 203 1671 203 1671 205 1671 c 2
212 1673 m 2
 210 1673 207 1671 205 1671 c 2
 212 1673 l 2
EndSplineSet
EndChar

StartChar: c
Encoding: 99 99 27
Width: 1502
Flags: MW
LayerCount: 2
Fore
SplineSet
1062 4 m 0
 1034 4 1039 -9 1036 -25 c 1
 1036 -37 1042 -53 1081 -100 c 1
 1070 -109 l 1
 1025 -51 1013 -47 999 -47 c 2
 945 -47 l 2
 921 -47 835 -123 782 -174 c 1
 771 -164 l 1
 814 -119 896 -29 898 -10 c 1
 898 -4 l 1
 896 10 884 18 868 18 c 0
 853 18 839 16 825 16 c 0
 810 16 796 16 786 18 c 0
 782 18 777 18 773 16 c 2
 718 -10 l 2
 714 -12 710 -12 704 -12 c 0
 673 -12 632 10 626 16 c 1
 585 37 l 1
 593 20 608 2 628 -25 c 1
 618 -31 l 1
 573 27 554 39 532 49 c 1
 466 74 372 139 341 176 c 1
 331 182 l 1
 198 238 182 358 112 455 c 0
 104 467 96 475 75 475 c 0
 63 475 44 471 16 461 c 1
 9 475 l 1
 67 498 77 512 79 510 c 1
 71 545 53 561 32 561 c 0
 18 561 -1 555 -31 543 c 1
 -38 559 l 1
 30 586 32 596 32 614 c 1
 24 713 l 2
 22 741 20 756 -54 760 c 1
 -52 791 l 1
 -29 791 l 2
 28 791 38 834 38 877 c 0
 38 895 36 913 36 928 c 0
 36 940 40 952 40 965 c 0
 40 971 20 997 -13 1034 c 1
 9 1065 l 1
 40 1036 63 1018 67 1018 c 0
 77 1020 83 1028 89 1038 c 1
 128 1133 216 1196 259 1288 c 1
 263 1294 265 1300 265 1309 c 0
 265 1323 255 1339 220 1376 c 1
 237 1393 l 1
 272 1356 288 1346 304 1346 c 0
 362 1346 481 1446 481 1479 c 0
 481 1493 474 1511 456 1542 c 1
 487 1561 l 1
 511 1520 530 1507 548 1507 c 0
 558 1507 567 1511 579 1516 c 0
 651 1542 730 1565 763 1565 c 1
 978 1585 l 2
 1001 1587 1015 1593 1044 1661 c 1
 1062 1653 l 1
 1046 1616 1038 1595 1038 1581 c 0
 1038 1548 1056 1552 1062 1550 c 2
 1101 1542 l 2
 1107 1540 1111 1540 1115 1540 c 0
 1124 1540 1132 1542 1140 1550 c 1
 1132 1569 l 2
 1134 1563 1140 1556 1144 1552 c 1
 1154 1561 1167 1575 1185 1597 c 1
 1187 1595 l 1
 1163 1636 l 1
 1177 1647 l 1
 1220 1587 1234 1581 1259 1581 c 2
 1304 1581 l 2
 1328 1581 1345 1587 1398 1638 c 1
 1408 1628 l 1
 1357 1575 1351 1559 1351 1534 c 2
 1351 1475 l 2
 1351 1468 1384 1442 1431 1409 c 1
 1412 1378 l 1
 1369 1403 1339 1419 1335 1419 c 0
 1316 1419 1314 1405 1314 1397 c 0
 1306 1253 1283 1085 1163 999 c 0
 1156 995 1152 993 1152 981 c 0
 1152 969 1156 950 1165 915 c 1
 1152 911 l 1
 1138 985 1132 989 1122 991 c 1
 1115 991 l 2
 1113 991 1111 993 1109 993 c 0
 1105 993 1087 971 1060 938 c 1
 1046 954 l 1
 1068 985 1083 1008 1083 1010 c 0
 1083 1014 1081 1016 1081 1020 c 1
 1060 1059 l 2
 1060 1061 1054 1065 1054 1075 c 0
 1054 1096 1066 1124 1066 1133 c 0
 1066 1243 1009 1343 913 1384 c 1
 917 1374 925 1356 947 1311 c 1
 943 1309 l 1
 894 1407 896 1378 880 1397 c 1
 859 1403 837 1407 812 1407 c 0
 794 1407 728 1389 728 1358 c 0
 728 1343 734 1325 749 1296 c 1
 722 1282 l 1
 698 1329 681 1341 663 1341 c 0
 587 1341 524 1251 464 1202 c 1
 448 1192 454 1128 419 1067 c 0
 417 1063 415 1061 415 1057 c 0
 409 979 374 958 368 874 c 0
 364 823 362 784 362 756 c 0
 362 688 376 678 429 674 c 1
 425 641 l 1
 384 641 l 1
 384 584 419 563 431 563 c 0
 444 563 460 567 483 573 c 1
 485 565 l 1
 425 549 417 543 417 535 c 1
 425 512 l 2
 429 500 433 492 452 492 c 0
 464 492 483 494 511 504 c 1
 517 481 l 1
 462 463 450 451 450 436 c 0
 450 432 450 428 452 424 c 1
 454 408 l 1
 460 395 l 1
 483 373 l 1
 489 369 491 365 493 365 c 0
 517 365 534 373 581 428 c 1
 595 418 l 1
 552 369 546 350 546 330 c 0
 546 201 702 186 796 186 c 0
 802 186 806 186 810 190 c 1
 849 217 l 1
 886 274 l 1
 888 281 890 287 890 293 c 0
 890 307 882 328 855 369 c 1
 870 379 l 1
 904 322 919 311 935 311 c 0
 970 311 968 360 968 387 c 0
 968 403 960 416 900 444 c 1
 911 463 l 1
 945 444 966 438 978 438 c 0
 988 438 997 444 1003 451 c 2
 1074 520 l 2
 1091 537 1103 555 1128 625 c 1
 1136 621 l 1
 1117 567 1111 543 1111 524 c 0
 1111 518 1111 512 1113 506 c 1
 1113 502 l 1
 1115 481 1115 469 1163 469 c 0
 1171 469 1181 471 1191 471 c 1
 1193 449 l 1
 1120 442 1120 432 1120 408 c 2
 1120 367 l 2
 1120 342 1122 330 1193 315 c 1
 1189 293 l 1
 1165 299 1148 301 1136 301 c 0
 1107 301 1104 284 1097 264 c 0
 1083 219 1058 150 1058 145 c 2
 1048 43 l 2
 1048 33 1056 25 1117 14 c 1
 1115 -2 l 1
 1091 2 1072 4 1062 4 c 0
1167 1532 m 1
 1171 1530 1177 1528 1181 1528 c 0
 1193 1528 1199 1542 1199 1556 c 0
 1199 1563 1197 1569 1195 1577 c 1
 1179 1559 1171 1544 1167 1532 c 1
1132 1569 m 2
 1130 1573 1128 1575 1128 1579 c 1
 1132 1569 l 2
1048 1556 m 1
 1046 1556 1046 1559 1046 1559 c 1
 1046 1561 l 1
 1048 1556 l 1
EndSplineSet
EndChar

StartChar: d
Encoding: 100 100 28
Width: 1238
Flags: MW
LayerCount: 2
Fore
SplineSet
282 35 m 0
 282 62 264 82 239 82 c 0
 225 82 207 76 170 59 c 1
 162 76 l 1
 229 106 233 119 233 139 c 2
 233 158 l 2
 233 182 227 199 176 252 c 1
 188 264 l 1
 205 246 217 233 229 223 c 1
 229 225 l 1
 291 248 299 260 299 274 c 2
 299 283 l 1
 291 469 196 1212 116 1212 c 2
 108 1212 l 1
 59 1200 26 1204 -15 1200 c 1
 -29 1260 l 1
 18 1298 l 1
 26 1307 35 1313 35 1325 c 0
 35 1337 26 1356 10 1389 c 1
 28 1399 l 1
 55 1350 67 1339 84 1339 c 0
 119 1339 364 1413 364 1430 c 0
 364 1440 360 1458 352 1495 c 1
 362 1497 l 1
 377 1436 383 1427 391 1427 c 1
 399 1430 405 1430 405 1454 c 0
 405 1466 403 1483 401 1505 c 1
 413 1507 l 1
 424 1434 430 1434 442 1434 c 0
 499 1436 544 1442 573 1511 c 1
 577 1509 l 1
 561 1468 l 1
 573 1479 581 1489 581 1513 c 0
 581 1526 579 1542 575 1563 c 1
 604 1569 l 1
 618 1497 635 1489 665 1487 c 0
 757 1481 813 1454 868 1432 c 0
 872 1430 878 1430 882 1430 c 0
 897 1430 913 1440 948 1483 c 1
 962 1470 l 1
 932 1434 923 1415 923 1403 c 0
 923 1395 925 1389 930 1382 c 0
 1059 1167 1229 1155 1229 840 c 0
 1229 569 1183 104 907 -35 c 0
 897 -41 891 -49 891 -61 c 1
 913 -176 l 1
 884 -180 l 1
 864 -72 l 1
 852 -84 831 -98 831 -98 c 1
 811 -98 l 1
 805 -25 794 -25 776 -25 c 2
 684 -29 l 2
 665 -29 653 -41 653 -59 c 2
 651 -145 l 1
 628 -145 l 1
 628 -37 l 2
 628 -25 622 -16 612 -10 c 1
 547 20 l 2
 542 23 538 25 532 25 c 0
 528 25 522 23 518 23 c 0
 475 23 434 63 393 63 c 1
 338 51 l 2
 317 47 307 39 288 -33 c 1
 272 -27 l 1
 278 4 282 23 282 35 c 0
676 152 m 0
 803 152 704 283 788 297 c 1
 798 297 805 301 809 309 c 0
 884 432 921 559 921 702 c 0
 921 721 909 739 841 748 c 1
 844 766 l 1
 862 764 876 762 887 762 c 0
 925 762 927 778 927 803 c 0
 927 850 907 897 899 940 c 0
 889 991 899 1141 825 1141 c 0
 813 1141 794 1137 770 1126 c 1
 762 1145 l 1
 811 1163 823 1182 827 1182 c 2
 829 1182 l 1
 794 1288 628 1341 544 1341 c 0
 540 1341 536 1339 532 1337 c 1
 532 1333 532 1331 592 1288 c 1
 590 1284 l 1
 540 1321 530 1327 528 1327 c 2
 522 1325 l 2
 520 1325 520 1325 520 1321 c 0
 520 1315 522 1298 532 1251 c 1
 530 1251 l 1
 514 1323 512 1323 510 1323 c 2
 508 1323 l 1
 471 1296 440 1266 440 1251 c 2
 444 1038 l 2
 444 1028 448 1022 454 1016 c 1
 465 1011 474 1001 487 1001 c 0
 501 1001 522 1008 561 1020 c 1
 567 1006 l 1
 487 981 475 958 475 938 c 0
 475 860 481 782 481 696 c 2
 481 647 l 1
 510 565 526 492 526 418 c 0
 526 391 524 367 520 340 c 1
 520 322 528 297 528 272 c 0
 528 240 524 205 520 176 c 1
 499 240 l 1
 520 168 l 1
 522 170 l 1
 571 162 626 152 676 152 c 0
248 211 m 1
 260 205 268 203 280 203 c 2
 309 201 l 2
 313 201 317 201 325 213 c 1
 319 219 313 223 301 223 c 0
 288 223 274 221 248 211 c 1
522 170 m 1
 520 174 l 1
 520 176 l 1
 522 170 l 1
340 199 m 2
 336 203 l 1
 336 201 338 201 340 199 c 2
EndSplineSet
EndChar

StartChar: e
Encoding: 101 101 29
Width: 1546
Flags: MW
LayerCount: 2
Fore
SplineSet
310 557 m 1
 294 598 l 1
 349 625 386 645 386 651 c 2
 388 690 l 2
 390 723 349 1028 351 1143 c 1
 343 1167 335 1182 288 1182 c 0
 279 1182 269 1180 259 1180 c 1
 257 1210 l 1
 345 1214 345 1243 345 1292 c 0
 345 1323 310 1397 277 1397 c 0
 265 1397 247 1393 222 1382 c 1
 212 1407 l 1
 267 1430 275 1440 275 1460 c 1
 269 1470 259 1477 249 1477 c 2
 101 1473 l 2
 79 1473 64 1468 28 1405 c 1
 11 1413 l 1
 34 1452 42 1473 42 1489 c 0
 42 1505 28 1530 21 1548 c 1
 15 1573 5 1591 -58 1630 c 1
 -48 1645 l 1
 -1 1614 23 1606 42 1606 c 0
 48 1606 52 1606 58 1608 c 0
 167 1626 384 1622 454 1628 c 1
 449 1626 l 1
 482 1630 499 1632 503 1706 c 1
 535 1706 l 1
 535 1628 546 1628 583 1622 c 0
 662 1610 857 1599 947 1599 c 0
 963 1599 978 1610 994 1675 c 1
 1011 1671 l 1
 1004 1645 1002 1626 1002 1614 c 0
 1002 1577 1072 1565 1111 1538 c 1
 1232 1546 1324 1579 1367 1622 c 1
 1453 1532 l 1
 1402 1483 1363 1374 1357 1212 c 1
 1357 1352 l 1
 1349 1276 1318 1206 1314 1128 c 1
 1314 1106 1318 1096 1383 1065 c 1
 1377 1049 l 1
 1336 1067 1320 1071 1303 1071 c 0
 1287 1071 1265 1065 1256 961 c 1
 1244 963 l 1
 1246 985 1246 1001 1246 1016 c 0
 1246 1073 1207 1100 1181 1147 c 1
 1156 1190 1136 1249 1136 1298 c 0
 1136 1305 1138 1311 1138 1317 c 0
 1138 1350 1054 1432 1015 1440 c 0
 996 1444 972 1450 959 1475 c 1
 947 1462 935 1460 923 1460 c 0
 849 1460 781 1495 710 1495 c 0
 644 1495 583 1491 583 1452 c 1
 607 1296 636 1128 636 969 c 0
 636 944 636 922 634 899 c 1
 634 881 644 866 662 866 c 1
 902 844 l 1
 953 844 935 993 959 1065 c 0
 961 1073 963 1081 963 1092 c 0
 963 1112 957 1137 941 1180 c 1
 957 1186 l 1
 1017 1036 1080 1096 1080 997 c 0
 1080 934 1074 868 1074 807 c 0
 1074 717 1078 629 1086 543 c 1
 1086 524 1093 512 1162 489 c 1
 1156 473 l 1
 1121 483 1101 489 1088 489 c 0
 1058 489 1047 451 1045 424 c 0
 1045 412 1047 403 1099 350 c 1
 1093 344 l 1
 1041 399 1033 401 1023 401 c 2
 1019 401 l 2
 1009 401 1000 399 974 330 c 1
 966 334 l 1
 980 375 986 393 986 403 c 0
 986 410 984 414 980 416 c 1
 963 432 l 1
 955 438 949 442 939 442 c 0
 925 442 906 436 869 420 c 1
 861 438 l 1
 929 467 933 479 933 500 c 2
 933 657 l 2
 933 668 894 698 894 702 c 1
 812 698 l 2
 783 696 748 719 724 719 c 0
 703 719 689 700 689 674 c 1
 699 547 l 1
 726 401 712 254 738 113 c 1
 757 109 992 104 1056 104 c 1
 1123 143 1195 180 1246 227 c 1
 1252 238 1256 248 1258 322 c 1
 1265 322 l 1
 1265 303 1262 289 1262 276 c 0
 1262 236 1267 232 1275 219 c 1
 1277 213 1281 209 1293 209 c 0
 1305 209 1324 213 1357 219 c 1
 1359 209 l 1
 1287 195 1285 188 1283 176 c 1
 1279 119 1236 68 1236 12 c 0
 1236 -10 1244 -25 1301 -49 c 1
 1289 -76 l 1
 1260 -59 1242 -59 1228 -59 c 0
 1209 -59 1201 -68 1191 -82 c 1
 1181 -186 l 1
 1181 -199 1260 -233 1330 -254 c 1
 1328 -266 l 1
 1289 -256 1193 -223 1183 -223 c 0
 1168 -223 1167 -230 1162 -238 c 0
 1160 -240 1160 -270 1158 -311 c 1
 1146 -309 l 1
 1143 -256 1151 -227 1125 -227 c 0
 1115 -227 1097 -231 1058 -242 c 1
 1056 -233 l 1
 1125 -215 1127 -207 1127 -197 c 1
 1142 -119 l 1
 1142 -74 1037 -29 1011 -29 c 0
 998 -29 984 -41 959 -90 c 1
 939 -80 l 1
 949 -49 961 -31 963 -18 c 1
 955 -41 785 -41 734 -51 c 1
 726 -61 714 -66 701 -66 c 0
 664 -66 613 -29 566 -14 c 1
 525 -61 494 -8 396 -106 c 1
 384 -92 l 1
 386 -88 392 -82 396 -78 c 0
 464 -2 423 23 462 63 c 1
 466 82 l 1
 470 104 l 1
 437 254 437 408 423 559 c 1
 423 578 402 586 388 586 c 0
 384 586 355 575 310 557 c 1
1117 1534 m 1
 1133 1518 l 1
 1154 1528 1179 1530 1197 1530 c 2
 1117 1534 l 1
273 1464 m 1
 275 1462 l 1
 273 1464 l 1
EndSplineSet
EndChar

StartChar: f
Encoding: 102 102 30
Width: 1336
Flags: MW
LayerCount: 2
Fore
SplineSet
782 1167 m 1
 767 1208 767 1210 711 1276 c 1
 717 1282 l 1
 809 1174 840 1178 899 1178 c 0
 919 1178 938 1186 987 1231 c 1
 997 1219 l 1
 944 1167 938 1151 938 1126 c 2
 938 825 l 2
 938 784 913 745 913 709 c 0
 913 694 924 682 973 647 c 1
 962 633 l 1
 924 662 905 670 893 670 c 0
 850 670 848 598 848 575 c 0
 848 553 858 528 932 504 c 1
 926 485 l 1
 885 500 866 502 850 502 c 0
 829 502 807 496 778 383 c 1
 768 387 l 1
 780 430 784 455 784 469 c 0
 784 508 741 586 702 586 c 0
 688 586 670 582 641 571 c 1
 633 596 l 1
 702 621 706 637 706 664 c 2
 706 715 l 2
 706 733 694 745 676 745 c 2
 561 745 l 2
 543 745 530 733 530 715 c 2
 530 369 l 2
 530 276 637 297 690 231 c 0
 704 213 721 203 790 178 c 1
 786 166 l 1
 739 182 715 188 696 188 c 0
 674 188 651 176 629 176 c 0
 625 176 623 176 618 178 c 1
 530 188 l 1
 426 188 211 166 211 94 c 0
 211 80 219 59 237 25 c 1
 225 18 l 1
 205 55 194 74 182 80 c 1
 160 74 143 63 143 35 c 1
 117 37 l 1
 174 115 235 184 311 229 c 1
 313 233 315 238 315 242 c 2
 315 457 l 2
 315 522 311 662 289 662 c 0
 276 662 260 659 237 653 c 1
 231 682 l 1
 293 698 301 711 301 733 c 1
 293 836 l 1
 276 1356 l 2
 276 1372 266 1382 250 1384 c 1
 194 1399 l 2
 190 1401 186 1401 182 1401 c 0
 168 1401 154 1391 125 1343 c 1
 108 1354 l 1
 131 1389 137 1407 137 1419 c 0
 137 1462 76 1464 57 1464 c 0
 45 1464 31 1460 -43 1432 c 1
 -45 1438 l 1
 10 1458 35 1466 35 1481 c 0
 35 1493 27 1511 6 1546 c 1
 27 1561 l 1
 53 1520 70 1507 82 1507 c 0
 102 1507 131 1532 154 1548 c 0
 170 1559 180 1571 201 1642 c 1
 213 1638 l 1
 203 1599 199 1577 199 1563 c 0
 199 1485 307 1501 367 1495 c 1
 680 1483 l 1
 729 1483 858 1505 868 1516 c 1
 885 1532 l 2
 895 1542 901 1550 901 1563 c 0
 901 1577 893 1595 870 1626 c 1
 893 1642 l 1
 915 1606 938 1591 952 1591 c 0
 971 1591 1001 1610 1008 1626 c 1
 950 1612 l 2
 971 1618 991 1626 1010 1634 c 1
 1010 1649 1008 1667 995 1698 c 1
 1026 1708 l 1
 1036 1679 1044 1663 1053 1653 c 1
 1108 1679 1151 1710 1175 1743 c 1
 1239 1698 l 1
 1202 1645 1184 1554 1184 1497 c 0
 1184 1475 1188 1458 1188 1434 c 2
 1188 1227 l 2
 1188 1202 1194 1186 1245 1133 c 1
 1235 1122 l 1
 1182 1174 1165 1180 1141 1180 c 2
 1085 1180 l 2
 1061 1180 1046 1176 1012 1110 c 1
 993 1120 l 1
 1014 1157 1022 1178 1022 1194 c 0
 1022 1204 1018 1210 1014 1219 c 1
 915 1374 l 1
 911 1378 905 1382 899 1384 c 2
 846 1395 l 1
 571 1382 l 2
 553 1382 530 1339 530 1329 c 2
 530 1266 l 1
 530 1266 532 1178 532 1104 c 1
 545 1087 530 926 573 926 c 2
 706 926 l 2
 754 926 760 989 760 1038 c 2
 760 1079 l 2
 760 1094 784 1143 784 1159 c 0
 784 1161 782 1163 782 1167 c 1
950 1612 m 2
 944 1610 938 1608 934 1608 c 2
 950 1612 l 2
EndSplineSet
EndChar

StartChar: g
Encoding: 103 103 31
Width: 1547
Flags: MW
LayerCount: 2
Fore
SplineSet
443 1716 m 2
 464 1716 482 1736 482 1759 c 0
 482 1772 480 1790 471 1817 c 1
 492 1823 l 1
 512 1751 525 1749 549 1749 c 2
 693 1749 l 2
 727 1749 744 1751 756 1825 c 1
 791 1819 l 1
 787 1800 787 1788 787 1776 c 0
 787 1733 824 1718 871 1718 c 0
 885 1718 895 1726 916 1786 c 1
 932 1782 l 1
 920 1749 916 1729 916 1716 c 0
 916 1667 1067 1681 1155 1530 c 1
 1162 1522 1170 1516 1180 1516 c 2
 1297 1516 l 2
 1319 1516 1332 1520 1362 1587 c 1
 1381 1579 l 1
 1364 1542 1358 1522 1358 1509 c 0
 1358 1495 1366 1486 1375 1479 c 1
 1383 1470 1389 1464 1403 1464 c 0
 1415 1464 1436 1468 1469 1481 c 1
 1477 1462 l 1
 1407 1436 1403 1423 1401 1401 c 1
 1395 1180 l 2
 1395 1159 1403 1141 1450 1094 c 1
 1438 1081 l 1
 1387 1135 1370 1141 1346 1141 c 2
 1342 1141 l 1
 1340 1137 1340 1133 1340 1126 c 0
 1340 1112 1350 1096 1387 1067 c 1
 1368 1042 l 1
 1338 1067 1317 1077 1305 1077 c 1
 1282 1016 1264 1008 1250 995 c 1
 1223 1030 l 1
 1223 1032 1221 1032 1221 1034 c 0
 1207 1069 1184 1102 1184 1141 c 0
 1184 1165 1178 1262 1127 1296 c 1
 1110 1315 1084 1339 1067 1368 c 1
 1043 1362 1010 1362 977 1362 c 0
 961 1362 942 1364 924 1366 c 1
 971 1366 l 2
 990 1366 1004 1378 1004 1393 c 0
 1004 1432 924 1493 903 1493 c 1
 750 1505 l 1
 645 1505 604 1427 543 1415 c 0
 535 1413 527 1407 523 1399 c 0
 500 1346 422 1174 422 1167 c 2
 422 756 l 2
 422 600 539 520 596 393 c 0
 604 375 715 358 750 358 c 0
 768 358 783 371 813 424 c 1
 834 412 l 1
 813 377 805 356 805 342 c 0
 805 332 811 324 817 315 c 1
 830 299 l 1
 817 276 l 1
 871 330 983 541 983 668 c 0
 983 698 926 705 897 705 c 0
 877 705 858 696 809 655 c 1
 799 666 l 1
 856 715 863 729 865 750 c 1
 865 752 l 2
 865 862 863 938 793 1071 c 1
 799 1075 l 1
 906 874 1002 948 1090 854 c 1
 1106 860 1127 860 1147 860 c 0
 1174 860 1205 858 1227 856 c 0
 1250 854 1393 844 1393 756 c 0
 1393 729 1395 700 1401 674 c 0
 1407 647 1411 637 1485 637 c 1
 1485 616 l 1
 1411 616 1407 608 1401 588 c 1
 1401 578 l 2
 1401 563 1409 543 1444 500 c 1
 1432 489 l 1
 1387 549 1372 553 1352 553 c 2
 1262 553 l 2
 1246 553 1233 541 1231 524 c 0
 1221 406 1147 205 1084 125 c 1
 1082 133 l 1
 1082 106 1084 92 1131 23 c 1
 1123 16 l 1
 1057 115 1004 125 944 125 c 2
 885 125 l 2
 873 125 858 127 844 127 c 0
 813 127 783 113 777 20 c 1
 760 23 l 1
 762 39 762 53 762 63 c 0
 762 100 748 123 736 123 c 1
 678 16 l 1
 690 45 697 70 699 90 c 1
 699 111 690 127 670 141 c 1
 662 141 l 1
 656 139 650 137 645 131 c 2
 631 111 l 2
 621 98 615 86 615 59 c 0
 615 45 617 27 621 2 c 1
 604 0 l 1
 594 74 584 88 566 102 c 0
 514 145 418 217 365 217 c 0
 346 217 326 207 295 168 c 1
 273 188 l 1
 299 221 308 242 308 258 c 0
 308 283 277 313 275 346 c 0
 275 360 215 403 201 432 c 0
 197 440 193 444 178 444 c 0
 176 444 150 436 107 420 c 1
 97 451 l 1
 152 475 187 492 187 496 c 0
 187 582 99 651 99 756 c 2
 99 1049 l 2
 99 1186 172 1317 172 1454 c 0
 172 1473 164 1485 105 1511 c 1
 113 1530 l 1
 146 1516 164 1511 176 1511 c 0
 226 1511 328 1704 328 1706 c 0
 328 1720 322 1741 303 1778 c 1
 322 1788 l 1
 355 1720 369 1716 391 1716 c 2
 443 1716 l 2
678 16 m 1
 672 6 l 1
 678 16 l 1
EndSplineSet
EndChar

StartChar: h
Encoding: 104 104 32
Width: 1561
Flags: MW
LayerCount: 2
Fore
SplineSet
1367 236 m 1
 1376 234 1388 229 1397 229 c 0
 1410 229 1430 238 1485 274 c 1
 1492 262 l 1
 1424 219 1418 207 1414 190 c 1
 1414 186 l 1
 1410 182 1410 180 1410 178 c 0
 1410 164 1422 152 1475 115 c 1
 1467 100 l 1
 1424 131 1403 137 1393 137 c 0
 1385 137 1381 135 1377 133 c 2
 1352 115 l 2
 1342 109 1340 96 1340 84 c 0
 1340 76 1342 66 1342 59 c 2
 1344 -12 l 1
 1309 -12 l 1
 1309 72 l 2
 1309 147 1039 125 965 154 c 1
 904 176 857 217 799 236 c 1
 807 311 l 1
 834 322 863 322 898 322 c 2
 953 322 l 2
 973 322 988 334 988 354 c 0
 992 481 1018 600 1023 731 c 1
 1023 766 990 764 961 764 c 0
 924 764 883 762 850 756 c 0
 826 752 812 743 812 664 c 1
 787 664 l 1
 787 743 775 752 750 756 c 0
 715 762 672 762 633 762 c 0
 586 762 531 760 527 727 c 1
 515 410 l 2
 513 377 551 311 586 311 c 0
 601 311 619 319 619 381 c 2
 619 408 l 1
 633 408 l 1
 635 328 642 326 656 322 c 2
 678 315 l 2
 683 313 687 313 693 313 c 0
 709 313 732 322 785 344 c 1
 789 334 l 1
 715 303 705 291 693 276 c 1
 689 266 l 1
 683 258 678 250 678 240 c 1
 695 248 l 1
 691 233 l 1
 687 233 683 233 678 231 c 1
 681 215 691 195 717 162 c 1
 697 145 l 1
 662 193 644 207 625 207 c 0
 547 207 398 111 322 84 c 0
 302 76 287 68 279 -12 c 1
 259 -10 l 1
 261 12 261 27 261 41 c 0
 261 68 259 82 244 82 c 0
 228 82 209 66 209 43 c 2
 209 16 l 2
 209 -33 183 -10 183 -115 c 2
 183 -150 l 1
 177 -150 l 1
 173 -70 171 -57 162 -47 c 1
 158 -35 l 1
 154 -31 150 -27 138 -27 c 0
 123 -27 105 -29 66 -37 c 1
 64 -27 l 1
 142 -8 144 0 146 12 c 0
 146 18 185 121 183 125 c 2
 146 188 l 2
 144 193 103 205 42 217 c 1
 46 252 l 1
 85 246 109 242 111 242 c 0
 164 242 218 297 218 311 c 2
 218 653 l 2
 218 688 185 727 185 762 c 2
 185 1073 l 2
 185 1079 160 1096 121 1116 c 1
 134 1159 l 1
 156 1149 171 1145 173 1145 c 0
 198 1145 218 1166 218 1190 c 1
 203 1366 l 2
 203 1372 197 1378 193 1382 c 2
 115 1452 l 2
 101 1464 89 1470 50 1470 c 0
 37 1470 19 1470 -4 1468 c 1
 -4 1489 l 1
 76 1495 93 1507 109 1526 c 1
 154 1587 l 2
 169 1608 179 1628 183 1708 c 1
 195 1708 l 1
 193 1690 193 1677 193 1663 c 0
 193 1618 197 1599 209 1583 c 1
 232 1565 439 1542 500 1542 c 0
 517 1542 529 1550 564 1614 c 1
 578 1606 l 1
 554 1563 547 1540 547 1526 c 0
 547 1481 631 1477 672 1477 c 0
 695 1477 724 1485 787 1511 c 1
 791 1499 l 1
 734 1475 709 1460 693 1444 c 1
 713 1448 l 1
 701 1403 l 1
 687 1403 672 1405 660 1405 c 1
 658 1403 656 1399 656 1397 c 0
 656 1370 662 1350 709 1284 c 1
 697 1276 l 1
 648 1341 631 1352 607 1358 c 1
 574 1368 l 1
 564 1368 l 2
 529 1368 515 1300 515 1290 c 2
 515 961 l 2
 515 940 527 926 547 926 c 2
 713 926 l 2
 754 926 783 963 824 963 c 0
 869 963 910 930 953 930 c 0
 971 930 988 946 988 967 c 2
 988 1323 l 2
 988 1354 922 1374 842 1389 c 1
 814 1462 l 1
 830 1462 844 1460 857 1456 c 1
 875 1456 887 1473 887 1495 c 0
 887 1509 885 1528 877 1561 c 1
 900 1567 l 1
 922 1491 934 1487 963 1487 c 2
 971 1487 l 2
 998 1487 1020 1540 1074 1540 c 1
 1086 1546 1092 1552 1092 1595 c 2
 1092 1636 l 1
 1109 1636 l 1
 1116 1542 1118 1551 1156 1542 c 1
 1158 1540 1162 1540 1164 1540 c 0
 1197 1542 1283 1573 1328 1604 c 1
 1342 1612 1350 1622 1358 1704 c 1
 1373 1702 l 1
 1369 1671 1369 1653 1369 1638 c 0
 1369 1599 1377 1585 1418 1585 c 0
 1430 1585 1451 1587 1481 1591 c 1
 1485 1575 l 1
 1406 1565 1397 1556 1387 1538 c 1
 1373 1503 l 2
 1371 1497 1369 1491 1369 1485 c 0
 1369 1468 1379 1450 1422 1415 c 1
 1406 1395 l 1
 1367 1427 1346 1440 1332 1440 c 0
 1319 1440 1309 1430 1301 1423 c 1
 1291 1419 1289 1415 1289 1407 c 0
 1289 1403 1295 1397 1303 1389 c 1
 1344 1335 1352 1171 1352 1126 c 2
 1342 668 l 1
 1332 584 1342 537 1283 494 c 0
 1274 487 1270 479 1270 469 c 2
 1270 324 l 2
 1270 311 1362 236 1367 236 c 1
EndSplineSet
EndChar

StartChar: i
Encoding: 105 105 33
Width: 814
Flags: MW
LayerCount: 2
Fore
SplineSet
40 1468 m 1
 16 1501 l 1
 50 1536 71 1561 71 1565 c 0
 71 1577 63 1595 -31 1638 c 1
 -29 1642 l 1
 38 1612 52 1610 69 1610 c 2
 149 1610 l 2
 179 1610 198 1616 227 1683 c 1
 253 1673 l 1
 241 1642 235 1620 235 1606 c 0
 235 1561 294 1538 337 1538 c 2
 487 1538 l 1
 528 1595 l 1
 534 1591 538 1585 542 1581 c 1
 546 1585 548 1591 548 1599 c 0
 548 1614 542 1634 524 1671 c 1
 544 1681 l 1
 577 1614 589 1610 614 1610 c 2
 653 1610 l 2
 663 1610 728 1677 728 1690 c 0
 728 1700 724 1718 712 1755 c 1
 722 1759 l 1
 745 1690 751 1688 763 1688 c 2
 769 1688 l 2
 782 1688 794 1690 861 1716 c 1
 863 1712 l 1
 794 1686 786 1679 775 1671 c 1
 749 1647 l 1
 743 1640 741 1634 741 1626 c 0
 737 1552 702 1546 675 1540 c 0
 644 1534 607 1520 573 1511 c 1
 579 1442 l 1
 579 1415 l 2
 579 1409 616 1403 673 1401 c 1
 669 1382 l 1
 585 1378 577 1392 577 1329 c 0
 577 1221 591 1122 591 1016 c 0
 591 836 571 637 567 457 c 0
 567 432 571 418 632 377 c 1
 622 360 l 1
 581 387 560 395 544 395 c 0
 519 395 511 381 511 367 c 2
 511 279 l 2
 511 233 642 236 642 188 c 0
 642 186 640 182 640 180 c 0
 640 164 667 127 673 106 c 0
 679 84 687 61 739 10 c 1
 730 0 l 1
 679 53 659 66 634 72 c 1
 632 72 l 2
 630 72 628 74 626 74 c 0
 591 74 585 -2 585 -25 c 1
 560 -23 l 1
 560 20 544 84 495 96 c 1
 474 59 l 2
 478 68 481 76 481 84 c 0
 481 88 478 94 478 98 c 1
 466 98 450 96 427 94 c 1
 427 104 l 1
 472 109 l 1
 464 121 450 131 433 131 c 2
 323 131 l 2
 308 131 175 53 175 14 c 1
 159 -45 l 1
 130 -37 l 1
 151 18 l 1
 151 92 265 190 265 231 c 2
 251 1425 l 2
 251 1458 196 1454 188 1489 c 1
 184 1513 124 1530 112 1530 c 0
 108 1530 81 1505 40 1468 c 1
EndSplineSet
EndChar

StartChar: j
Encoding: 106 106 34
Width: 1051
Flags: MW
LayerCount: 2
Fore
SplineSet
763 1331 m 1
 774 1322 782 1309 802 1309 c 0
 814 1309 835 1315 869 1329 c 1
 878 1309 l 1
 808 1278 806 1268 806 1243 c 2
 806 1184 l 2
 806 1155 808 1141 882 1122 c 1
 873 1096 l 1
 851 1102 837 1104 824 1104 c 0
 779 1104 771 1049 771 981 c 0
 771 840 775 662 775 559 c 0
 775 528 775 473 757 438 c 1
 744 418 728 410 728 408 c 1
 751 408 773 412 839 446 c 1
 843 436 l 1
 720 375 730 342 730 307 c 0
 730 274 740 240 740 205 c 0
 740 193 736 178 736 166 c 0
 736 150 746 135 796 100 c 1
 785 86 l 1
 744 115 726 125 714 125 c 0
 675 125 611 39 611 8 c 0
 611 -4 622 -20 658 -57 c 1
 646 -72 l 1
 609 -35 591 -25 579 -25 c 0
 531 -25 507 -88 507 -125 c 0
 507 -147 517 -170 556 -213 c 1
 538 -227 l 1
 493 -178 472 -168 445 -168 c 2
 437 -168 l 2
 417 -168 394 -162 368 -162 c 1
 368 -162 366 -164 364 -164 c 2
 359 -164 l 1
 341 -168 329 -176 300 -244 c 1
 286 -238 l 1
 302 -197 308 -176 308 -162 c 0
 308 -135 273 -72 269 -12 c 1
 269 6 265 18 196 47 c 1
 204 63 l 1
 241 47 261 41 273 41 c 0
 310 41 343 111 343 131 c 0
 343 147 335 168 308 209 c 1
 325 221 l 1
 366 160 382 154 407 154 c 2
 480 154 l 2
 495 154 507 164 509 178 c 2
 517 227 l 2
 517 231 515 236 515 242 c 0
 515 260 529 295 529 307 c 2
 529 369 l 2
 529 375 527 379 525 383 c 0
 505 412 499 444 499 479 c 0
 499 502 503 524 505 547 c 1
 505 561 458 623 445 666 c 1
 443 678 439 686 415 686 c 0
 404 686 388 684 364 680 c 1
 361 698 l 1
 435 711 435 719 435 737 c 0
 433 795 439 930 419 950 c 1
 394 999 388 1202 388 1372 c 0
 388 1452 390 1524 390 1569 c 0
 390 1585 376 1597 359 1597 c 0
 249 1602 142 1618 32 1622 c 0
 5 1622 -17 1614 -79 1575 c 1
 -87 1587 l 1
 -28 1630 -13 1649 -5 1673 c 2
 5 1702 l 2
 7 1706 7 1710 7 1714 c 0
 7 1726 -3 1739 -54 1763 c 1
 -44 1780 l 1
 -11 1763 5 1757 17 1757 c 0
 36 1757 54 1788 54 1808 c 0
 54 1823 46 1843 24 1882 c 1
 40 1890 l 1
 77 1825 91 1823 114 1823 c 2
 300 1823 l 2
 333 1823 351 1827 370 1898 c 1
 402 1890 l 1
 402 1735 458 1808 519 1767 c 1
 562 1772 l 2
 570 1772 577 1776 581 1780 c 0
 642 1849 794 1847 873 1847 c 2
 1119 1847 l 2
 1144 1847 1164 1853 1230 1890 c 1
 1236 1878 l 1
 1105 1804 1146 1780 1089 1749 c 0
 1084 1747 1080 1745 1078 1741 c 2
 1066 1722 l 1
 1062 1712 1058 1704 1058 1694 c 0
 1058 1679 1066 1659 1093 1624 c 1
 1072 1612 l 1
 1039 1657 1023 1667 1007 1667 c 0
 962 1667 912 1638 912 1610 c 0
 912 1597 916 1579 921 1552 c 1
 904 1548 l 1
 888 1622 880 1624 863 1626 c 1
 861 1626 l 2
 822 1626 769 1628 755 1583 c 1
 755 1350 l 1
 755 1350 757 1331 763 1331 c 1
EndSplineSet
EndChar

StartChar: k
Encoding: 107 107 35
Width: 1343
Flags: MW
LayerCount: 2
Fore
SplineSet
220 842 m 1
 212 860 l 1
 269 887 304 905 304 909 c 0
 304 1022 263 1139 259 1253 c 0
 259 1260 257 1266 251 1272 c 1
 249 1272 l 1
 236 1284 224 1290 191 1290 c 0
 179 1290 163 1290 144 1288 c 1
 142 1305 l 1
 216 1313 228 1325 240 1343 c 2
 255 1364 l 2
 257 1368 259 1372 259 1378 c 2
 259 1427 l 1
 245 1417 234 1397 226 1360 c 1
 179 1370 l 1
 181 1384 183 1397 183 1407 c 0
 183 1503 42 1458 27 1530 c 0
 21 1556 3 1556 -81 1556 c 1
 -81 1565 l 1
 6 1565 8 1569 36 1585 c 0
 54 1595 64 1604 64 1620 c 0
 64 1632 60 1651 48 1679 c 1
 66 1688 l 1
 87 1638 99 1624 111 1624 c 1
 126 1632 132 1649 132 1704 c 1
 156 1704 l 1
 156 1622 185 1610 214 1610 c 0
 285 1610 355 1632 427 1632 c 0
 470 1632 566 1620 613 1587 c 0
 623 1579 630 1575 638 1575 c 0
 648 1575 660 1593 660 1608 c 0
 660 1620 654 1640 640 1675 c 1
 660 1683 l 1
 689 1616 701 1612 726 1612 c 2
 761 1612 l 2
 793 1612 812 1614 824 1688 c 1
 857 1681 l 1
 855 1665 853 1653 853 1642 c 0
 853 1534 1252 1583 1269 1485 c 0
 1269 1481 1271 1477 1273 1475 c 2
 1285 1454 l 2
 1287 1450 1309 1438 1346 1419 c 1
 1334 1389 l 1
 1295 1405 1269 1415 1264 1415 c 2
 1260 1415 l 2
 1252 1415 1207 1382 1207 1352 c 0
 1207 1339 1209 1321 1213 1294 c 1
 1197 1292 l 1
 1185 1366 1176 1370 1158 1374 c 2
 1111 1384 l 2
 1109 1384 1107 1386 1105 1386 c 0
 1103 1386 1101 1384 1099 1384 c 0
 1053 1370 1019 1348 978 1348 c 2
 970 1348 l 2
 961 1348 953 1346 947 1339 c 2
 765 1155 l 1
 771 1159 l 1
 824 1067 l 1
 797 1051 787 1032 787 1012 c 0
 787 981 810 942 841 887 c 0
 863 846 908 809 916 752 c 1
 916 743 922 737 931 735 c 1
 965 717 982 586 982 537 c 0
 982 526 980 516 978 506 c 1
 1035 477 1137 342 1137 254 c 0
 1137 238 1103 190 1103 176 c 0
 1103 168 1111 150 1135 104 c 1
 1127 100 l 1
 1092 166 1086 168 1078 168 c 2
 1051 168 l 2
 1023 168 996 195 982 221 c 1
 980 231 929 252 904 279 c 1
 898 289 898 295 896 295 c 0
 875 295 859 289 810 233 c 1
 797 244 l 1
 838 291 847 309 847 326 c 1
 843 377 l 1
 832 420 l 2
 830 428 826 434 818 438 c 0
 765 467 744 535 744 569 c 0
 744 573 746 578 746 578 c 1
 738 582 730 586 720 586 c 0
 705 586 687 578 650 551 c 1
 636 569 l 1
 683 604 695 621 695 639 c 0
 695 729 603 764 605 764 c 1
 570 764 568 713 568 694 c 0
 568 627 611 451 646 444 c 1
 652 444 l 1
 658 442 662 442 668 442 c 0
 685 442 705 451 750 485 c 1
 761 471 l 1
 703 424 697 410 697 385 c 2
 697 371 l 2
 697 359 702 353 707 346 c 0
 720 326 732 313 806 305 c 1
 804 285 l 1
 783 287 769 287 757 287 c 0
 722 287 709 281 697 266 c 1
 666 186 l 1
 668 168 671 158 742 139 c 1
 738 121 l 1
 707 129 689 131 675 131 c 0
 655 131 651 122 644 111 c 0
 634 94 630 80 630 6 c 1
 619 6 l 1
 617 80 613 94 603 111 c 1
 594 120 592 127 574 127 c 0
 562 127 541 123 511 115 c 1
 505 131 l 1
 576 152 578 162 578 180 c 1
 566 233 l 1
 544 242 l 1
 498 238 l 1
 498 231 412 180 406 158 c 1
 402 96 l 1
 402 80 380 31 380 -4 c 0
 380 -18 382 -43 386 -82 c 1
 380 -82 l 1
 368 1 366 3 353 25 c 0
 349 31 345 37 331 37 c 0
 318 37 300 33 267 25 c 1
 263 39 l 1
 335 59 337 68 337 84 c 1
 353 246 l 1
 353 270 351 283 281 311 c 1
 290 332 l 1
 324 317 343 311 357 311 c 0
 372 311 378 317 386 328 c 1
 408 348 l 1
 412 354 415 360 415 367 c 0
 412 459 394 553 394 643 c 0
 394 649 392 653 390 657 c 2
 376 678 l 1
 367 688 363 696 347 696 c 0
 335 696 316 692 285 680 c 1
 277 700 l 1
 337 723 345 735 345 754 c 1
 329 868 l 1
 322 872 313 874 304 874 c 0
 302 874 269 862 220 842 c 1
548 1458 m 2
 548 1196 l 2
 548 1171 562 1155 582 1155 c 0
 589 1155 595 1157 603 1161 c 1
 619 1174 l 1
 650 1206 l 1
 652 1206 l 1
 675 1231 699 1251 726 1260 c 1
 726 1270 l 2
 726 1303 742 1331 742 1333 c 2
 754 1360 l 1
 765 1427 l 1
 765 1436 761 1442 757 1448 c 1
 705 1497 l 1
 699 1501 693 1503 687 1503 c 2
 578 1503 l 2
 558 1503 548 1479 548 1458 c 2
EndSplineSet
EndChar

StartChar: l
Encoding: 108 108 36
Width: 1090
Flags: MW
LayerCount: 2
Fore
SplineSet
610 1712 m 0
 610 1656 623 1666 645 1657 c 1
 657 1657 665 1653 715 1714 c 1
 725 1708 l 1
 686 1661 678 1647 678 1636 c 0
 678 1622 688 1604 688 1583 c 0
 688 1571 688 1561 686 1548 c 1
 686 1536 686 1528 731 1473 c 1
 725 1466 l 1
 680 1524 674 1526 661 1526 c 1
 637 1530 l 2
 631 1530 622 1528 614 1526 c 1
 522 1456 l 1
 514 1448 510 1440 510 1432 c 0
 510 1415 516 1401 516 1384 c 0
 516 1366 514 1348 514 1329 c 0
 514 1288 522 1262 565 1262 c 0
 575 1262 588 1264 604 1266 c 1
 606 1231 l 1
 532 1219 530 1200 530 1157 c 0
 530 1130 532 1120 610 1118 c 1
 608 1096 l 1
 534 1096 528 1087 526 1065 c 1
 518 1044 516 1020 514 997 c 0
 502 862 506 729 489 594 c 0
 489 587 494 579 497 573 c 0
 502 561 508 551 526 551 c 0
 538 551 557 555 585 565 c 1
 592 543 l 1
 518 518 520 510 520 485 c 1
 526 451 l 2
 528 434 542 428 559 428 c 2
 739 438 l 1
 764 446 776 455 805 524 c 1
 823 520 l 1
 815 453 813 436 813 418 c 0
 813 414 831 414 831 414 c 1
 899 410 l 1
 948 410 1046 588 1046 608 c 0
 1046 621 1038 637 1005 672 c 1
 1020 684 l 1
 1050 647 1067 637 1077 637 c 0
 1089 637 1132 678 1186 731 c 1
 1196 723 l 1
 1171 696 1155 676 1155 670 c 2
 1157 471 l 1
 1147 389 1083 322 1059 244 c 0
 1057 238 1054 233 1054 227 c 0
 1054 213 1065 197 1106 164 c 1
 1093 150 l 1
 1059 180 1040 188 1028 188 c 0
 1015 188 1003 180 993 176 c 1
 979 168 971 156 948 84 c 1
 938 86 l 1
 952 129 954 152 954 166 c 0
 954 197 930 225 925 256 c 1
 903 250 891 236 887 176 c 1
 854 178 l 1
 854 258 803 270 717 270 c 0
 506 270 471 256 307 193 c 1
 293 182 284 176 270 102 c 1
 256 104 l 1
 262 135 266 156 266 170 c 0
 266 194 257 199 248 211 c 1
 243 215 241 217 233 217 c 0
 221 217 203 213 164 199 c 1
 160 209 l 1
 229 236 231 242 235 254 c 1
 235 283 l 1
 237 303 246 324 252 344 c 1
 252 344 252 346 239 354 c 1
 248 350 254 348 254 348 c 1
 280 371 l 2
 284 375 286 377 286 387 c 0
 286 397 282 416 270 453 c 1
 280 457 l 1
 293 416 301 397 307 389 c 1
 315 393 319 403 319 414 c 0
 319 420 317 426 315 434 c 0
 297 498 332 641 262 641 c 0
 252 641 237 639 219 637 c 1
 215 668 l 1
 291 680 291 694 291 723 c 0
 291 852 243 975 243 1102 c 0
 243 1116 246 1130 246 1145 c 0
 246 1157 219 1180 219 1225 c 0
 219 1288 233 1337 233 1370 c 0
 233 1450 172 1442 114 1442 c 0
 96 1442 76 1434 26 1397 c 1
 18 1409 l 1
 78 1456 84 1473 88 1495 c 1
 94 1569 l 1
 94 1591 92 1606 45 1661 c 1
 55 1671 l 1
 100 1624 117 1616 137 1616 c 0
 239 1616 473 1638 561 1657 c 0
 585 1663 594 1665 596 1739 c 1
 612 1741 l 1
 612 1729 610 1720 610 1712 c 0
EndSplineSet
EndChar

StartChar: m
Encoding: 109 109 37
Width: 1923
Flags: MW
LayerCount: 2
Fore
SplineSet
63 1538 m 0
 63 1550 57 1559 46 1565 c 1
 46 1569 38 1573 30 1573 c 0
 24 1573 5 1567 -21 1556 c 1
 -28 1567 l 1
 28 1589 30 1595 30 1612 c 0
 30 1624 26 1632 -17 1675 c 1
 -9 1679 l 1
 28 1645 40 1638 50 1638 c 0
 91 1638 122 1661 159 1661 c 2
 503 1661 l 2
 523 1661 536 1663 560 1718 c 1
 575 1710 l 1
 562 1679 556 1663 556 1653 c 0
 556 1645 560 1638 566 1630 c 2
 599 1589 l 1
 603 1579 609 1575 622 1575 c 0
 632 1575 648 1579 673 1587 c 1
 679 1571 l 1
 624 1550 620 1542 620 1522 c 2
 620 1520 l 2
 620 1516 622 1513 626 1509 c 0
 728 1382 859 1133 882 971 c 1
 887 961 895 952 904 952 c 0
 915 952 929 958 953 967 c 1
 962 948 l 1
 919 932 910 922 910 909 c 0
 910 868 947 780 978 780 c 0
 990 780 1005 786 1025 799 c 1
 1039 778 l 1
 1005 760 992 750 992 737 c 1
 994 731 1003 729 1009 729 c 0
 1037 729 1046 793 1058 838 c 1
 1066 985 1175 1118 1216 1262 c 0
 1218 1266 1218 1270 1218 1274 c 0
 1218 1286 1207 1296 1168 1313 c 1
 1175 1331 l 1
 1197 1323 1209 1319 1220 1319 c 0
 1252 1319 1310 1513 1310 1559 c 0
 1310 1573 1302 1587 1267 1620 c 1
 1279 1630 l 1
 1310 1599 1326 1593 1338 1593 c 0
 1343 1593 1347 1593 1353 1595 c 1
 1377 1597 l 1
 1390 1602 1400 1606 1400 1636 c 0
 1400 1645 1398 1655 1398 1665 c 1
 1414 1667 l 1
 1420 1610 1429 1608 1447 1608 c 0
 1578 1602 1717 1579 1840 1530 c 1
 1846 1526 1855 1524 1869 1524 c 0
 1881 1524 1902 1528 1930 1532 c 1
 1932 1522 l 1
 1860 1506 1862 1500 1838 1470 c 0
 1832 1464 1828 1458 1828 1446 c 0
 1828 1434 1830 1417 1840 1391 c 1
 1826 1384 l 1
 1805 1440 1797 1448 1779 1452 c 1
 1756 1454 l 1
 1691 1448 l 2
 1687 1448 1680 1446 1676 1440 c 2
 1652 1409 l 1
 1648 1407 1646 1401 1646 1399 c 2
 1646 1237 l 2
 1646 1233 1683 1217 1740 1192 c 1
 1730 1163 l 1
 1678 1182 1644 1192 1642 1192 c 0
 1625 1192 1623 1184 1623 1171 c 2
 1625 1012 l 2
 1625 977 1619 942 1597 913 c 1
 1592 909 1592 907 1592 901 c 0
 1586 793 1570 684 1570 573 c 1
 1576 272 l 2
 1576 258 1576 250 1599 248 c 2
 1658 244 l 1
 1674 244 1687 248 1730 287 c 1
 1738 279 l 1
 1693 240 1691 225 1691 209 c 2
 1691 195 l 2
 1691 184 1691 178 1748 158 c 1
 1742 147 l 1
 1711 160 1697 164 1689 164 c 0
 1683 164 1678 162 1674 160 c 1
 1674 158 l 1
 1672 154 1668 152 1668 143 c 0
 1668 135 1676 119 1685 88 c 1
 1674 84 l 1
 1656 141 1650 143 1640 143 c 2
 1336 168 l 1
 1293 168 l 2
 1248 168 1203 160 1189 80 c 1
 1179 82 l 1
 1183 109 1185 123 1185 133 c 0
 1185 147 1181 154 1175 160 c 1
 1173 160 l 1
 1168 164 1160 170 1138 170 c 0
 1128 170 1115 168 1095 166 c 1
 1095 176 l 1
 1167 183 1163 189 1181 215 c 1
 1185 223 1189 227 1189 238 c 0
 1189 246 1183 262 1166 291 c 1
 1179 303 l 1
 1205 258 1216 250 1232 250 c 1
 1232 250 1236 252 1238 252 c 2
 1275 260 l 1
 1283 264 1287 270 1289 279 c 2
 1306 393 l 1
 1295 420 1295 428 1232 442 c 1
 1234 459 l 1
 1255 453 1269 453 1279 453 c 0
 1304 453 1316 461 1316 475 c 2
 1310 1112 l 2
 1310 1139 1293 1153 1277 1153 c 0
 1238 1153 1203 1012 1203 965 c 0
 1203 950 1214 942 1259 930 c 1
 1255 909 l 1
 1234 915 1222 918 1212 918 c 0
 1193 918 1189 909 1185 897 c 2
 1138 725 l 1
 1138 721 1136 715 1136 713 c 0
 1136 698 1146 684 1189 666 c 1
 1181 647 l 1
 1154 657 1140 664 1128 664 c 0
 1025 664 1044 301 1009 213 c 1
 1005 207 1003 201 1003 193 c 0
 1003 176 1007 160 1015 127 c 1
 1009 127 l 1
 987 189 980 189 962 207 c 0
 960 209 953 209 945 209 c 0
 935 209 919 207 888 190 c 1
 882 203 l 1
 933 229 937 240 937 256 c 2
 937 260 l 2
 937 276 927 283 915 283 c 0
 902 283 886 276 857 262 c 1
 851 276 l 1
 900 301 906 311 908 326 c 1
 902 338 l 1
 804 461 790 647 714 793 c 0
 710 801 706 807 693 807 c 0
 685 807 671 805 646 793 c 1
 638 809 l 1
 677 825 685 836 685 846 c 0
 685 909 603 977 583 1057 c 1
 583 1057 521 1159 513 1159 c 0
 503 1159 491 1067 491 1018 c 0
 491 975 478 829 466 819 c 1
 495 786 501 743 501 698 c 0
 501 676 497 651 495 631 c 0
 495 627 495 623 497 618 c 0
 519 567 527 305 564 305 c 2
 624 305 l 2
 642 305 654 309 685 358 c 1
 700 350 l 1
 681 317 673 303 673 289 c 0
 673 276 680 265 685 256 c 0
 691 244 697 240 755 225 c 1
 753 217 l 1
 722 223 706 223 700 223 c 0
 677 223 677 223 677 217 c 1
 672 212 669 210 669 201 c 0
 669 193 673 176 687 145 c 1
 675 143 l 1
 656 190 646 195 638 195 c 0
 560 195 288 139 288 113 c 0
 288 94 294 80 333 39 c 1
 327 31 l 1
 284 72 271 78 251 78 c 0
 237 78 192 74 165 10 c 1
 147 12 l 1
 190 106 l 1
 190 123 185 131 132 154 c 1
 136 168 l 1
 165 158 179 154 190 154 c 0
 202 154 210 160 210 170 c 0
 210 178 204 193 179 217 c 1
 196 231 l 1
 218 207 233 195 241 195 c 0
 249 195 255 201 261 207 c 1
 329 256 333 317 333 397 c 0
 333 434 325 471 325 508 c 0
 325 518 327 524 327 535 c 0
 327 539 325 541 323 545 c 0
 298 580 288 627 288 676 c 0
 288 698 290 727 294 750 c 1
 294 752 l 1
 290 864 288 1401 243 1493 c 1
 202 1532 l 1
 198 1534 192 1536 188 1536 c 2
 110 1536 l 2
 91 1536 81 1532 61 1481 c 1
 46 1485 l 1
 61 1513 63 1530 63 1538 c 0
261 1485 m 2
 251 1485 l 1
 253 1483 255 1483 257 1483 c 2
 257 1483 259 1485 261 1485 c 2
EndSplineSet
EndChar

StartChar: n
Encoding: 110 110 38
Width: 1633
Flags: MW
LayerCount: 2
Fore
SplineSet
211 -82 m 0
 211 -64 192 -49 174 -49 c 0
 162 -49 142 -55 103 -70 c 1
 97 -59 l 1
 166 -31 172 -23 174 -8 c 1
 193 78 254 111 344 123 c 0
 381 127 381 201 381 248 c 0
 381 254 381 258 379 262 c 1
 377 262 l 1
 369 274 363 285 340 285 c 0
 338 285 314 283 273 281 c 1
 271 305 l 1
 324 311 357 315 357 319 c 0
 365 408 365 502 365 586 c 0
 365 602 365 616 363 633 c 1
 297 604 l 1
 291 629 l 1
 361 662 l 1
 350 758 314 834 207 913 c 1
 211 922 l 1
 260 887 281 874 301 868 c 1
 318 870 330 887 330 905 c 2
 322 1055 l 1
 307 1118 185 1188 131 1188 c 0
 111 1188 92 1176 64 1139 c 1
 33 1163 l 1
 56 1194 66 1214 66 1231 c 0
 66 1247 58 1260 47 1276 c 2
 23 1311 l 1
 11 1331 -4 1346 -69 1380 c 1
 -63 1391 l 1
 2 1358 23 1354 45 1354 c 1
 86 1356 l 2
 88 1356 88 1358 90 1358 c 0
 195 1382 301 1409 406 1415 c 1
 424 1415 434 1419 449 1491 c 1
 467 1487 l 1
 461 1460 459 1442 459 1430 c 0
 459 1403 469 1404 484 1397 c 0
 488 1395 494 1393 500 1393 c 0
 512 1393 531 1401 572 1432 c 1
 582 1417 l 1
 535 1380 525 1366 525 1352 c 0
 525 1348 525 1346 527 1341 c 1
 527 1335 l 1
 537 1300 662 1198 701 1198 c 0
 717 1198 735 1208 772 1243 c 1
 789 1225 l 1
 752 1188 740 1169 740 1153 c 0
 740 1147 742 1141 746 1133 c 1
 744 1135 l 1
 746 1130 748 1128 752 1126 c 0
 826 1067 910 1010 934 909 c 1
 993 831 1058 758 1121 684 c 0
 1127 676 1131 670 1139 668 c 1
 1071 803 l 1
 1082 791 1098 788 1116 788 c 0
 1145 788 1170 809 1170 842 c 2
 1170 868 l 2
 1170 936 1209 985 1209 1059 c 2
 1209 1116 l 2
 1209 1171 1207 1235 1184 1245 c 2
 1141 1264 l 1
 1078 1282 l 2
 1071 1284 1065 1286 1061 1286 c 0
 1047 1286 1035 1274 1010 1227 c 1
 989 1237 l 1
 1006 1270 1014 1288 1014 1300 c 0
 1014 1311 1006 1317 998 1325 c 1
 869 1427 l 2
 850 1442 832 1452 764 1483 c 1
 766 1487 l 1
 834 1458 854 1452 879 1450 c 1
 1045 1425 1217 1415 1385 1415 c 0
 1407 1415 1430 1427 1436 1495 c 1
 1460 1493 l 1
 1458 1481 1458 1468 1458 1460 c 0
 1458 1411 1476 1415 1506 1411 c 1
 1645 1411 1585 1298 1702 1190 c 1
 1692 1180 l 1
 1639 1229 1620 1237 1596 1241 c 1
 1557 1245 l 1
 1563 1196 1571 1190 1600 1137 c 1
 1590 1130 l 1
 1524 1243 1487 1237 1452 1237 c 0
 1385 1237 1366 1036 1366 1026 c 0
 1366 1010 1368 993 1368 977 c 0
 1366 756 1319 532 1301 309 c 1
 1284 123 l 2
 1284 119 1334 90 1405 53 c 1
 1387 29 l 1
 1325 57 1282 78 1278 78 c 0
 1265 78 1259 70 1254 61 c 0
 1250 55 1245 51 1245 43 c 0
 1245 31 1252 12 1272 -27 c 1
 1258 -33 l 1
 1227 35 1217 37 1202 37 c 2
 1194 37 l 2
 1178 37 1170 33 1133 -31 c 1
 1121 -25 l 1
 1145 18 1151 37 1151 47 c 0
 1151 94 1053 219 1024 219 c 0
 1012 219 996 209 967 188 c 1
 955 203 l 1
 994 233 1004 248 1004 260 c 2
 1004 262 l 1
 1000 266 994 268 985 268 c 0
 975 268 957 264 926 250 c 1
 920 268 l 1
 971 291 981 303 981 315 c 0
 981 319 981 324 979 328 c 1
 979 326 l 1
 973 336 l 1
 955 352 l 2
 948 358 942 362 934 362 c 0
 922 362 905 352 873 326 c 1
 858 342 l 1
 893 373 903 389 903 399 c 0
 903 408 899 414 895 420 c 0
 819 532 752 647 664 739 c 1
 656 745 652 752 641 752 c 0
 637 752 588 729 516 698 c 1
 529 555 537 399 537 354 c 2
 537 330 l 2
 537 223 574 213 666 213 c 1
 684 215 695 217 717 287 c 1
 733 283 l 1
 723 250 719 231 719 219 c 0
 719 203 725 199 733 193 c 1
 738 185 747 182 756 182 c 0
 768 182 787 190 826 213 c 1
 834 199 l 1
 783 166 770 154 770 141 c 0
 770 137 772 135 772 131 c 2
 776 106 l 2
 779 86 787 74 854 45 c 1
 846 29 l 1
 807 45 787 51 772 51 c 0
 759 51 750 45 744 39 c 1
 733 33 727 27 727 10 c 0
 727 -4 731 -23 740 -51 c 1
 719 -57 l 1
 699 14 688 16 666 16 c 2
 602 18 l 2
 537 20 318 10 318 -78 c 0
 318 -92 324 -111 336 -141 c 1
 316 -150 l 1
 289 -82 275 -78 252 -78 c 0
 240 -78 230 -88 211 -152 c 1
 197 -145 l 1
 207 -113 211 -94 211 -82 c 0
619 791 m 0
 619 809 551 899 535 899 c 0
 518 899 502 866 502 831 c 0
 502 827 504 821 504 817 c 2
 512 735 l 1
 576 766 619 786 619 791 c 0
EndSplineSet
EndChar

StartChar: o
Encoding: 111 111 39
Width: 1419
Flags: MW
LayerCount: 2
Fore
SplineSet
959 231 m 0
 937 231 922 223 922 195 c 0
 922 193 926 170 932 137 c 1
 895 137 l 1
 883 184 873 215 869 215 c 2
 486 217 l 2
 463 217 438 211 367 197 c 1
 365 209 l 1
 432 221 455 227 455 229 c 1
 465 233 473 244 473 254 c 0
 473 287 426 313 404 324 c 1
 352 338 l 2
 297 352 238 348 213 393 c 2
 158 489 l 2
 105 582 62 733 19 733 c 2
 -61 733 l 1
 -63 784 l 1
 -2 788 37 795 37 801 c 2
 41 942 l 2
 41 954 39 963 -26 999 c 1
 -20 1010 l 1
 23 985 41 979 51 979 c 0
 62 979 64 993 64 1004 c 1
 59 1046 58 1055 -18 1090 c 1
 -10 1108 l 1
 27 1092 47 1085 64 1085 c 0
 195 1085 232 1386 416 1423 c 1
 453 1438 l 2
 461 1442 465 1444 465 1458 c 0
 465 1468 463 1487 455 1518 c 1
 471 1522 l 1
 488 1460 496 1452 506 1452 c 1
 555 1458 l 2
 563 1458 570 1465 576 1468 c 0
 586 1475 592 1481 592 1497 c 0
 592 1509 588 1530 578 1561 c 1
 600 1569 l 1
 621 1507 631 1497 651 1497 c 2
 832 1501 l 1
 856 1503 928 1620 959 1688 c 1
 979 1679 l 1
 963 1642 897 1507 897 1493 c 0
 897 1483 901 1475 907 1466 c 1
 909 1466 l 1
 944 1430 1063 1350 1145 1350 c 0
 1161 1350 1176 1360 1208 1407 c 1
 1227 1395 l 1
 1202 1358 1194 1339 1194 1325 c 0
 1194 1298 1256 1241 1286 1241 c 0
 1301 1241 1319 1251 1354 1278 c 1
 1364 1264 l 1
 1319 1229 1309 1214 1309 1202 c 2
 1309 1196 l 1
 1311 1190 1313 1186 1317 1182 c 0
 1387 1122 1378 1004 1401 926 c 1
 1405 926 1438 932 1489 938 c 1
 1493 905 l 1
 1407 893 l 1
 1407 893 1397 834 1397 793 c 1
 1393 659 1342 571 1251 477 c 1
 1129 356 l 2
 1125 352 1122 346 1122 342 c 0
 1122 315 1131 297 1190 252 c 1
 1180 240 l 1
 1129 279 1110 285 1090 285 c 1
 1077 283 l 2
 1073 283 1073 283 1071 281 c 1
 1018 258 l 2
 1008 254 1002 250 1002 238 c 0
 1002 227 1006 209 1020 176 c 1
 1002 170 l 1
 979 221 969 231 959 231 c 0
651 365 m 1
 686 360 728 350 768 350 c 0
 780 350 793 352 803 352 c 0
 815 352 826 350 836 350 c 0
 844 350 852 350 858 356 c 2
 881 377 l 2
 940 430 1006 518 1006 596 c 0
 1006 629 989 649 946 678 c 1
 998 758 l 1
 1020 743 1036 735 1057 735 c 0
 1086 735 1084 750 1084 766 c 2
 1086 930 l 1
 1077 1053 975 1321 832 1352 c 1
 823 1352 l 1
 774 1341 735 1337 696 1337 c 0
 674 1337 653 1341 631 1341 c 0
 627 1341 623 1339 619 1337 c 0
 516 1266 381 1122 381 979 c 0
 381 846 445 733 481 584 c 1
 486 575 l 1
 516 535 535 461 561 449 c 1
 590 434 610 410 629 385 c 1
 703 401 l 1
 705 397 l 1
 674 381 660 371 651 365 c 1
1311 1190 m 1
 1309 1192 1309 1194 1309 1196 c 2
 1311 1190 l 1
EndSplineSet
EndChar

StartChar: p
Encoding: 112 112 40
Width: 1451
Flags: MW
LayerCount: 2
Fore
SplineSet
83 -137 m 5
 163 -110 156 -101 163 -72 c 5
 163 -47 161 -31 114 29 c 5
 128 39 l 5
 173 -18 189 -27 214 -31 c 5
 218 -31 l 6
 224 -31 228 -31 232 -27 c 5
 264 -8 295 12 327 31 c 5
 346 57 357 89 357 115 c 5
 345 150 l 5
 296 248 286 365 286 489 c 4
 286 543 290 598 290 655 c 4
 290 672 279 680 216 690 c 5
 222 713 l 5
 243 709 257 707 269 707 c 4
 296 707 298 717 302 731 c 5
 329 805 355 918 363 991 c 4
 363 997 361 1001 359 1008 c 5
 343 1028 l 5
 335 1040 329 1047 314 1049 c 5
 300 1049 279 1044 247 1036 c 5
 241 1057 l 5
 312 1077 316 1090 318 1114 c 6
 337 1323 l 5
 337 1352 327 1364 306 1364 c 4
 284 1364 273 1348 273 1315 c 4
 273 1305 275 1294 277 1280 c 5
 255 1276 l 5
 247 1339 236 1350 218 1352 c 5
 128 1354 l 6
 101 1354 89 1350 48 1290 c 5
 34 1300 l 5
 56 1335 64 1358 66 1372 c 5
 66 1382 66 1391 62 1399 c 6
 52 1419 l 5
 44 1440 32 1452 -40 1468 c 5
 -36 1487 l 5
 -7 1481 11 1477 30 1477 c 4
 50 1477 58 1485 71 1493 c 5
 83 1505 93 1511 93 1540 c 4
 93 1552 91 1571 85 1599 c 5
 101 1604 l 5
 118 1530 130 1524 150 1518 c 5
 153 1518 l 6
 161 1518 167 1516 175 1516 c 4
 236 1516 290 1536 359 1546 c 5
 372 1546 380 1548 382 1573 c 4
 382 1583 382 1599 380 1624 c 5
 400 1626 l 5
 404 1559 421 1544 435 1544 c 4
 480 1544 521 1554 554 1554 c 5
 564 1552 l 5
 591 1552 622 1561 652 1561 c 4
 746 1561 828 1554 900 1524 c 5
 904 1524 l 5
 961 1511 1017 1507 1084 1507 c 4
 1105 1507 1117 1513 1144 1579 c 5
 1164 1571 l 5
 1150 1538 1146 1522 1146 1507 c 4
 1146 1448 1287 1382 1301 1372 c 4
 1308 1368 1314 1366 1322 1366 c 4
 1334 1366 1353 1374 1385 1403 c 5
 1402 1389 l 5
 1357 1352 1351 1339 1351 1325 c 4
 1351 1319 1353 1313 1357 1309 c 5
 1373 1272 l 6
 1375 1268 1379 1264 1383 1262 c 4
 1414 1237 1428 1151 1428 1079 c 4
 1428 1001 1414 975 1414 954 c 4
 1414 936 1424 918 1492 889 c 5
 1484 872 l 5
 1453 883 1433 889 1420 891 c 5
 1404 891 1398 887 1390 879 c 6
 1351 838 l 5
 1316 782 1340 754 1265 733 c 5
 1211 696 l 5
 1199 690 1191 682 1189 666 c 5
 1189 653 1191 633 1201 600 c 5
 1179 592 l 5
 1154 670 1138 666 1105 666 c 4
 1054 666 1000 647 972 637 c 4
 918 618 873 606 812 606 c 4
 791 606 777 602 736 543 c 5
 720 553 l 5
 746 588 757 608 759 625 c 4
 759 629 759 633 757 637 c 5
 757 639 l 5
 753 645 744 653 736 653 c 6
 685 659 l 5
 665 659 648 651 646 629 c 6
 595 113 l 5
 595 66 677 74 716 72 c 5
 722 72 l 6
 724 72 728 70 730 70 c 4
 748 70 767 84 808 123 c 5
 822 109 l 5
 773 61 763 43 763 23 c 4
 763 20 765 20 765 18 c 6
 765 10 l 5
 767 4 767 0 771 -4 c 6
 808 -51 l 5
 822 -72 841 -84 904 -121 c 5
 900 -129 l 5
 834 -92 816 -84 791 -82 c 5
 689 -66 l 5
 662 -66 652 -104 652 -129 c 4
 652 -147 656 -172 662 -211 c 5
 652 -215 l 5
 636 -143 626 -123 609 -106 c 6
 589 -86 l 5
 583 -76 574 -76 566 -76 c 4
 523 -76 480 -113 480 -141 c 4
 480 -154 484 -170 488 -190 c 5
 470 -195 l 5
 452 -106 437 -115 400 -115 c 4
 392 -115 382 -117 378 -121 c 6
 329 -168 l 5
 318 -174 316 -178 316 -193 c 4
 316 -207 320 -225 333 -258 c 5
 316 -264 l 5
 292 -195 282 -190 265 -188 c 5
 259 -190 l 5
 239 -190 230 -188 202 -258 c 5
 183 -250 l 5
 202 -215 206 -195 206 -182 c 4
 206 -167 196 -160 189 -152 c 5
 179 -143 173 -139 157 -139 c 4
 142 -139 122 -143 93 -158 c 5
 83 -137 l 5
1019 1253 m 5
 984 1355 895 1374 802 1397 c 5
 789 1395 779 1393 769 1393 c 4
 753 1393 740 1399 730 1399 c 4
 714 1399 699 1389 695 1372 c 5
 634 963 l 5
 652 977 671 993 671 993 c 5
 675 993 l 5
 640 926 640 920 640 913 c 4
 642 887 656 836 669 803 c 5
 673 784 683 782 708 782 c 4
 771 782 841 807 841 852 c 4
 841 864 834 879 828 901 c 5
 853 911 l 5
 880 850 902 852 902 850 c 5
 1007 883 1080 1004 1080 1145 c 4
 1080 1147 1078 1151 1076 1155 c 5
 1033 1200 l 5
 1019 1200 1004 1194 970 1176 c 5
 959 1192 l 5
 1007 1217 1019 1229 1021 1239 c 5
 1021 1245 1019 1249 1019 1253 c 5
1041 1200 m 5
 1052 1188 l 5
 1054 1190 l 5
 1050 1194 1045 1198 1041 1200 c 5
EndSplineSet
EndChar

StartChar: s
Encoding: 115 115 41
Width: 1619
Flags: MW
LayerCount: 2
Fore
SplineSet
1047 373 m 1
 1047 389 1021 406 1010 406 c 0
 992 406 974 375 947 297 c 1
 937 301 l 1
 963 371 963 389 963 416 c 1
 957 457 l 2
 957 463 955 467 953 471 c 1
 916 512 l 2
 912 516 908 518 902 520 c 1
 865 526 l 2
 861 526 855 528 851 528 c 0
 836 528 826 516 810 461 c 1
 787 469 l 1
 795 496 800 514 800 524 c 0
 800 543 791 547 777 553 c 1
 664 625 l 1
 658 627 652 627 644 627 c 0
 630 627 615 625 601 625 c 0
 562 625 525 639 492 657 c 0
 488 659 484 662 480 662 c 0
 267 666 150 825 48 989 c 0
 42 999 36 1006 17 1006 c 0
 15 1006 -11 1001 -52 991 c 1
 -67 1030 l 1
 -7 1047 29 1061 29 1065 c 0
 34 1112 34 1188 42 1208 c 1
 70 1292 l 2
 83 1331 134 1399 134 1407 c 0
 134 1417 126 1434 103 1473 c 1
 115 1481 l 1
 146 1434 159 1423 169 1423 c 0
 173 1423 175 1423 179 1425 c 2
 216 1438 l 1
 261 1472 361 1572 361 1606 c 0
 361 1620 355 1640 343 1675 c 1
 361 1681 l 1
 394 1597 408 1602 439 1602 c 0
 447 1602 464 1618 464 1630 c 0
 464 1640 455 1659 431 1702 c 1
 439 1708 l 1
 476 1642 482 1640 492 1638 c 1
 562 1634 l 2
 595 1632 648 1647 648 1692 c 0
 648 1702 646 1718 642 1737 c 1
 675 1743 l 1
 687 1679 703 1669 730 1669 c 2
 908 1673 l 2
 939 1673 955 1679 978 1749 c 1
 1006 1741 l 1
 996 1714 992 1696 992 1681 c 0
 992 1616 1109 1612 1158 1573 c 1
 1158 1573 1234 1524 1248 1524 c 0
 1289 1524 1287 1550 1287 1552 c 0
 1287 1565 1277 1581 1236 1614 c 1
 1248 1628 l 1
 1283 1599 1301 1589 1312 1589 c 0
 1338 1589 1379 1634 1422 1634 c 0
 1482 1634 1492 1583 1492 1536 c 2
 1492 1516 l 2
 1492 1491 1492 1481 1563 1458 c 1
 1557 1438 l 1
 1527 1448 1508 1452 1496 1452 c 0
 1422 1452 1410 1223 1410 1141 c 1
 1412 1118 1416 1104 1486 1079 c 1
 1477 1061 l 1
 1447 1071 1426 1075 1414 1075 c 0
 1375 1075 1320 987 1320 961 c 0
 1320 944 1324 924 1330 895 c 1
 1307 891 l 1
 1291 963 1277 977 1252 987 c 0
 1174 1020 1158 1094 1158 1178 c 0
 1158 1186 1109 1315 1105 1321 c 1
 972 1438 l 1
 955 1448 941 1462 941 1487 c 1
 937 1487 935 1485 931 1485 c 0
 914 1485 902 1495 892 1501 c 1
 922 1477 935 1464 935 1458 c 0
 935 1454 933 1454 927 1454 c 0
 906 1454 855 1475 830 1475 c 0
 814 1475 800 1464 773 1415 c 1
 757 1425 l 1
 777 1460 783 1479 783 1491 c 0
 783 1503 777 1511 765 1511 c 0
 711 1511 617 1464 617 1430 c 0
 617 1417 623 1399 638 1368 c 1
 617 1360 l 1
 593 1413 580 1423 564 1423 c 0
 560 1423 556 1421 552 1421 c 1
 498 1407 l 1
 488 1401 l 1
 455 1364 382 1311 382 1296 c 0
 382 1243 388 1182 388 1130 c 0
 388 1098 476 1077 523 1044 c 0
 525 1042 527 1040 531 1040 c 0
 539 1038 548 1036 556 1036 c 0
 572 1036 584 1047 601 1102 c 1
 627 1094 l 1
 619 1069 615 1051 615 1040 c 0
 615 1016 662 985 691 985 c 1
 732 981 l 1
 752 981 765 983 791 1051 c 1
 810 1042 l 1
 795 1008 789 989 789 977 c 0
 789 942 845 946 875 946 c 0
 890 946 904 954 939 1012 c 1
 953 1001 l 1
 929 961 920 942 920 930 c 0
 920 911 941 891 955 891 c 0
 1117 887 1197 750 1295 653 c 0
 1336 612 1357 401 1367 289 c 0
 1367 285 1391 272 1434 250 c 1
 1439 201 l 1
 1389 221 1359 236 1357 236 c 0
 1350 236 1345 234 1340 231 c 1
 1342 231 l 1
 1336 227 1334 221 1332 213 c 1
 1332 195 l 2
 1332 170 1334 158 1404 129 c 1
 1395 109 l 1
 1361 123 1340 129 1328 129 c 0
 1293 129 1195 -16 1195 -45 c 0
 1195 -59 1207 -76 1240 -109 c 1
 1226 -125 l 1
 1191 -92 1172 -82 1160 -82 c 0
 1142 -82 1121 -100 1107 -106 c 1
 1034 -167 922 -190 828 -190 c 1
 681 -184 l 2
 675 -184 673 -184 652 -256 c 1
 648 -254 l 1
 658 -209 662 -193 662 -184 c 0
 662 -182 662 -180 660 -178 c 1
 652 -178 l 1
 566 -176 480 -160 398 -160 c 0
 367 -160 353 -174 353 -244 c 1
 339 -246 l 1
 337 -168 328 -170 312 -170 c 0
 302 -170 290 -178 263 -238 c 1
 251 -231 l 1
 269 -195 275 -174 275 -164 c 0
 275 -131 191 -74 191 -23 c 2
 191 86 l 2
 191 186 193 293 210 393 c 1
 210 401 214 403 142 426 c 1
 144 436 l 1
 183 424 202 420 210 420 c 0
 220 420 220 425 222 432 c 0
 222 434 224 436 224 438 c 0
 224 446 216 461 187 508 c 1
 193 512 l 1
 234 451 240 449 249 449 c 2
 335 449 l 2
 347 449 357 451 410 502 c 1
 415 498 l 1
 361 446 359 436 359 424 c 2
 357 397 l 2
 357 389 355 381 355 371 c 0
 355 317 363 236 380 221 c 1
 412 188 431 121 445 113 c 0
 476 94 496 63 505 29 c 0
 507 23 509 18 513 14 c 2
 552 -14 l 1
 797 -49 l 2
 800 -49 802 -51 802 -51 c 1
 820 -51 908 -4 904 -8 c 1
 937 27 970 25 970 76 c 0
 970 92 963 115 937 154 c 1
 945 160 l 1
 970 125 986 109 990 102 c 1
 1004 113 1021 150 1021 160 c 0
 1021 176 1006 186 970 211 c 1
 974 219 l 1
 1015 193 1029 186 1037 186 c 0
 1049 186 1068 268 1068 295 c 0
 1068 303 1066 311 1064 322 c 1
 1047 373 l 1
EndSplineSet
EndChar

StartChar: D
Encoding: 68 68 42
Width: 1377
Flags: MW
LayerCount: 2
Fore
SplineSet
209 43 m 1
 186 51 l 1
 203 117 l 1
 203 156 231 195 231 231 c 0
 231 246 221 258 172 285 c 1
 184 303 l 1
 217 285 235 279 248 279 c 0
 258 279 264 285 272 293 c 1
 293 322 l 2
 297 326 297 330 297 336 c 0
 297 340 297 344 295 348 c 0
 264 420 254 549 254 621 c 0
 254 645 244 666 244 692 c 0
 244 696 246 705 246 709 c 0
 246 715 244 719 242 723 c 0
 219 758 211 799 211 838 c 0
 211 918 240 995 260 1071 c 1
 260 1077 260 1083 258 1090 c 1
 248 1108 l 2
 240 1122 231 1133 201 1133 c 0
 188 1133 174 1130 154 1128 c 1
 151 1151 l 1
 223 1161 229 1174 235 1196 c 1
 242 1231 246 1264 246 1298 c 0
 246 1346 223 1460 176 1460 c 0
 172 1460 168 1460 164 1458 c 2
 76 1421 l 2
 53 1411 35 1399 -14 1343 c 1
 -23 1352 l 1
 27 1405 39 1425 45 1450 c 1
 65 1513 151 1563 151 1602 c 0
 151 1616 147 1636 137 1669 c 1
 156 1675 l 1
 180 1606 192 1599 215 1597 c 0
 268 1591 321 1591 381 1571 c 1
 659 1497 911 1458 1151 1309 c 0
 1157 1305 1163 1303 1171 1303 c 0
 1186 1303 1204 1309 1243 1335 c 1
 1253 1319 l 1
 1202 1286 1190 1274 1190 1257 c 0
 1190 1229 1249 1204 1264 1169 c 1
 1272 1145 1329 1114 1378 1114 c 0
 1393 1114 1413 1116 1442 1120 c 1
 1444 1108 l 1
 1363 1097 1354 1088 1333 1067 c 0
 1327 1061 1325 1055 1325 1047 c 0
 1325 1040 1327 1034 1329 1030 c 0
 1370 956 1378 860 1378 780 c 0
 1378 467 991 307 991 18 c 1
 975 20 l 1
 979 88 l 1
 979 160 975 223 932 223 c 1
 868 211 l 1
 797 188 717 207 657 154 c 1
 651 129 l 1
 651 135 651 141 649 147 c 1
 639 139 629 127 614 113 c 1
 606 119 l 1
 623 137 635 150 643 162 c 1
 635 178 623 190 623 190 c 1
 608 188 598 186 584 113 c 1
 569 117 l 1
 575 145 577 164 577 176 c 0
 577 213 518 221 491 221 c 0
 340 221 209 143 209 43 c 1
489 346 m 1
 496 350 l 1
 539 350 543 381 543 444 c 1
 565 444 l 1
 568 387 577 372 592 365 c 1
 616 365 633 391 661 391 c 0
 676 391 696 383 709 383 c 0
 721 383 731 391 737 403 c 0
 768 465 901 500 901 557 c 0
 901 571 889 588 860 616 c 1
 881 639 l 1
 909 610 928 600 940 600 c 0
 952 600 960 606 971 616 c 2
 989 633 l 2
 993 637 995 641 997 647 c 0
 1008 702 1003 713 1053 733 c 0
 1061 737 1065 743 1067 754 c 2
 1079 817 l 1
 1079 823 1079 827 1077 834 c 1
 1057 868 1061 981 1020 981 c 0
 1010 981 991 971 944 958 c 1
 926 1028 l 1
 965 1038 987 1038 1001 1075 c 1
 1001 1077 l 1
 932 1212 774 1362 631 1362 c 0
 616 1362 604 1360 604 1343 c 0
 604 1331 608 1315 608 1315 c 1
 608 1278 584 1188 569 1124 c 1
 567 1120 567 1116 567 1112 c 0
 567 1098 577 1085 629 1059 c 1
 618 1042 l 1
 584 1061 563 1067 553 1067 c 0
 526 1067 508 1022 508 1001 c 0
 508 983 510 956 555 956 c 0
 565 956 580 956 600 958 c 1
 602 946 l 1
 528 938 524 932 522 918 c 1
 481 741 l 2
 481 739 479 737 479 735 c 0
 479 725 496 698 496 678 c 0
 496 645 477 616 477 584 c 0
 477 541 489 504 489 459 c 0
 489 446 475 399 475 389 c 0
 475 362 479 346 489 346 c 1
EndSplineSet
EndChar

StartChar: q
Encoding: 113 113 43
Width: 1948
Flags: MW
LayerCount: 2
Fore
SplineSet
74 698 m 2
 74 932 l 2
 74 1012 109 1083 109 1167 c 0
 109 1264 171 1403 214 1503 c 0
 216 1509 218 1516 218 1522 c 0
 218 1536 209 1556 179 1597 c 1
 193 1608 l 1
 234 1552 248 1546 265 1546 c 1
 277 1550 283 1571 298 1571 c 0
 304 1571 308 1565 308 1565 c 1
 343 1597 l 1
 338 1616 326 1632 275 1665 c 1
 285 1681 l 1
 326 1653 347 1647 361 1647 c 0
 398 1647 486 1712 504 1712 c 1
 504 1808 l 1
 525 1817 l 1
 549 1745 562 1743 586 1743 c 2
 730 1743 l 2
 746 1743 754 1755 754 1782 c 0
 754 1796 752 1817 746 1845 c 1
 764 1849 l 1
 783 1778 793 1767 814 1759 c 1
 846 1759 885 1735 916 1735 c 0
 943 1735 953 1747 977 1800 c 1
 990 1794 l 1
 967 1747 963 1733 963 1722 c 0
 963 1716 965 1712 988 1712 c 2
 996 1712 l 2
 1037 1712 1086 1683 1131 1661 c 0
 1137 1657 1143 1655 1149 1655 c 0
 1162 1655 1176 1667 1205 1708 c 1
 1223 1696 l 1
 1199 1663 1190 1645 1190 1632 c 0
 1190 1587 1391 1491 1453 1434 c 0
 1457 1430 1463 1425 1469 1425 c 0
 1479 1425 1494 1436 1528 1466 c 1
 1541 1452 l 1
 1502 1421 1491 1407 1491 1397 c 0
 1491 1391 1494 1386 1498 1382 c 1
 1573 1272 l 1
 1596 1251 l 1
 1604 1241 1612 1235 1625 1235 c 0
 1639 1235 1659 1243 1692 1260 c 1
 1702 1239 l 1
 1649 1210 1639 1196 1639 1180 c 0
 1639 1176 1639 1169 1641 1165 c 1
 1659 1055 1727 954 1727 844 c 2
 1727 578 l 2
 1727 563 1707 543 1707 532 c 0
 1707 524 1711 514 1711 506 c 0
 1711 408 1612 283 1580 213 c 0
 1578 209 1578 207 1578 205 c 0
 1578 197 1588 186 1635 154 c 1
 1623 137 l 1
 1590 160 1573 170 1561 170 c 0
 1514 170 1512 78 1448 68 c 1
 1432 68 1379 0 1344 -18 c 0
 1328 -27 1317 -41 1317 -55 c 0
 1317 -100 1330 -170 1346 -170 c 2
 1354 -170 l 2
 1387 -170 1401 -166 1420 -94 c 1
 1451 -102 l 1
 1442 -123 1440 -141 1440 -152 c 0
 1440 -227 1578 -215 1639 -229 c 1
 1745 -240 l 1
 1768 -240 1782 -231 1803 -170 c 1
 1829 -178 l 1
 1819 -203 1817 -223 1817 -236 c 0
 1817 -299 1932 -303 1981 -303 c 0
 1993 -303 1999 -303 2003 -303 c 0
 2161 -303 2298 -311 2456 -311 c 0
 2462 -311 2468 -309 2472 -305 c 2
 2501 -281 l 2
 2509 -274 2515 -268 2515 -254 c 0
 2515 -242 2515 -221 2499 -188 c 1
 2518 -180 l 1
 2544 -250 2554 -254 2577 -254 c 2
 2585 -254 l 2
 2604 -254 2618 -250 2673 -201 c 1
 2681 -209 l 1
 2620 -264 2618 -276 2618 -299 c 0
 2618 -313 2626 -330 2673 -373 c 1
 2663 -385 l 1
 2618 -344 2599 -334 2585 -334 c 0
 2532 -334 2495 -369 2444 -369 c 2
 2421 -369 l 2
 2413 -369 2405 -387 2405 -393 c 0
 2405 -408 2413 -426 2432 -459 c 1
 2415 -469 l 1
 2386 -418 2374 -406 2358 -406 c 0
 2354 -406 2348 -408 2346 -408 c 2
 2343 -408 l 1
 2325 -412 2317 -414 2317 -440 c 0
 2317 -453 2319 -467 2323 -487 c 1
 2300 -492 l 1
 2290 -430 2284 -422 2268 -422 c 1
 2153 -451 l 1
 2075 -465 l 1
 2053 -465 2040 -471 2014 -539 c 1
 1995 -532 l 1
 2008 -500 2012 -479 2012 -465 c 0
 2012 -438 1999 -434 1987 -434 c 1
 1774 -465 l 1
 1745 -465 1731 -467 1719 -541 c 1
 1690 -535 l 1
 1694 -514 1696 -500 1696 -487 c 0
 1696 -430 1582 -422 1510 -401 c 1
 1510 -403 1508 -403 1504 -403 c 0
 1467 -403 1252 -350 1221 -344 c 1
 1215 -344 1211 -342 1207 -342 c 0
 1188 -342 1172 -352 1137 -403 c 1
 1119 -389 l 1
 1143 -354 1152 -334 1152 -319 c 0
 1152 -301 1145 -287 1127 -283 c 1
 975 -268 l 1
 957 -268 943 -283 918 -336 c 1
 900 -326 l 1
 914 -289 920 -268 920 -256 c 0
 920 -244 912 -236 912 -231 c 1
 889 -231 877 -233 855 -305 c 1
 834 -299 l 1
 834 -205 l 1
 689 -94 302 88 277 221 c 0
 275 229 271 236 265 240 c 0
 125 328 74 547 74 698 c 2
857 -86 m 0
 859 -86 861 -88 863 -88 c 0
 873 -88 887 -78 887 -49 c 0
 887 -37 887 -23 883 0 c 1
 906 4 l 1
 914 -68 941 -80 963 -80 c 0
 1166 -80 1250 -39 1322 158 c 0
 1324 164 1324 168 1324 172 c 0
 1324 184 1313 195 1262 215 c 1
 1270 236 l 1
 1352 236 l 1
 1408 360 1426 516 1426 659 c 0
 1426 750 1422 1325 1250 1432 c 1
 1244 1434 1238 1436 1231 1436 c 0
 1217 1436 1201 1425 1166 1386 c 1
 1149 1401 l 1
 1178 1436 1190 1454 1190 1468 c 0
 1190 1532 926 1620 797 1620 c 0
 375 1620 343 1155 343 928 c 0
 343 776 345 623 388 477 c 0
 410 403 476 373 476 301 c 0
 476 268 543 96 590 96 c 0
 603 96 621 104 652 121 c 1
 662 102 l 1
 613 74 603 61 603 51 c 0
 603 -39 789 -66 857 -86 c 0
EndSplineSet
EndChar

StartChar: r
Encoding: 114 114 44
Width: 1231
Flags: MW
LayerCount: 2
Fore
SplineSet
1024 57 m 1
 1024 87 1017 115 981 115 c 0
 964 115 946 106 907 80 c 1
 895 96 l 1
 944 131 956 147 956 166 c 0
 956 225 899 385 858 401 c 1
 788 451 700 686 553 795 c 1
 547 803 538 807 530 807 c 0
 491 807 483 727 479 682 c 2
 442 254 l 1
 442 233 594 152 618 152 c 0
 633 152 653 154 686 160 c 1
 690 143 l 1
 616 129 602 117 590 98 c 2
 565 59 l 2
 561 51 559 51 559 43 c 0
 559 31 569 12 594 -29 c 1
 581 -37 l 1
 544 16 532 25 518 25 c 0
 506 25 487 20 473 20 c 0
 436 20 399 61 379 61 c 1
 381 61 342 31 315 18 c 0
 288 6 276 0 276 -39 c 0
 276 -47 276 -61 278 -78 c 1
 258 -78 l 1
 252 -16 241 0 225 0 c 0
 209 0 190 -8 145 -43 c 1
 137 -31 l 1
 196 14 202 29 202 49 c 1
 207 104 l 2
 209 131 198 133 139 178 c 1
 151 199 l 1
 186 186 205 174 219 174 c 0
 245 174 280 215 280 240 c 2
 262 1221 l 1
 260 1221 252 1378 243 1384 c 2
 100 1485 l 2
 90 1491 80 1497 63 1497 c 0
 59 1497 26 1487 -19 1473 c 1
 -43 1497 l 1
 22 1524 73 1548 78 1556 c 1
 108 1628 l 2
 110 1634 112 1640 112 1647 c 0
 112 1663 104 1683 76 1726 c 1
 92 1739 l 1
 133 1677 147 1671 172 1671 c 2
 336 1671 l 2
 354 1671 368 1688 368 1708 c 0
 368 1722 364 1743 350 1776 c 1
 372 1784 l 1
 399 1714 413 1712 438 1712 c 0
 493 1714 557 1706 557 1823 c 1
 581 1825 l 1
 583 1733 620 1724 659 1724 c 0
 708 1724 784 1714 784 1819 c 1
 813 1819 l 1
 817 1675 915 1782 919 1679 c 0
 919 1673 921 1667 927 1661 c 0
 962 1624 985 1575 985 1524 c 0
 985 1360 948 1204 866 1065 c 1
 868 1061 942 1024 1044 975 c 1
 1030 950 l 1
 932 995 862 1026 858 1026 c 0
 819 1026 805 946 786 868 c 1
 774 829 l 1
 774 821 790 809 792 805 c 1
 880 735 999 455 1097 455 c 0
 1110 455 1130 459 1155 465 c 1
 1161 444 l 1
 1089 426 1085 416 1085 395 c 1
 1083 369 l 1
 1081 365 1081 362 1081 358 c 0
 1081 317 1136 258 1202 258 c 0
 1214 258 1233 264 1267 287 c 1
 1278 268 l 1
 1233 240 1222 227 1222 215 c 0
 1222 174 1280 123 1306 123 c 0
 1310 123 1337 127 1374 135 c 1
 1374 106 l 1
 1314 91 1286 90 1286 59 c 0
 1286 47 1294 27 1325 -16 c 1
 1315 -25 l 1
 1272 37 1259 41 1243 41 c 0
 1237 41 1233 39 1229 37 c 2
 1204 20 l 2
 1196 14 1173 -18 1149 -61 c 1
 1136 -53 l 1
 1167 16 l 1
 1161 31 1147 39 1130 39 c 2
 1061 35 l 1
 1040 35 1036 23 1032 4 c 1
 1020 -41 l 1
 1001 -41 l 1
 1024 57 l 1
479 1470 m 2
 479 1071 l 2
 479 1049 493 1032 514 1032 c 0
 520 1032 526 1034 534 1038 c 2
 569 1057 l 1
 592 1090 678 1106 678 1186 c 0
 678 1221 702 1253 702 1286 c 2
 702 1384 l 2
 702 1415 678 1440 678 1470 c 0
 678 1505 624 1538 620 1538 c 2
 522 1538 l 2
 491 1538 479 1475 479 1470 c 2
EndSplineSet
EndChar

StartChar: t
Encoding: 116 116 45
Width: 1598
Flags: MW
LayerCount: 2
Fore
SplineSet
1338 1270 m 5
 1084 1399 l 5
 1074 1409 994 1427 984 1427 c 4
 976 1427 970 1425 964 1419 c 6
 896 1352 l 5
 886 1210 882 1045 882 903 c 4
 882 825 910 748 910 664 c 4
 910 635 898 604 898 575 c 4
 898 512 908 451 908 391 c 4
 908 328 902 266 888 207 c 5
 888 199 888 190 894 184 c 6
 949 121 l 5
 958 113 966 109 980 109 c 4
 992 109 1013 113 1048 125 c 5
 1054 104 l 5
 984 82 978 70 974 47 c 4
 968 2 949 -47 917 -76 c 5
 912 -82 908 -88 908 -96 c 6
 912 -156 l 5
 886 -154 l 5
 882 -98 l 5
 882 -61 826 -68 798 -68 c 4
 742 -68 695 -82 667 -199 c 5
 652 -195 l 5
 663 -156 669 -131 669 -115 c 4
 669 -100 665 -90 661 -80 c 4
 640 -27 638 188 560 188 c 6
 550 188 l 5
 550 188 552 190 554 190 c 6
 628 209 l 5
 650 109 l 6
 650 106 652 106 652 106 c 5
 656 106 663 113 667 117 c 4
 712 168 730 215 730 285 c 5
 728 348 712 406 695 463 c 4
 689 483 679 498 620 543 c 5
 628 553 l 5
 671 520 691 510 708 506 c 5
 720 510 728 522 730 537 c 5
 732 596 l 6
 734 635 714 694 671 694 c 4
 669 694 626 688 562 676 c 5
 552 715 l 5
 630 735 683 756 683 770 c 4
 683 963 677 1227 577 1227 c 4
 568 1227 556 1227 544 1223 c 5
 532 1274 l 5
 587 1288 599 1315 599 1335 c 4
 599 1358 595 1399 581 1399 c 4
 564 1399 554 1380 554 1364 c 4
 554 1352 558 1333 566 1305 c 5
 544 1298 l 5
 523 1360 511 1368 491 1368 c 4
 452 1368 337 1350 329 1307 c 4
 321 1262 261 1221 261 1196 c 5
 257 1126 196 1143 187 1100 c 5
 177 1042 149 1075 112 928 c 5
 101 930 l 5
 114 979 118 1004 118 1024 c 4
 118 1077 99 1135 99 1192 c 4
 99 1233 106 1276 120 1315 c 5
 120 1319 122 1321 122 1323 c 4
 122 1337 97 1391 97 1401 c 6
 99 1761 l 6
 99 1778 95 1790 44 1843 c 5
 52 1851 l 5
 103 1798 116 1794 132 1794 c 6
 136 1794 l 6
 153 1794 163 1798 198 1864 c 5
 210 1855 l 5
 187 1815 181 1796 181 1784 c 4
 181 1776 183 1772 187 1767 c 6
 222 1716 l 5
 228 1710 235 1706 243 1706 c 4
 304 1700 325 1651 398 1651 c 4
 415 1651 540 1679 806 1679 c 4
 902 1679 990 1677 1023 1677 c 4
 1070 1677 1103 1636 1156 1636 c 4
 1191 1636 1228 1677 1273 1698 c 4
 1291 1706 1300 1714 1306 1788 c 5
 1322 1786 l 5
 1322 1774 1320 1763 1320 1753 c 4
 1320 1710 1328 1702 1343 1694 c 5
 1435 1636 l 6
 1443 1630 1451 1626 1461 1626 c 4
 1478 1626 1498 1632 1537 1651 c 5
 1545 1632 l 5
 1478 1604 1470 1589 1465 1567 c 4
 1453 1503 1453 1384 1453 1321 c 4
 1453 1313 1492 1290 1553 1262 c 5
 1537 1243 l 5
 1492 1260 1463 1270 1459 1270 c 4
 1437 1270 1404 1264 1404 1233 c 4
 1404 1223 1406 1204 1410 1178 c 5
 1400 1178 l 5
 1392 1251 1386 1251 1377 1253 c 5
 1369 1253 l 6
 1357 1253 1349 1251 1304 1194 c 5
 1295 1200 l 5
 1330 1243 1338 1260 1338 1270 c 5
1084 1399 m 5
 1084 1399 1084 1397 1087 1397 c 5
 1084 1399 l 5
EndSplineSet
EndChar

StartChar: u
Encoding: 117 117 46
Width: 1828
Flags: MW
LayerCount: 2
Fore
SplineSet
1295 1667 m 1
 1315 1652 1343 1634 1359 1634 c 0
 1367 1634 1371 1636 1371 1642 c 0
 1371 1667 1365 1683 1314 1737 c 1
 1326 1749 l 1
 1375 1696 1394 1690 1418 1688 c 2
 1664 1675 l 2
 1680 1675 1691 1683 1699 1747 c 1
 1719 1745 l 1
 1715 1724 1715 1710 1715 1700 c 0
 1715 1669 1726 1667 1744 1665 c 1
 1748 1665 l 1
 1752 1663 1758 1663 1762 1663 c 0
 1781 1663 1805 1669 1857 1692 c 1
 1861 1679 l 1
 1793 1651 1779 1638 1766 1620 c 2
 1668 1475 l 1
 1660 1466 1656 1460 1656 1452 c 0
 1656 1438 1666 1419 1695 1382 c 1
 1676 1370 l 1
 1644 1413 1627 1423 1613 1423 c 0
 1607 1423 1603 1423 1596 1421 c 2
 1574 1413 l 2
 1553 1405 1551 1356 1551 1313 c 0
 1551 1227 1551 1182 1570 1122 c 0
 1576 1102 1584 1092 1658 1087 c 1
 1656 1067 l 1
 1582 1067 1574 1059 1566 1040 c 1
 1539 1004 1535 965 1535 926 c 0
 1535 903 1537 879 1537 854 c 0
 1537 807 1529 760 1488 719 c 1
 1486 715 1484 711 1484 707 c 0
 1484 625 1470 532 1412 471 c 0
 1406 465 1404 459 1404 453 c 0
 1400 307 1324 147 1191 80 c 0
 1183 76 1179 72 1179 59 c 0
 1179 49 1183 31 1193 -2 c 1
 1179 -8 l 1
 1158 51 1150 59 1138 59 c 0
 1056 59 996 16 912 14 c 0
 904 14 898 10 892 4 c 1
 847 -66 l 2
 835 -84 828 -102 814 -174 c 1
 806 -174 l 1
 814 -129 816 -104 816 -88 c 0
 816 59 548 207 433 233 c 1
 435 242 l 1
 478 233 503 229 519 229 c 0
 536 229 546 240 546 258 c 0
 546 264 544 272 540 281 c 1
 464 395 357 905 271 905 c 0
 267 905 181 893 60 877 c 1
 52 924 l 1
 192 948 292 969 292 977 c 2
 294 1063 l 1
 294 1108 l 2
 294 1237 280 1434 144 1440 c 1
 120 1440 104 1434 56 1376 c 1
 42 1389 l 1
 77 1432 89 1452 89 1470 c 0
 89 1475 87 1481 85 1487 c 2
 77 1524 l 1
 71 1544 63 1556 -5 1585 c 1
 1 1602 l 1
 40 1585 60 1579 75 1579 c 0
 87 1579 95 1583 104 1589 c 1
 142 1606 l 1
 157 1610 171 1610 171 1612 c 0
 171 1634 165 1651 112 1702 c 1
 124 1714 l 1
 177 1663 192 1659 216 1659 c 1
 392 1671 l 1
 417 1671 427 1673 431 1747 c 1
 454 1747 l 1
 454 1671 460 1671 486 1667 c 2
 544 1657 l 1
 550 1657 554 1659 558 1661 c 2
 656 1716 l 1
 677 1726 691 1741 718 1810 c 1
 730 1804 l 1
 712 1737 712 1716 712 1694 c 1
 751 1577 l 1
 755 1577 761 1577 767 1556 c 1
 783 1556 796 1561 849 1614 c 1
 857 1606 l 1
 804 1550 800 1540 800 1524 c 2
 800 1516 l 2
 800 1501 804 1489 867 1452 c 1
 861 1442 l 1
 816 1466 800 1473 788 1473 c 0
 781 1473 777 1470 773 1468 c 0
 730 1442 675 1432 624 1432 c 0
 616 1432 605 1434 597 1434 c 0
 581 1434 570 1434 564 1413 c 1
 579 1352 564 1118 661 1118 c 0
 673 1118 689 1120 710 1126 c 1
 718 1100 l 1
 646 1081 642 1063 642 1036 c 2
 642 928 l 2
 642 922 644 918 648 913 c 0
 679 866 654 799 681 760 c 1
 730 705 781 455 779 457 c 2
 912 317 l 2
 919 311 925 309 931 309 c 2
 1134 309 l 2
 1144 309 1152 317 1158 326 c 1
 1207 424 1248 442 1248 551 c 0
 1248 567 1240 578 1179 598 c 1
 1185 614 l 1
 1218 602 1238 598 1250 598 c 0
 1318 598 1310 786 1318 819 c 1
 1330 1028 l 1
 1330 1081 1332 1241 1338 1346 c 1
 1273 1473 l 1
 1267 1481 1259 1487 1248 1487 c 2
 1230 1487 l 2
 1209 1487 1197 1485 1166 1415 c 1
 1148 1423 l 1
 1164 1458 1171 1479 1171 1493 c 0
 1171 1513 1105 1587 1074 1624 c 0
 1056 1645 1035 1657 966 1679 c 1
 970 1694 l 1
 1013 1679 1037 1673 1058 1673 c 0
 1099 1673 1164 1694 1218 1694 c 2
 1224 1694 l 2
 1242 1694 1254 1704 1275 1765 c 1
 1295 1759 l 1
 1295 1667 l 1
EndSplineSet
EndChar

StartChar: v
Encoding: 118 118 47
Width: 1635
Flags: MW
LayerCount: 2
Fore
SplineSet
915 440 m 0
 897 440 880 427 880 410 c 2
 880 393 l 2
 880 354 882 334 956 324 c 1
 951 285 l 1
 939 287 927 287 919 287 c 0
 851 287 853 219 853 170 c 0
 853 152 857 141 927 117 c 1
 921 100 l 1
 886 113 868 117 855 117 c 0
 818 117 806 55 804 23 c 1
 788 20 l 1
 779 39 775 59 775 78 c 0
 775 86 777 92 779 98 c 1
 775 98 771 100 767 100 c 0
 751 100 734 88 698 57 c 1
 679 76 l 1
 716 109 726 129 726 143 c 0
 726 207 638 254 630 338 c 0
 630 348 626 354 618 360 c 0
 538 420 513 666 468 791 c 0
 452 836 427 918 396 934 c 1
 413 938 421 952 421 969 c 0
 421 1044 335 1188 298 1188 c 0
 284 1188 263 1184 233 1171 c 1
 222 1198 l 1
 290 1225 296 1243 296 1274 c 2
 296 1331 l 2
 296 1335 294 1339 292 1343 c 2
 214 1475 l 1
 208 1483 202 1487 192 1487 c 0
 173 1487 161 1475 145 1421 c 1
 118 1430 l 1
 126 1456 130 1473 130 1485 c 0
 130 1532 -7 1561 -19 1561 c 0
 -36 1561 -60 1556 -101 1548 c 1
 -105 1561 l 1
 -34 1577 -15 1587 1 1604 c 2
 81 1688 l 2
 89 1696 95 1702 95 1716 c 0
 95 1731 89 1749 75 1784 c 1
 93 1792 l 1
 120 1733 132 1722 153 1722 c 2
 540 1733 l 1
 616 1743 l 1
 629 1746 644 1764 644 1782 c 0
 644 1796 636 1815 607 1858 c 1
 620 1866 l 1
 650 1817 665 1804 679 1800 c 1
 695 1804 708 1819 732 1872 c 1
 751 1864 l 1
 734 1829 728 1808 728 1794 c 0
 728 1759 761 1747 796 1745 c 0
 802 1745 806 1747 810 1749 c 2
 837 1769 l 1
 880 1640 l 1
 878 1638 874 1638 870 1636 c 1
 863 1649 l 1
 859 1610 l 1
 859 1589 868 1571 911 1522 c 1
 898 1509 l 1
 849 1565 833 1571 808 1571 c 2
 714 1571 l 2
 706 1571 698 1567 691 1559 c 1
 638 1479 l 2
 636 1475 634 1468 634 1464 c 0
 634 1460 636 1456 638 1452 c 0
 700 1331 775 1225 775 1090 c 0
 775 1018 786 754 855 737 c 1
 855 1014 l 1
 861 995 908 979 947 979 c 0
 970 979 988 983 992 995 c 0
 1064 1196 1140 1411 1140 1513 c 0
 1140 1524 1134 1530 1126 1534 c 1
 1126 1536 l 1
 1115 1540 1107 1544 1099 1544 c 0
 1085 1544 1068 1532 1040 1495 c 1
 1015 1513 l 1
 1038 1544 1046 1561 1046 1575 c 0
 1046 1587 1038 1595 1027 1606 c 1
 1011 1620 l 1
 1046 1800 l 1
 1099 1800 l 2
 1132 1800 1148 1804 1171 1876 c 1
 1199 1866 l 1
 1191 1839 1189 1823 1189 1808 c 0
 1189 1751 1269 1741 1318 1741 c 1
 1377 1745 l 2
 1384 1745 1390 1747 1394 1751 c 2
 1408 1767 l 2
 1416 1776 1423 1782 1423 1796 c 0
 1423 1810 1416 1829 1402 1864 c 1
 1423 1872 l 1
 1451 1804 1463 1800 1488 1800 c 2
 1701 1800 l 2
 1724 1800 1746 1806 1810 1843 c 1
 1816 1833 l 1
 1752 1794 1738 1778 1726 1757 c 0
 1627 1567 1291 1475 1263 1137 c 1
 1263 1128 l 2
 1263 1110 1271 1098 1330 1071 c 1
 1322 1053 l 1
 1287 1069 1267 1075 1255 1075 c 0
 1185 1075 1109 860 1062 793 c 1
 1060 788 1058 784 1058 778 c 0
 1054 692 970 616 970 535 c 0
 970 516 982 506 1031 487 c 1
 1023 471 l 1
 992 481 974 487 964 487 c 0
 951 487 947 481 943 477 c 1
 943 471 l 2
 943 457 954 440 992 408 c 1
 980 395 l 1
 943 430 927 440 915 440 c 0
EndSplineSet
EndChar

StartChar: w
Encoding: 119 119 48
Width: 1812
Flags: MW
LayerCount: 2
Fore
SplineSet
630 -63 m 0
 630 -32 617 -10 591 -10 c 0
 579 -10 559 -10 524 -31 c 1
 516 -14 l 1
 575 10 583 20 583 35 c 1
 565 209 l 1
 555 240 524 311 505 342 c 1
 505 342 469 342 413 344 c 1
 413 362 l 1
 462 362 495 360 499 360 c 1
 510 365 518 375 518 387 c 0
 518 477 473 678 419 678 c 0
 409 678 393 676 372 672 c 1
 364 698 l 1
 424 711 434 721 434 741 c 1
 430 807 l 2
 430 813 428 817 424 821 c 1
 370 899 254 1272 247 1278 c 0
 202 1319 215 1352 188 1405 c 1
 163 1434 l 1
 163 1442 141 1446 141 1446 c 1
 133 1446 l 2
 110 1446 94 1442 65 1376 c 1
 47 1386 l 1
 61 1419 67 1438 67 1452 c 0
 67 1481 51 1481 41 1481 c 0
 26 1481 10 1450 -33 1386 c 1
 -35 1389 l 1
 2 1448 12 1466 22 1487 c 1
 51 1563 l 2
 55 1573 57 1575 57 1581 c 0
 57 1597 53 1616 18 1661 c 1
 32 1671 l 1
 77 1610 92 1604 116 1604 c 2
 161 1604 l 2
 168 1604 174 1606 180 1612 c 0
 215 1651 325 1657 364 1692 c 0
 403 1726 428 1751 428 1802 c 0
 428 1815 428 1831 424 1849 c 1
 481 1858 l 1
 487 1821 510 1784 536 1759 c 1
 579 1620 l 1
 532 1575 481 1516 485 1513 c 1
 503 1325 l 2
 508 1282 553 1272 557 1247 c 1
 610 1102 l 1
 614 1085 616 1077 647 1077 c 0
 659 1077 673 1079 692 1081 c 1
 696 1063 l 1
 637 1055 628 1047 628 1032 c 1
 663 784 l 1
 667 766 723 735 725 729 c 1
 731 731 733 745 737 768 c 0
 759 924 757 987 850 1163 c 0
 852 1167 854 1171 854 1176 c 2
 833 1380 l 2
 833 1386 768 1473 768 1479 c 1
 770 1479 l 1
 749 1499 741 1548 725 1556 c 2
 706 1565 l 2
 704 1567 702 1569 698 1569 c 1
 677 1661 l 1
 707 1684 713 1692 720 1776 c 1
 737 1774 l 1
 735 1755 733 1741 733 1726 c 0
 733 1700 737 1679 747 1667 c 1
 745 1667 l 1
 745 1665 745 1665 747 1665 c 1
 751 1661 756 1655 761 1655 c 0
 778 1655 786 1681 786 1696 c 0
 786 1708 778 1726 766 1755 c 1
 790 1767 l 1
 817 1712 831 1700 852 1700 c 0
 884 1700 931 1704 931 1757 c 0
 931 1769 927 1780 927 1796 c 1
 952 1800 l 1
 966 1726 983 1720 1009 1718 c 1
 1034 1714 l 2
 1036 1714 1040 1714 1042 1716 c 1
 1079 1726 l 2
 1097 1731 1106 1737 1106 1774 c 0
 1106 1784 1106 1796 1103 1812 c 1
 1126 1812 l 1
 1135 1726 1147 1736 1185 1724 c 1
 1196 1608 l 1
 1189 1600 1179 1593 1179 1579 c 0
 1179 1567 1185 1548 1206 1509 c 1
 1196 1503 l 1
 1167 1563 1157 1573 1146 1575 c 1
 1140 1573 1134 1571 1130 1567 c 2
 1081 1509 l 2
 1075 1503 1075 1497 1075 1491 c 2
 1153 672 l 1
 1155 719 1175 762 1208 791 c 1
 1212 793 1212 797 1214 803 c 0
 1251 979 1271 1169 1325 1350 c 1
 1325 1354 1327 1358 1327 1362 c 1
 1345 1382 l 1
 1335 1395 l 1
 1347 1384 l 1
 1349 1386 l 1
 1349 1384 l 1
 1353 1380 1359 1380 1364 1380 c 0
 1382 1380 1415 1407 1415 1432 c 1
 1392 1544 l 1
 1388 1548 1382 1550 1376 1552 c 0
 1323 1565 1310 1618 1286 1642 c 1
 1263 1714 l 1
 1273 1718 1282 1726 1282 1743 c 1
 1276 1786 1279 1789 1235 1870 c 1
 1245 1874 l 1
 1282 1806 1298 1790 1319 1776 c 1
 1347 1755 l 2
 1351 1753 1355 1751 1362 1751 c 2
 1450 1751 l 2
 1458 1751 1519 1751 1583 1870 c 1
 1593 1864 l 1
 1570 1815 1552 1776 1552 1761 c 0
 1552 1757 1556 1755 1558 1755 c 1
 1558 1755 1558 1757 1560 1757 c 2
 1716 1806 l 1
 1732 1817 1742 1829 1763 1896 c 1
 1775 1892 l 1
 1765 1853 1747 1716 1747 1700 c 1
 1986 1700 l 1
 1986 1681 l 1
 1861 1681 l 2
 1826 1681 1812 1675 1802 1663 c 1
 1722 1589 1572 1477 1560 1423 c 1
 1433 915 l 1
 1359 625 1155 362 1060 78 c 0
 1048 43 1058 -23 1034 -55 c 0
 1015 -80 1003 -106 985 -176 c 1
 974 -174 l 1
 989 -123 991 -90 991 -63 c 2
 991 -39 l 1
 970 172 923 391 905 604 c 1
 901 637 864 659 839 659 c 0
 764 659 710 27 710 6 c 0
 710 -8 723 -23 774 -61 c 1
 764 -72 l 1
 723 -39 702 -29 690 -29 c 0
 686 -29 680 -31 675 -33 c 1
 673 -33 l 1
 659 -39 649 -47 641 -119 c 1
 626 -117 l 1
 628 -94 630 -78 630 -63 c 0
EndSplineSet
EndChar

StartChar: x
Encoding: 120 120 49
Width: 1349
Flags: MW
LayerCount: 2
Fore
SplineSet
1025 29 m 0
 1014 29 1006 26 996 25 c 1
 996 23 982 18 982 12 c 2
 982 10 l 1
 980 4 978 2 978 -4 c 0
 978 -16 984 -31 1008 -66 c 1
 998 -74 l 1
 965 -23 955 -18 937 -18 c 2
 935 -18 l 2
 918 -18 910 -23 885 -78 c 1
 873 -74 l 1
 885 -43 890 -27 890 -16 c 0
 890 4 797 86 769 86 c 0
 758 86 742 78 720 51 c 1
 699 68 l 1
 724 92 730 109 730 121 c 0
 730 129 728 137 720 145 c 1
 720 147 709 133 695 121 c 1
 658 111 l 1
 650 184 l 1
 677 190 l 1
 691 190 713 219 713 246 c 0
 713 258 705 274 681 309 c 1
 695 319 l 1
 728 279 742 270 758 270 c 1
 765 299 777 328 777 356 c 0
 777 408 750 524 660 584 c 1
 656 592 648 594 640 594 c 0
 617 594 558 479 558 477 c 2
 558 414 l 2
 558 401 562 393 611 360 c 1
 607 350 l 1
 570 373 556 379 543 379 c 0
 529 379 515 369 515 348 c 0
 515 326 533 274 558 231 c 1
 543 98 l 1
 519 98 l 2
 507 98 500 100 498 111 c 1
 496 98 492 98 490 98 c 2
 373 84 l 2
 359 82 351 74 351 59 c 0
 351 49 355 43 400 4 c 1
 394 -4 l 1
 355 31 343 35 335 35 c 1
 306 31 l 1
 283 25 240 20 240 -63 c 2
 240 -80 l 1
 226 -80 l 1
 224 47 169 4 163 70 c 0
 163 76 158 82 152 86 c 1
 154 86 l 1
 144 92 134 96 113 96 c 0
 111 96 81 92 31 84 c 1
 25 106 l 1
 99 119 144 129 148 131 c 1
 199 182 257 233 302 293 c 0
 306 297 306 299 306 305 c 2
 306 322 l 2
 306 346 304 358 244 375 c 1
 251 397 l 1
 271 391 285 389 296 389 c 0
 314 389 322 397 330 412 c 0
 384 502 324 633 433 709 c 1
 455 733 449 788 472 817 c 1
 480 829 488 842 498 866 c 1
 498 893 496 920 496 944 c 0
 496 987 498 1024 502 1055 c 1
 457 1116 412 1210 373 1278 c 0
 337 1341 242 1382 226 1466 c 0
 224 1481 216 1489 201 1489 c 0
 189 1489 177 1487 167 1487 c 0
 115 1487 74 1501 40 1542 c 0
 33 1550 27 1556 9 1556 c 0
 -1 1556 -18 1554 -40 1550 c 1
 -44 1565 l 1
 15 1579 21 1589 25 1606 c 1
 29 1634 l 1
 29 1649 21 1665 -7 1700 c 1
 5 1710 l 1
 42 1663 56 1657 76 1657 c 2
 548 1657 l 2
 554 1657 560 1657 566 1659 c 1
 564 1659 562 1661 562 1661 c 1
 562 1673 l 1
 582 1669 l 1
 593 1649 l 1
 580 1628 574 1583 574 1559 c 0
 574 1540 582 1524 617 1491 c 1
 601 1477 l 1
 570 1509 552 1518 533 1518 c 0
 517 1518 457 1503 457 1477 c 2
 457 1432 l 2
 457 1427 459 1421 464 1417 c 0
 511 1372 552 1266 572 1178 c 1
 578 1157 593 1145 609 1145 c 0
 624 1145 650 1162 650 1184 c 0
 652 1251 695 1327 738 1346 c 1
 738 1358 l 2
 738 1401 769 1432 771 1481 c 0
 771 1501 713 1526 709 1567 c 0
 709 1571 707 1577 703 1579 c 1
 640 1640 l 1
 648 1677 l 1
 654 1679 l 1
 677 1694 699 1704 726 1704 c 0
 769 1704 814 1688 849 1661 c 0
 853 1659 857 1657 861 1657 c 2
 1068 1657 l 2
 1103 1657 1131 1675 1162 1688 c 0
 1184 1698 1199 1708 1211 1769 c 1
 1230 1765 l 1
 1227 1745 1223 1729 1223 1716 c 0
 1223 1696 1230 1651 1299 1630 c 0
 1303 1628 1336 1628 1387 1628 c 1
 1393 1604 l 1
 1332 1602 1293 1599 1289 1597 c 0
 1221 1556 1072 1460 1072 1401 c 0
 1072 1399 1123 1372 1201 1331 c 1
 1184 1307 l 1
 1109 1343 1057 1368 1055 1368 c 0
 1049 1368 1045 1364 1041 1360 c 0
 947 1253 734 903 734 819 c 2
 734 770 l 2
 734 760 740 754 748 750 c 0
 830 711 732 580 867 516 c 1
 871 496 877 483 939 475 c 1
 935 457 l 1
 920 457 908 459 898 459 c 0
 875 459 867 453 859 444 c 1
 885 408 916 371 922 326 c 1
 922 326 1043 172 1057 172 c 2
 1064 172 l 2
 1076 172 1092 180 1133 207 c 1
 1139 201 l 1
 1062 152 1051 127 1051 98 c 0
 1051 80 1035 57 1100 2 c 1
 1090 -10 l 1
 1053 20 1037 29 1025 29 c 0
EndSplineSet
EndChar

StartChar: y
Encoding: 121 121 50
Width: 1447
Flags: MW
LayerCount: 2
Fore
SplineSet
664 1380 m 1
 744 1409 737 1412 753 1438 c 1
 753 1440 753 1440 755 1442 c 1
 744 1444 736 1446 728 1446 c 1
 728 1452 l 1
 755 1446 l 1
 755 1450 757 1454 757 1458 c 0
 757 1473 748 1491 722 1532 c 1
 736 1540 l 1
 775 1479 789 1475 808 1475 c 2
 996 1475 l 2
 1000 1475 1004 1477 1009 1479 c 0
 1078 1522 1142 1524 1222 1524 c 0
 1228 1524 1234 1526 1240 1532 c 2
 1287 1579 l 1
 1299 1589 1306 1602 1328 1671 c 1
 1336 1669 l 1
 1320 1616 1314 1595 1314 1581 c 0
 1314 1577 1314 1573 1316 1569 c 1
 1316 1567 l 2
 1316 1563 1373 1540 1455 1509 c 1
 1443 1489 l 1
 1375 1509 1332 1524 1328 1524 c 0
 1312 1524 1308 1518 1303 1511 c 2
 1246 1436 l 2
 1240 1427 1236 1423 1236 1415 c 0
 1236 1403 1248 1389 1283 1360 c 1
 1267 1341 l 1
 1236 1368 1220 1378 1207 1378 c 0
 1199 1378 1193 1372 1187 1366 c 2
 1164 1341 l 2
 1156 1333 1150 1327 1150 1315 c 0
 1150 1303 1158 1282 1176 1249 c 1
 1158 1237 l 1
 1129 1288 1115 1298 1099 1298 c 0
 1086 1298 1078 1288 1076 1276 c 0
 1068 1225 1025 1184 986 1151 c 0
 980 1147 978 1141 976 1137 c 0
 964 1112 834 973 834 932 c 0
 834 920 845 909 894 879 c 1
 884 862 l 1
 847 885 830 893 818 893 c 0
 771 893 753 756 753 719 c 2
 753 303 l 2
 753 295 757 289 761 283 c 1
 814 236 851 190 861 123 c 0
 863 113 863 106 912 106 c 2
 937 106 l 1
 939 94 l 1
 865 92 863 86 863 74 c 1
 859 45 l 2
 859 39 902 -12 966 -82 c 1
 945 -106 l 1
 877 -39 826 8 820 8 c 0
 722 2 626 -16 527 -16 c 0
 456 -16 392 43 337 43 c 0
 318 43 298 41 267 33 c 1
 263 53 l 1
 335 72 351 88 365 115 c 1
 382 145 421 184 421 221 c 0
 421 238 415 260 398 301 c 1
 415 307 l 1
 442 236 455 226 482 217 c 0
 486 215 488 215 492 215 c 0
 508 215 527 235 527 250 c 2
 527 401 l 2
 527 406 499 455 499 494 c 0
 499 621 429 735 425 862 c 0
 425 868 423 874 417 881 c 1
 390 905 l 2
 382 913 374 918 359 918 c 0
 345 918 327 911 292 895 c 1
 282 915 l 1
 339 946 347 961 347 979 c 0
 347 1016 327 1085 298 1085 c 0
 296 1085 253 1069 185 1042 c 1
 167 1075 l 1
 243 1108 294 1133 294 1135 c 0
 294 1227 146 1294 116 1380 c 1
 95 1436 93 1534 32 1534 c 0
 19 1534 3 1530 -22 1524 c 1
 -28 1546 l 1
 42 1567 46 1579 46 1604 c 2
 46 1610 l 2
 46 1622 44 1630 -9 1681 c 1
 -3 1688 l 1
 48 1634 58 1632 69 1632 c 2
 73 1632 l 2
 83 1632 91 1634 126 1700 c 1
 136 1694 l 1
 109 1649 103 1630 103 1622 c 0
 103 1571 228 1559 265 1559 c 0
 335 1559 413 1573 492 1573 c 0
 519 1573 548 1571 576 1567 c 1
 578 1536 l 1
 515 1528 472 1489 472 1348 c 0
 472 1305 476 1262 486 1241 c 1
 597 1147 l 2
 607 1139 615 1133 628 1133 c 0
 642 1133 662 1141 695 1163 c 1
 710 1141 l 1
 667 1112 656 1096 656 1077 c 0
 656 1059 677 1006 689 1006 c 0
 699 1006 720 1022 740 1042 c 1
 765 1065 851 1188 851 1231 c 0
 851 1249 843 1268 789 1298 c 1
 787 1294 787 1292 787 1290 c 1
 773 1294 l 1
 779 1325 783 1343 783 1354 c 0
 783 1373 775 1377 765 1382 c 0
 759 1386 753 1389 744 1389 c 0
 730 1389 710 1382 669 1370 c 1
 664 1380 l 1
869 1290 m 0
 889 1290 894 1302 894 1317 c 0
 894 1329 888 1343 873 1352 c 2
 855 1362 l 2
 851 1364 847 1366 841 1366 c 2
 830 1366 l 1
 816 1364 808 1362 796 1321 c 1
 834 1298 855 1290 869 1290 c 0
892 1296 m 2
 888 1294 l 1
 888 1294 890 1294 892 1296 c 2
877 1288 m 1
 875 1286 l 1
 875 1286 877 1286 877 1288 c 1
EndSplineSet
EndChar

StartChar: z
Encoding: 122 122 51
Width: 1348
Flags: MW
LayerCount: 2
Fore
SplineSet
1457 504 m 1
 1457 475 l 1
 1387 479 1336 481 1334 481 c 0
 1299 481 1293 473 1289 457 c 1
 1258 365 1180 242 1180 197 c 0
 1180 184 1182 166 1184 143 c 1
 1172 141 l 1
 1164 215 1154 229 1139 244 c 1
 1139 242 l 1
 1135 246 1129 248 1123 248 c 0
 980 248 836 262 693 272 c 1
 675 272 660 252 632 252 c 0
 619 252 603 260 589 260 c 1
 498 248 419 244 341 244 c 0
 304 244 263 258 226 258 c 0
 208 258 185 250 142 221 c 1
 132 236 l 1
 193 276 201 293 203 317 c 1
 210 354 222 393 249 414 c 0
 253 418 255 422 257 426 c 2
 316 582 l 2
 318 586 318 588 318 592 c 0
 318 604 308 618 267 655 c 1
 275 666 l 1
 314 629 330 621 341 621 c 0
 345 621 347 621 351 623 c 1
 359 635 l 1
 390 719 496 1001 570 1032 c 1
 566 1030 642 1159 654 1237 c 0
 660 1278 672 1288 693 1395 c 1
 695 1395 l 1
 683 1321 681 1303 681 1284 c 2
 681 1280 l 2
 681 1264 693 1247 705 1247 c 0
 748 1247 748 1386 802 1386 c 2
 808 1386 l 1
 810 1393 812 1399 812 1405 c 0
 812 1423 797 1438 775 1438 c 2
 425 1438 l 2
 357 1438 296 1307 236 1237 c 0
 234 1235 232 1233 232 1231 c 0
 232 1225 242 1212 277 1171 c 1
 265 1161 l 1
 234 1198 222 1210 210 1210 c 0
 201 1210 193 1208 183 1202 c 1
 160 1182 l 2
 152 1176 130 1122 97 1051 c 1
 77 1061 l 1
 103 1128 122 1178 122 1184 c 2
 122 1313 l 2
 122 1321 171 1434 171 1440 c 1
 134 1571 l 2
 132 1577 85 1589 13 1606 c 1
 21 1636 l 1
 97 1624 150 1616 156 1616 c 1
 167 1618 175 1624 179 1634 c 2
 189 1661 l 2
 193 1669 195 1679 195 1692 c 0
 195 1708 189 1733 177 1776 c 1
 191 1780 l 1
 222 1683 273 1645 290 1645 c 1
 339 1640 390 1618 441 1618 c 0
 459 1618 478 1628 511 1679 c 1
 529 1667 l 1
 503 1630 494 1610 494 1595 c 0
 494 1581 503 1575 515 1575 c 0
 550 1575 568 1599 568 1677 c 1
 595 1677 l 1
 595 1573 658 1559 709 1559 c 0
 830 1559 935 1612 1053 1616 c 0
 1068 1616 1080 1630 1094 1634 c 0
 1111 1640 1119 1647 1119 1720 c 1
 1135 1720 l 1
 1135 1632 1143 1640 1178 1628 c 0
 1182 1626 1189 1624 1195 1624 c 0
 1211 1624 1232 1632 1277 1659 c 1
 1285 1647 l 1
 1219 1608 1213 1595 1211 1575 c 1
 1205 1544 1166 1491 1166 1477 c 1
 1158 1405 1058 1223 1006 1124 c 0
 1002 1118 1000 1114 1000 1110 c 0
 1000 1100 1012 1085 1051 1053 c 1
 1039 1038 l 1
 1004 1067 986 1075 976 1075 c 0
 939 1075 896 963 896 936 c 0
 896 922 906 909 953 877 c 1
 941 860 l 1
 904 887 885 895 873 895 c 0
 822 895 736 750 736 711 c 0
 736 696 746 682 791 649 c 1
 781 635 l 1
 742 664 724 672 711 672 c 0
 658 672 689 573 629 557 c 1
 597 547 593 467 593 451 c 0
 593 434 605 422 623 420 c 1
 750 395 l 1
 750 395 752 393 754 393 c 0
 759 393 763 395 767 397 c 0
 808 420 885 426 955 426 c 0
 990 426 1025 424 1049 424 c 0
 1078 424 1082 485 1115 498 c 1
 1156 524 1129 649 1215 653 c 2
 1252 655 l 1
 1271 655 1283 659 1332 715 c 1
 1340 707 l 1
 1297 659 1291 643 1291 629 c 2
 1297 520 l 2
 1297 516 1365 510 1457 504 c 1
EndSplineSet
EndChar

StartChar: a
Encoding: 97 97 52
Width: 1107
Flags: MW
LayerCount: 2
Fore
SplineSet
11 410 m 1
 13 434 l 1
 50 426 74 422 78 422 c 0
 113 422 127 551 168 586 c 1
 166 606 166 625 166 643 c 0
 166 688 177 731 177 778 c 0
 177 799 119 817 117 844 c 1
 117 848 l 1
 150 834 168 829 181 829 c 0
 207 829 242 918 242 944 c 0
 242 965 197 985 193 1012 c 0
 193 1016 193 1018 195 1022 c 1
 232 999 248 991 261 991 c 0
 270 991 276 997 285 1006 c 1
 283 1014 283 1022 283 1030 c 0
 283 1126 353 1206 353 1307 c 0
 353 1315 351 1323 351 1331 c 0
 351 1348 295 1374 293 1399 c 1
 293 1403 l 1
 330 1386 349 1378 361 1378 c 0
 416 1378 525 1655 586 1735 c 0
 590 1741 611 1821 631 1831 c 1
 623 1784 623 1761 623 1743 c 0
 623 1735 623 1729 627 1722 c 1
 709 1434 879 1221 914 905 c 1
 924 803 955 815 955 737 c 1
 957 717 951 692 951 657 c 2
 951 594 l 1
 1000 526 1020 459 1031 385 c 1
 1035 365 1041 350 1078 315 c 0
 1086 307 1090 299 1090 289 c 1
 1092 283 l 1
 1035 332 1016 338 994 338 c 2
 977 338 l 1
 988 236 l 1
 1072 201 1045 121 1123 121 c 0
 1133 121 1160 162 1192 162 c 1
 1166 127 1158 111 1158 100 c 0
 1158 94 1160 90 1162 86 c 1
 1162 84 l 1
 1168 74 1172 66 1211 63 c 1
 1231 63 1248 61 1250 57 c 1
 1250 53 1235 51 1217 49 c 1
 1174 47 1180 33 1168 29 c 1
 1100 -2 1127 -78 1100 -78 c 0
 1072 -78 1016 -4 990 41 c 1
 940 12 l 1
 924 4 914 -6 912 -51 c 0
 912 -66 904 -76 893 -80 c 1
 893 61 746 86 670 86 c 0
 644 86 615 84 580 82 c 1
 547 68 l 2
 537 63 480 6 457 6 c 1
 465 14 l 1
 463 14 l 2
 453 14 400 74 379 74 c 1
 234 66 l 1
 209 45 175 35 142 29 c 1
 107 -33 -57 -14 -137 -57 c 0
 -141 -59 -147 -61 -153 -61 c 0
 -157 -61 -159 -61 -163 -59 c 1
 -108 -27 -94 -12 -79 4 c 1
 -43 57 l 2
 -38 63 -34 72 -28 113 c 1
 -28 121 -26 127 -22 131 c 1
 -26 94 -26 76 -26 66 c 0
 -26 59 -24 55 -22 53 c 1
 -22 74 l 2
 -22 106 -16 137 23 139 c 1
 23 193 56 221 103 236 c 1
 80 393 l 1
 11 410 l 1
721 291 m 1
 709 471 l 1
 658 508 637 594 637 649 c 0
 637 653 639 657 639 662 c 1
 609 618 l 2
 603 610 601 602 601 592 c 1
 603 580 619 559 619 530 c 0
 619 522 617 514 613 510 c 1
 572 578 562 582 537 582 c 2
 314 582 l 1
 328 526 l 2
 334 500 402 475 406 444 c 1
 373 457 351 461 336 461 c 0
 322 461 316 455 308 449 c 1
 289 422 l 1
 289 227 l 1
 365 231 l 1
 385 231 406 221 426 221 c 0
 441 221 461 242 496 242 c 0
 500 242 504 242 508 240 c 1
 451 205 445 193 441 176 c 1
 441 154 l 2
 441 152 439 150 439 147 c 0
 439 123 478 145 500 100 c 1
 467 111 451 115 441 115 c 0
 428 115 428 106 428 98 c 1
 431 82 443 61 474 23 c 1
 506 57 515 74 523 92 c 1
 535 125 574 180 574 203 c 0
 574 213 545 246 545 270 c 0
 545 274 549 281 553 285 c 1
 588 233 605 221 621 221 c 0
 625 221 629 223 633 223 c 2
 664 227 l 1
 721 291 l 1
476 918 m 1
 494 907 502 903 502 895 c 0
 502 893 498 891 494 891 c 0
 480 891 445 901 435 901 c 0
 428 901 363 872 363 780 c 0
 363 772 363 764 365 756 c 1
 410 739 l 1
 467 739 476 760 512 772 c 1
 545 782 l 1
 543 786 541 795 541 799 c 0
 541 821 578 844 578 864 c 0
 578 922 527 1171 508 1231 c 1
 420 1030 l 1
 420 1010 l 1
 422 1008 426 987 428 969 c 1
 428 961 l 1
 431 944 437 934 476 918 c 1
EndSplineSet
EndChar

StartChar: A
Encoding: 65 65 53
Width: 1144
Flags: MW
LayerCount: 2
Fore
SplineSet
47 510 m 1
 53 541 l 1
 70 535 82 530 88 530 c 0
 123 530 148 621 188 647 c 1
 186 668 186 686 186 705 c 0
 186 750 197 793 197 840 c 0
 197 860 139 879 137 905 c 1
 137 909 l 1
 170 895 188 891 201 891 c 0
 227 891 262 979 262 1006 c 0
 262 1026 217 1047 213 1073 c 0
 213 1077 213 1079 215 1083 c 1
 252 1061 268 1053 281 1053 c 0
 290 1053 297 1059 305 1067 c 1
 303 1075 303 1083 303 1092 c 0
 303 1188 373 1268 373 1368 c 0
 373 1376 371 1384 371 1393 c 0
 371 1399 356 1411 338 1425 c 1
 348 1454 l 1
 365 1446 377 1440 381 1440 c 0
 434 1440 545 1585 606 1632 c 1
 606 1636 610 1663 621 1692 c 1
 645 1692 l 1
 641 1669 643 1655 643 1640 c 0
 643 1632 643 1626 647 1620 c 1
 711 1427 844 1278 873 1069 c 0
 895 905 975 928 975 799 c 1
 977 778 971 754 971 719 c 2
 971 655 l 1
 1020 588 1040 520 1051 446 c 1
 1055 426 1061 412 1098 377 c 0
 1106 369 1110 360 1110 350 c 1
 1112 344 l 1
 1055 393 1036 399 1014 399 c 2
 997 399 l 1
 1008 297 l 1
 1092 262 1065 182 1143 182 c 0
 1153 182 1249 274 1282 274 c 1
 1256 240 1178 172 1178 162 c 0
 1178 156 1180 152 1182 147 c 1
 1182 145 l 1
 1190 131 1268 121 1270 119 c 1
 1270 115 1256 113 1237 111 c 1
 1194 109 1200 94 1188 90 c 1
 1120 59 1147 -16 1120 -16 c 0
 1092 -16 1036 57 1010 102 c 1
 961 74 l 1
 944 66 934 -72 932 -117 c 0
 932 -131 924 -141 913 -145 c 1
 913 -4 766 147 690 147 c 0
 664 147 635 145 600 143 c 1
 567 129 l 2
 557 125 500 68 477 68 c 1
 485 76 l 1
 483 76 l 2
 473 76 420 135 399 135 c 1
 254 127 l 1
 229 106 195 96 162 90 c 1
 127 29 -37 47 -117 4 c 0
 -121 2 -127 0 -133 0 c 0
 -137 0 -139 0 -143 2 c 1
 -88 35 -74 49 -59 66 c 1
 -22 119 l 2
 -18 125 -14 133 -8 174 c 1
 -8 182 -6 188 -2 193 c 1
 -6 156 -6 137 -6 127 c 0
 -6 121 -4 117 -2 115 c 1
 -2 135 l 2
 -2 168 4 199 43 201 c 1
 43 254 76 283 123 297 c 1
 100 463 l 2
 98 475 78 492 47 510 c 1
741 352 m 1
 729 532 l 1
 678 569 657 655 657 711 c 0
 657 715 660 719 660 723 c 1
 629 680 l 2
 623 672 621 664 621 653 c 1
 623 641 639 621 639 592 c 0
 639 584 637 575 633 571 c 1
 592 639 582 643 557 643 c 2
 334 643 l 1
 348 588 l 2
 354 561 422 537 426 506 c 1
 393 518 371 522 356 522 c 0
 342 522 336 516 328 510 c 1
 309 483 l 1
 309 289 l 1
 385 293 l 1
 406 293 426 283 447 283 c 0
 461 283 481 303 516 303 c 0
 520 303 524 303 528 301 c 1
 471 266 465 254 461 238 c 1
 461 215 l 2
 461 213 459 211 459 209 c 0
 459 184 498 207 520 162 c 1
 488 172 471 176 461 176 c 0
 449 176 449 168 449 160 c 0
 451 143 463 123 494 84 c 1
 526 119 535 135 543 154 c 0
 555 186 594 242 594 264 c 0
 594 274 565 307 565 332 c 0
 565 336 569 342 574 346 c 1
 608 295 625 283 641 283 c 0
 645 283 649 285 653 285 c 2
 684 289 l 1
 741 352 l 1
496 979 m 1
 514 969 522 965 522 956 c 0
 522 954 518 952 514 952 c 0
 500 952 465 963 455 963 c 0
 449 963 383 934 383 842 c 0
 383 834 383 825 385 817 c 1
 430 801 l 1
 524 801 533 821 594 834 c 1
 627 844 l 1
 627 844 598 905 598 926 c 0
 598 983 547 1233 528 1292 c 1
 440 1092 l 1
 440 1071 l 1
 442 1069 447 1049 449 1030 c 1
 449 1022 l 1
 451 1006 457 995 496 979 c 1
EndSplineSet
EndChar

StartChar: B
Encoding: 66 66 54
Width: 1456
Flags: MW
LayerCount: 2
Fore
SplineSet
464 276 m 1
 472 301 l 1
 505 289 523 283 525 283 c 0
 556 283 597 360 597 385 c 0
 597 432 564 467 564 516 c 0
 564 526 562 535 554 543 c 0
 486 604 480 813 480 944 c 2
 480 1024 l 2
 480 1071 448 1112 437 1157 c 0
 429 1192 425 1225 425 1257 c 0
 425 1311 431 1366 431 1423 c 1
 429 1438 421 1450 409 1450 c 0
 392 1450 376 1442 370 1442 c 0
 300 1442 245 1503 177 1503 c 0
 169 1503 161 1501 155 1499 c 1
 204 1440 l 1
 151 1495 l 1
 136 1489 124 1475 108 1452 c 1
 75 1475 l 1
 95 1503 101 1526 101 1540 c 1
 58 1575 19 1602 -15 1618 c 1
 3 1659 l 1
 85 1618 214 1602 284 1602 c 0
 388 1602 480 1661 585 1661 c 0
 643 1661 683 1616 744 1616 c 0
 768 1616 785 1636 785 1653 c 0
 785 1665 779 1683 760 1724 c 1
 773 1731 l 1
 805 1665 816 1661 832 1661 c 2
 838 1661 l 2
 871 1661 889 1665 910 1737 c 1
 938 1729 l 1
 932 1704 930 1688 930 1675 c 0
 930 1649 951 1618 981 1618 c 0
 990 1618 1002 1618 1002 1647 c 0
 1002 1663 998 1686 986 1724 c 1
 1002 1729 l 1
 1041 1593 1115 1604 1176 1604 c 0
 1186 1604 1199 1608 1213 1616 c 1
 1252 1651 l 1
 1264 1628 l 1
 1242 1608 1229 1593 1227 1591 c 0
 1219 1581 1217 1573 1215 1565 c 1
 1219 1552 1227 1544 1239 1542 c 1
 1299 1513 1317 1286 1317 1202 c 4
 1317 1135 1276 1077 1229 1030 c 4
 1225 1026 1222 1020 1220 1014 c 4
 1208 954 1096 973 1096 924 c 5
 1102 893 1108 836 1120 817 c 5
 1151 786 1157 739 1157 696 c 4
 1157 647 1126 395 1071 377 c 5
 1055 377 1000 197 977 197 c 0
 959 197 940 201 920 201 c 0
 906 201 893 193 859 139 c 1
 844 147 l 1
 871 186 879 207 879 219 c 0
 879 266 799 272 764 272 c 0
 686 272 726 213 673 195 c 1
 632 178 650 115 579 115 c 0
 542 115 523 180 523 197 c 2
 523 229 l 2
 523 242 521 250 505 260 c 1
 503 260 488 266 464 276 c 1
789 1485 m 1
 738 1255 l 1
 738 1245 738 1143 719 1110 c 0
 717 1106 715 1104 715 1102 c 1
 715 1104 740 1042 764 1042 c 2
 777 1042 l 2
 787 1042 916 1116 943 1116 c 0
 945 1116 947 1114 949 1112 c 1
 949 1135 943 1149 879 1186 c 1
 889 1202 l 1
 928 1180 949 1171 963 1171 c 0
 973 1171 979 1176 988 1180 c 2
 1008 1190 l 1
 1016 1196 1063 1282 1063 1278 c 1
 1063 1298 1031 1309 1018 1309 c 0
 1000 1309 981 1296 949 1260 c 1
 928 1278 l 1
 959 1311 969 1331 969 1348 c 0
 969 1358 965 1366 959 1376 c 2
 930 1430 l 2
 932 1425 857 1487 818 1499 c 1
 803 1499 795 1495 789 1485 c 1
734 756 m 2
 734 639 l 2
 734 612 736 598 809 582 c 1
 803 557 l 1
 783 561 766 563 754 563 c 0
 715 563 707 535 707 492 c 2
 707 440 l 2
 707 422 750 393 775 393 c 0
 789 393 805 422 805 442 c 0
 805 457 795 475 760 512 c 1
 775 526 l 1
 811 489 828 479 842 479 c 0
 936 479 949 633 949 719 c 0
 949 754 793 893 766 893 c 2
 752 893 l 2
 742 893 732 887 727 874 c 2
 707 825 l 1
 695 840 l 1
 705 825 717 811 734 811 c 0
 746 811 766 817 799 829 c 1
 805 811 l 1
 738 786 734 776 734 756 c 2
EndSplineSet
EndChar

StartChar: C
Encoding: 67 67 55
Width: 1176
Flags: MW
LayerCount: 2
Fore
SplineSet
387 127 m 1
 375 111 369 100 367 27 c 1
 355 27 l 1
 355 51 l 2
 355 107 348 117 336 129 c 0
 330 135 324 141 311 141 c 0
 299 141 279 141 244 123 c 1
 240 139 l 1
 309 164 314 174 314 190 c 2
 316 223 l 2
 316 231 311 231 307 240 c 1
 133 442 70 768 70 1085 c 0
 70 1104 72 1124 72 1143 c 1
 78 1243 l 1
 78 1266 76 1278 6 1303 c 1
 15 1321 l 1
 45 1311 64 1305 76 1305 c 0
 101 1305 311 1538 332 1548 c 0
 344 1554 357 1563 373 1634 c 1
 385 1632 l 1
 379 1599 375 1579 375 1565 c 0
 375 1528 408 1516 438 1513 c 1
 443 1522 447 1528 447 1536 c 0
 447 1550 438 1573 410 1614 c 1
 426 1624 l 1
 467 1563 481 1556 504 1556 c 2
 672 1556 l 2
 697 1556 711 1559 733 1630 c 1
 758 1622 l 1
 748 1593 744 1575 744 1561 c 0
 744 1526 809 1491 840 1491 c 0
 854 1491 869 1507 869 1524 c 2
 869 1532 l 2
 869 1552 862 1569 811 1622 c 1
 821 1632 l 1
 875 1581 891 1575 912 1575 c 2
 959 1575 l 2
 1016 1575 1016 1436 1032 1417 c 1
 1059 1382 1071 1311 1086 1296 c 0
 1100 1282 1110 1270 1143 1270 c 0
 1155 1270 1172 1272 1198 1276 c 1
 1200 1255 l 1
 1110 1243 1098 1221 1098 1180 c 0
 1098 1161 1104 1143 1147 1104 c 1
 1131 1090 l 1
 1092 1128 1073 1139 1055 1139 c 0
 1051 1139 1045 1139 1041 1137 c 1
 1039 1137 l 1
 1018 1130 1016 1114 1016 1079 c 0
 1016 1065 1018 1044 1020 1020 c 1
 1012 1020 l 1
 998 1182 969 1126 959 1186 c 1
 959 1202 819 1309 789 1362 c 0
 783 1372 774 1376 764 1376 c 2
 545 1376 l 2
 514 1376 508 1319 471 1311 c 1
 420 1298 406 1149 355 1081 c 1
 363 993 359 799 365 772 c 1
 430 702 426 582 539 453 c 1
 582 410 600 389 619 389 c 0
 633 389 645 403 670 426 c 2
 617 375 l 1
 670 375 719 375 772 354 c 1
 778 354 783 356 787 360 c 2
 862 416 l 1
 875 428 885 463 903 483 c 0
 934 516 979 563 1022 592 c 1
 1036 645 1075 717 1077 717 c 1
 1075 713 1075 707 1075 705 c 2
 1075 612 l 1
 1079 612 l 2
 1090 612 1100 608 1110 602 c 1
 1075 553 l 1
 1075 442 l 2
 1075 389 1036 338 1018 287 c 1
 1018 272 1028 254 1065 223 c 1
 1049 205 l 1
 1016 236 998 244 985 244 c 0
 975 244 969 240 961 233 c 1
 959 233 l 2
 953 233 948 211 948 211 c 1
 948 -16 l 1
 922 -16 l 1
 922 39 l 2
 922 129 889 162 807 162 c 2
 785 162 l 1
 592 133 l 1
 578 125 572 125 572 104 c 2
 574 27 l 1
 559 25 l 1
 557 98 l 2
 557 113 543 127 529 127 c 2
 459 129 l 2
 449 129 436 119 400 68 c 1
 391 74 l 1
 420 115 430 133 430 141 c 1
 426 145 420 147 416 147 c 0
 408 147 398 147 387 127 c 1
EndSplineSet
EndChar

StartChar: plus
Encoding: 43 43 56
Width: 960
Flags: MW
LayerCount: 2
Fore
SplineSet
138 774 m 0
 159 774 182 780 209 780 c 0
 258 780 312 774 361 774 c 1
 377 805 l 2
 383 817 390 829 392 827 c 1
 392 918 l 2
 392 926 390 950 324 963 c 1
 338 1044 l 1
 346 1042 353 1042 359 1042 c 0
 404 1042 420 1057 420 1135 c 1
 484 1135 l 1
 484 1114 484 1098 486 1085 c 1
 492 1081 l 1
 488 1075 l 1
 492 1053 498 1040 508 1030 c 1
 516 1014 l 1
 521 1008 529 999 531 999 c 1
 529 1001 l 1
 529 1004 541 1008 590 1024 c 1
 594 963 l 1
 549 948 547 946 547 940 c 2
 547 776 l 1
 684 776 l 2
 695 776 705 776 715 778 c 1
 693 793 l 1
 719 831 l 1
 779 793 815 778 848 778 c 0
 867 778 883 784 902 793 c 1
 951 694 l 1
 924 680 902 664 891 645 c 1
 897 631 910 618 930 600 c 1
 879 547 l 1
 848 578 828 588 807 588 c 0
 758 588 684 575 648 575 c 0
 627 575 582 575 547 580 c 1
 547 575 l 2
 547 530 549 496 549 451 c 0
 549 440 549 432 549 422 c 0
 549 358 566 303 600 258 c 1
 529 205 l 1
 508 231 480 252 451 266 c 1
 439 260 426 250 404 233 c 1
 357 281 l 1
 369 293 379 303 385 313 c 1
 390 336 l 1
 398 334 l 1
 402 342 402 350 402 358 c 0
 402 365 400 377 400 383 c 2
 402 561 l 1
 375 569 375 584 336 584 c 2
 187 584 l 2
 160 584 152 612 90 532 c 1
 37 563 l 1
 62 602 70 618 70 629 c 0
 70 631 68 635 68 637 c 0
 63 650 68 651 37 651 c 0
 29 651 19 651 4 651 c 1
 4 709 l 1
 33 711 45 711 52 713 c 1
 47 727 39 743 17 766 c 1
 68 817 l 1
 103 780 117 774 138 774 c 0
EndSplineSet
EndChar

StartChar: comma
Encoding: 44 44 57
Width: 725
Flags: MW
LayerCount: 2
Fore
SplineSet
156 -86 m 1
 158 -84 l 1
 156 -84 154 -82 150 -82 c 0
 142 -82 125 -86 78 -96 c 1
 76 -39 l 1
 131 -27 140 -23 142 -20 c 0
 164 14 213 41 248 63 c 0
 312 104 326 113 381 211 c 1
 381 213 l 1
 377 223 371 231 361 242 c 1
 322 240 304 223 281 197 c 1
 189 272 l 1
 209 291 222 311 228 326 c 1
 213 334 195 340 172 342 c 1
 174 438 l 1
 177 438 181 438 183 438 c 0
 203 438 222 444 234 455 c 1
 207 492 l 1
 254 535 l 1
 275 512 l 1
 275 514 275 516 277 518 c 1
 320 500 l 1
 316 494 l 1
 325 494 334 499 342 502 c 0
 347 504 349 514 351 559 c 1
 412 559 l 1
 412 506 412 500 418 498 c 0
 457 487 484 459 508 459 c 0
 521 459 537 465 560 481 c 1
 607 414 l 1
 576 391 564 377 564 360 c 0
 564 352 566 346 570 338 c 1
 570 326 l 1
 574 311 574 305 574 301 c 0
 574 201 508 74 435 8 c 1
 351 -66 316 -76 232 -92 c 1
 226 -92 217 -92 211 -94 c 1
 211 -94 211 -94 211 -98 c 0
 211 -104 211 -117 205 -147 c 1
 148 -145 l 1
 154 -106 156 -94 156 -88 c 2
 156 -86 l 1
EndSplineSet
EndChar

StartChar: hyphen
Encoding: 45 45 58
Width: 906
Flags: MW
LayerCount: 2
Fore
SplineSet
175 610 m 2
 173 616 l 1
 157 616 l 1
 157 659 l 1
 154 655 150 653 138 653 c 0
 136 653 134 653 130 653 c 1
 130 700 l 1
 136 700 140 700 144 700 c 0
 152 700 154 698 157 692 c 1
 157 705 l 2
 157 711 154 715 105 743 c 1
 132 793 l 1
 171 770 179 766 179 762 c 2
 179 760 l 1
 204 774 236 791 251 791 c 0
 316 791 378 784 441 784 c 2
 527 784 l 2
 578 784 611 801 636 850 c 1
 726 803 l 1
 718 788 712 776 712 764 c 1
 744 776 l 1
 744 717 l 1
 716 709 l 1
 720 698 726 688 734 676 c 1
 699 651 l 1
 742 627 l 1
 738 563 l 1
 679 590 l 1
 679 588 679 586 679 582 c 0
 679 571 681 559 689 537 c 1
 617 518 l 1
 591 612 517 590 468 590 c 0
 382 590 300 582 208 582 c 1
 210 580 210 580 210 578 c 0
 210 573 224 590 187 549 c 1
 152 575 l 1
 177 614 175 608 175 610 c 2
EndSplineSet
EndChar

StartChar: period
Encoding: 46 46 59
Width: 616
Flags: MW
LayerCount: 2
Fore
SplineSet
277 180 m 1
 277 201 277 217 273 227 c 1
 258 223 246 213 234 197 c 1
 156 262 l 1
 166 274 174 283 178 293 c 1
 166 295 152 295 133 295 c 1
 131 381 l 1
 156 381 176 387 193 399 c 1
 191 414 182 434 166 455 c 1
 238 516 l 1
 260 492 281 479 299 479 c 1
 309 489 320 506 328 537 c 1
 397 520 l 1
 389 496 385 479 385 465 c 0
 385 446 391 436 402 424 c 1
 416 403 l 1
 424 420 428 438 436 455 c 1
 479 438 l 1
 457 383 449 350 449 328 c 0
 449 313 459 297 483 276 c 1
 402 193 l 1
 383 211 367 221 357 225 c 1
 352 215 352 201 352 180 c 1
 277 180 l 1
EndSplineSet
EndChar

StartChar: slash
Encoding: 47 47 60
Width: 765
Flags: MW
LayerCount: 2
Fore
SplineSet
-24 -143 m 1
 -41 -118 -34 -119 -104 -119 c 1
 -104 -59 l 1
 -49 -59 -39 -57 -37 -51 c 1
 62 98 178 512 256 668 c 1
 278 782 547 1287 596 1477 c 1
 596 1485 590 1495 555 1516 c 1
 580 1577 l 1
 613 1559 627 1552 631 1552 c 0
 633 1552 635 1552 635 1554 c 1
 637 1552 l 1
 639 1556 641 1563 641 1579 c 0
 641 1591 639 1608 639 1628 c 1
 699 1628 l 1
 703 1566 705 1562 713 1546 c 1
 721 1540 729 1534 746 1534 c 0
 760 1534 778 1536 807 1546 c 1
 811 1475 l 1
 762 1464 752 1456 750 1444 c 1
 717 1329 647 1198 588 1079 c 0
 484 872 412 696 334 494 c 0
 254 289 191 70 60 -106 c 1
 74 -113 l 1
 60 -156 l 1
 29 -145 l 1
 23 -193 l 1
 -24 -190 l 1
 -24 -170 -22 -158 -22 -152 c 0
 -22 -145 -24 -145 -24 -143 c 1
EndSplineSet
EndChar

StartChar: zero
Encoding: 48 48 61
Width: 1189
Flags: MW
LayerCount: 2
Fore
SplineSet
455 1530 m 1
 492 1546 529 1563 566 1563 c 0
 691 1563 850 1500 908 1423 c 1
 933 1329 1010 1315 1010 1194 c 0
 1010 1161 1031 1106 1067 1106 c 0
 1082 1106 1100 1108 1127 1118 c 1
 1135 1094 l 1
 1072 1073 1063 1061 1063 1038 c 0
 1063 1010 1072 985 1072 957 c 0
 1072 839 994 738 976 626 c 1
 974 620 974 614 974 611 c 0
 974 593 984 578 1039 552 c 1
 1029 531 l 1
 996 546 976 552 961 552 c 0
 947 552 941 547 933 536 c 0
 883 456 837 376 785 304 c 1
 774 296 769 290 769 275 c 0
 769 261 773 243 785 210 c 1
 765 202 l 1
 740 272 728 275 703 275 c 2
 697 275 l 2
 664 275 644 269 619 200 c 1
 589 212 l 1
 599 241 603 259 603 273 c 0
 603 361 464 300 419 392 c 0
 410 410 405 442 386 466 c 0
 340 526 303 505 248 519 c 1
 252 531 l 1
 292 529 l 1
 315 529 335 548 335 568 c 0
 335 601 269 665 245 665 c 0
 232 665 212 657 177 644 c 1
 169 660 l 1
 224 685 239 697 241 714 c 1
 238 722 232 728 226 734 c 1
 183 767 169 826 167 878 c 0
 167 883 165 889 161 894 c 0
 129 926 127 978 127 1024 c 0
 127 1184 71 1278 12 1317 c 1
 38 1358 l 1
 61 1340 91 1332 136 1332 c 0
 154 1332 178 1332 207 1370 c 1
 209 1495 365 1483 455 1530 c 1
791 650 m 1
 804 662 793 710 812 722 c 1
 828 755 820 798 843 830 c 0
 847 836 849 839 849 845 c 2
 859 942 l 1
 859 1032 834 1067 793 1067 c 0
 783 1067 771 1067 756 1065 c 1
 752 1090 l 1
 820 1100 826 1112 828 1135 c 1
 822 1153 803 1153 803 1184 c 0
 803 1190 805 1204 805 1212 c 0
 805 1217 803 1223 799 1227 c 0
 750 1282 734 1360 685 1415 c 1
 670 1407 662 1389 658 1348 c 1
 615 1352 l 1
 617 1362 617 1374 617 1384 c 0
 617 1434 584 1448 537 1448 c 0
 523 1448 445 1415 441 1411 c 1
 429 1389 404 1352 404 1325 c 0
 404 1311 416 1298 463 1272 c 1
 453 1255 l 1
 418 1274 402 1282 390 1282 c 0
 343 1282 339 1167 296 1149 c 1
 285 1149 277 1137 277 1124 c 2
 277 1034 l 2
 277 974 408 796 415 687 c 0
 415 680 417 676 419 673 c 2
 441 644 l 1
 451 629 460 622 474 622 c 0
 488 622 505 627 533 644 c 1
 552 617 l 1
 511 593 499 575 499 562 c 0
 499 554 501 546 507 536 c 1
 513 519 514 503 539 503 c 2
 552 503 l 2
 589 503 595 478 607 478 c 2
 662 478 l 2
 666 478 671 478 673 480 c 2
 705 497 l 1
 711 499 755 607 791 650 c 1
EndSplineSet
EndChar

StartChar: one
Encoding: 49 49 62
Width: 804
Flags: MW
LayerCount: 2
Fore
SplineSet
160 242 m 1
 145 252 l 1
 110 240 l 1
 96 285 l 1
 125 295 l 1
 127 293 l 1
 135 299 158 315 158 313 c 1
 199 342 201 346 262 358 c 1
 291 418 303 498 303 561 c 0
 303 606 301 655 299 700 c 1
 297 702 285 702 248 709 c 1
 250 772 l 1
 287 764 297 754 301 754 c 1
 301 754 301 754 303 756 c 1
 295 791 l 1
 291 803 285 813 285 838 c 0
 285 866 291 979 295 1022 c 1
 239 1059 231 1083 96 1094 c 1
 96 1155 l 1
 186 1155 225 1161 225 1204 c 0
 225 1212 225 1225 223 1241 c 1
 299 1245 l 1
 301 1192 309 1186 323 1182 c 2
 364 1171 l 1
 362 1174 l 1
 393 1165 426 1157 444 1157 c 0
 471 1157 510 1161 541 1167 c 0
 551 1169 555 1174 563 1221 c 1
 631 1217 l 1
 627 1194 624 1180 624 1169 c 0
 624 1149 635 1143 663 1143 c 0
 678 1143 698 1145 729 1149 c 1
 731 1087 l 1
 592 1073 633 1032 555 1020 c 1
 528 924 520 791 520 694 c 0
 520 618 508 543 508 475 c 0
 508 457 510 442 512 422 c 1
 518 393 l 1
 518 399 518 403 524 403 c 0
 528 403 536 401 549 399 c 1
 545 362 l 1
 577 336 594 315 678 303 c 1
 676 256 l 1
 633 256 622 252 612 248 c 1
 612 248 612 244 622 188 c 1
 563 186 l 1
 551 264 538 238 524 238 c 1
 516 211 l 1
 471 223 l 1
 471 227 473 236 473 236 c 1
 407 236 346 211 274 211 c 0
 260 211 246 211 233 213 c 0
 227 213 221 205 205 160 c 1
 147 188 l 1
 160 217 162 231 162 236 c 0
 162 240 162 242 160 242 c 1
EndSplineSet
EndChar

StartChar: two
Encoding: 50 50 63
Width: 1109
Flags: MW
LayerCount: 2
Fore
SplineSet
799 178 m 1
 793 202 791 233 768 233 c 2
 711 233 l 2
 668 233 625 233 584 236 c 1
 358 236 l 1
 264 231 l 1
 252 219 244 203 242 176 c 1
 145 180 l 1
 145 184 145 188 145 193 c 0
 145 229 141 246 100 246 c 0
 88 246 74 244 59 244 c 1
 57 305 l 1
 102 311 l 1
 106 319 l 1
 115 315 l 1
 137 319 149 328 160 336 c 1
 160 334 l 1
 330 467 682 555 682 791 c 0
 682 807 676 823 670 838 c 1
 670 836 l 1
 657 879 l 1
 594 942 l 1
 508 948 l 2
 471 950 444 950 438 954 c 1
 418 936 l 2
 397 918 364 889 340 874 c 1
 305 805 252 729 252 637 c 1
 174 637 l 1
 174 678 178 735 127 735 c 0
 119 735 108 735 98 735 c 1
 96 813 l 1
 149 819 162 836 174 866 c 0
 244 1047 375 1155 586 1155 c 0
 696 1155 858 1010 874 932 c 1
 874 928 l 1
 872 928 872 928 872 930 c 1
 879 915 883 905 936 905 c 1
 936 834 l 1
 887 834 881 829 879 819 c 0
 870 788 862 758 860 733 c 1
 864 733 872 731 893 725 c 1
 883 678 l 1
 854 684 848 684 848 686 c 1
 801 621 739 578 674 532 c 1
 602 483 l 1
 680 481 778 477 833 467 c 1
 866 483 897 502 924 524 c 1
 876 578 l 1
 911 610 l 1
 952 557 975 543 1008 543 c 0
 1018 543 1030 545 1044 547 c 1
 1057 455 l 1
 1006 449 983 442 973 420 c 1
 973 391 948 358 948 340 c 0
 948 326 960 311 983 289 c 1
 911 207 l 1
 893 221 881 229 864 233 c 1
 864 223 866 211 870 195 c 1
 799 178 l 1
EndSplineSet
EndChar

StartChar: three
Encoding: 51 51 64
Width: 816
Flags: MW
LayerCount: 2
Fore
SplineSet
394 -137 m 0
 377 -147 362 -150 350 -143 c 1
 116 -50 l 1
 146 22 l 1
 338 -44 l 1
 393 21 l 1
 435 63 426 122 458 187 c 1
 409 318 356 398 213 430 c 1
 198 430 174 426 118 406 c 1
 116 463 l 1
 168 479 192 488 192 498 c 0
 192 500 188 508 168 549 c 1
 223 578 l 1
 235 555 245 537 250 533 c 1
 291 602 321 606 368 653 c 1
 366 651 364 649 362 649 c 0
 358 649 352 653 346 658 c 1
 372 698 l 1
 383 690 397 680 397 680 c 1
 397 682 l 1
 456 742 479 838 485 920 c 1
 481 926 477 940 475 948 c 1
 448 1006 l 1
 413 1020 385 1036 350 1047 c 1
 334 1041 311 1034 293 1030 c 1
 293 998 l 1
 245 998 l 1
 245 1002 l 1
 198 971 157 954 102 887 c 1
 51 918 l 1
 86 963 118 1014 118 1047 c 0
 118 1059 108 1071 75 1092 c 1
 112 1159 l 1
 141 1139 157 1133 168 1133 c 0
 174 1133 178 1135 182 1139 c 0
 227 1178 286 1217 329 1217 c 2
 465 1217 l 2
 516 1217 565 1174 606 1131 c 0
 610 1127 616 1122 624 1122 c 0
 635 1122 649 1129 676 1141 c 1
 710 1071 l 1
 676 1053 665 1043 665 1030 c 0
 665 1008 674 987 674 963 c 0
 674 789 571 688 448 588 c 1
 448 567 l 2
 448 559 446 557 446 553 c 1
 446 553 446 551 448 547 c 1
 538 483 612 367 612 254 c 0
 612 157 482 -86 394 -137 c 0
EndSplineSet
EndChar

StartChar: four
Encoding: 52 52 65
Width: 1171
Flags: MW
LayerCount: 2
Fore
SplineSet
514 -229 m 1
 495 -174 l 1
 495 -193 493 -193 469 -193 c 1
 471 -145 l 1
 456 -141 l 1
 459 -72 l 1
 481 -78 493 -80 502 -80 c 0
 518 -80 516 25 516 51 c 2
 516 115 l 2
 516 145 514 170 514 195 c 0
 514 207 516 219 516 233 c 1
 502 242 l 1
 178 242 l 2
 145 242 100 266 59 266 c 0
 39 266 16 262 -13 254 c 1
 -33 315 l 1
 22 330 47 348 65 373 c 2
 108 434 l 2
 178 535 278 676 325 715 c 1
 323 715 l 1
 348 768 530 989 622 1092 c 0
 639 1110 653 1137 665 1196 c 1
 733 1192 l 1
 723 1155 719 1128 719 1108 c 0
 719 1067 739 1044 739 1008 c 0
 739 911 715 809 715 719 c 0
 715 650 715 581 715 512 c 0
 715 492 725 469 737 449 c 1
 747 449 762 451 778 451 c 0
 876 451 1067 434 1118 434 c 2
 1138 434 l 1
 1145 436 1153 442 1184 461 c 1
 1214 424 l 1
 1157 377 1159 338 1140 287 c 1
 1147 287 1155 285 1161 285 c 0
 1163 285 1167 287 1169 287 c 1
 1149 260 l 1
 1143 264 1132 270 1132 272 c 2
 1112 236 l 1
 1114 236 l 1
 1102 211 1095 188 1095 141 c 0
 1095 135 1095 129 1095 121 c 1
 1032 121 l 1
 1028 180 1022 209 1007 236 c 1
 1007 233 l 1
 1003 240 l 1
 712 240 l 1
 708 236 l 1
 708 -76 l 2
 708 -121 688 -188 772 -252 c 1
 731 -307 l 1
 692 -276 669 -268 647 -268 c 2
 639 -268 l 1
 631 -270 618 -270 606 -270 c 2
 575 -272 l 2
 569 -272 561 -276 526 -326 c 1
 483 -285 l 1
 508 -248 514 -233 514 -229 c 1
520 584 m 0
 520 643 504 711 487 776 c 1
 420 692 266 535 237 459 c 1
 260 434 l 1
 456 434 l 1
 491 453 l 1
 504 502 l 2
 510 528 520 557 520 584 c 0
1177 299 m 1
 1169 287 l 1
 1177 287 1181 289 1181 291 c 0
 1181 293 1179 295 1177 299 c 1
EndSplineSet
EndChar

StartChar: five
Encoding: 53 53 66
Width: 931
Flags: MW
LayerCount: 2
Fore
SplineSet
159 12 m 1
 132 16 113 20 77 20 c 0
 61 20 42 20 20 18 c 1
 18 76 l 1
 208 88 407 303 407 500 c 0
 407 618 255 735 141 803 c 1
 141 801 l 1
 128 809 112 813 89 813 c 0
 73 813 55 811 32 807 c 1
 30 874 l 1
 128 889 147 934 149 938 c 2
 163 956 l 1
 239 1047 419 1106 419 1182 c 0
 419 1192 419 1206 415 1225 c 1
 485 1243 l 1
 497 1186 507 1176 526 1171 c 1
 587 1151 653 1135 720 1135 c 2
 743 1135 l 1
 755 1147 l 1
 763 1157 796 1153 812 1249 c 1
 859 1245 l 1
 857 1219 857 1212 857 1208 c 0
 857 1206 857 1208 859 1204 c 1
 864 1204 878 1206 894 1206 c 1
 896 1159 l 1
 882 1157 874 1155 868 1155 c 0
 864 1155 861 1157 861 1159 c 2
 829 1071 l 2
 827 1065 825 1061 825 1057 c 0
 825 1044 833 1032 866 1012 c 1
 818 948 l 1
 796 961 784 967 773 967 c 0
 763 967 757 961 749 954 c 1
 749 956 l 1
 730 938 722 932 716 922 c 1
 732 889 l 1
 692 868 l 1
 689 870 687 872 687 874 c 1
 653 874 l 1
 653 897 661 897 669 897 c 1
 632 903 411 958 384 965 c 1
 360 946 l 1
 378 932 448 870 464 870 c 0
 472 870 485 879 513 903 c 1
 556 846 l 1
 530 823 524 811 524 803 c 0
 524 801 524 797 526 795 c 1
 524 795 l 1
 573 707 614 578 614 496 c 0
 614 420 517 285 517 242 c 0
 517 233 526 225 562 205 c 1
 524 145 l 1
 497 162 485 168 476 168 c 0
 472 168 468 166 466 164 c 0
 384 80 282 12 159 12 c 1
EndSplineSet
EndChar

StartChar: six
Encoding: 54 54 67
Width: 1100
Flags: MW
LayerCount: 2
Fore
SplineSet
500 217 m 1
 500 221 498 225 498 227 c 0
 498 236 500 240 505 242 c 1
 488 240 l 1
 490 238 490 236 492 236 c 1
 457 203 l 1
 435 227 433 231 433 231 c 1
 191 276 85 469 85 707 c 0
 85 1030 402 1378 715 1436 c 1
 703 1448 l 1
 738 1477 l 1
 761 1454 l 1
 844 1481 914 1483 926 1561 c 1
 1037 1542 l 1
 1035 1534 1035 1526 1035 1518 c 0
 1035 1456 1072 1452 1137 1448 c 1
 1137 1386 l 1
 1129 1386 1121 1386 1113 1386 c 0
 1064 1386 1035 1380 1012 1370 c 1
 836 1284 627 1253 466 1110 c 1
 466 1096 464 1087 464 1073 c 2
 464 1067 l 1
 720 1059 900 940 900 651 c 0
 900 530 816 375 720 303 c 1
 644 248 619 260 533 244 c 1
 548 244 548 244 548 217 c 1
 500 217 l 1
406 950 m 1
 380 911 349 866 318 827 c 1
 312 770 l 1
 308 748 310 739 308 725 c 1
 310 725 l 1
 302 690 300 680 300 680 c 1
 304 598 339 475 382 471 c 1
 376 424 l 1
 410 395 447 367 484 346 c 1
 591 375 609 395 658 494 c 0
 658 496 658 500 658 504 c 0
 658 551 666 682 677 731 c 1
 648 786 l 1
 648 784 l 1
 605 864 574 922 486 977 c 1
 468 967 429 956 406 950 c 1
EndSplineSet
EndChar

StartChar: seven
Encoding: 55 55 68
Width: 996
Flags: MW
LayerCount: 2
Fore
SplineSet
297 -100 m 1
 281 -94 l 1
 281 -94 279 -94 277 -94 c 0
 270 -94 254 -96 207 -111 c 1
 205 -51 l 1
 258 -39 264 -33 266 -25 c 1
 330 115 608 756 649 866 c 1
 637 881 621 899 608 915 c 1
 385 915 l 1
 385 913 l 2
 385 911 381 903 367 881 c 1
 328 903 l 1
 338 922 l 1
 242 924 l 1
 186 924 129 905 80 874 c 1
 80 874 80 874 80 872 c 0
 80 870 78 862 76 838 c 1
 29 844 l 1
 31 860 33 870 33 874 c 1
 29 874 21 872 4 870 c 1
 -6 918 l 1
 25 924 25 924 29 924 c 1
 49 993 90 1071 139 1128 c 0
 150 1141 158 1155 158 1176 c 0
 158 1190 156 1206 150 1227 c 1
 227 1245 l 1
 242 1194 258 1176 283 1169 c 1
 281 1169 l 1
 283 1167 320 1151 324 1151 c 1
 324 1153 324 1151 324 1153 c 1
 361 1157 408 1159 447 1159 c 0
 516 1159 586 1155 655 1155 c 0
 684 1155 711 1155 739 1157 c 1
 739 1171 l 1
 823 1171 881 1190 930 1223 c 1
 977 1149 l 1
 870 1077 832 918 780 817 c 0
 707 676 666 553 602 440 c 1
 604 440 l 1
 561 362 l 1
 561 365 l 1
 504 258 475 139 440 55 c 1
 440 57 l 1
 434 37 l 1
 408 -25 399 -45 348 -92 c 1
 348 -90 l 1
 346 -92 344 -96 344 -121 c 0
 344 -129 346 -143 346 -160 c 1
 293 -160 l 1
 287 -104 285 -98 283 -96 c 1
 297 -100 l 1
EndSplineSet
EndChar

StartChar: eight
Encoding: 56 56 69
Width: 1093
Flags: MW
LayerCount: 2
Fore
SplineSet
895 442 m 1
 881 451 l 1
 811 268 693 252 537 252 c 2
 445 252 l 2
 324 252 160 449 160 559 c 0
 160 848 283 807 412 918 c 1
 408 920 l 1
 408 918 l 1
 277 1034 172 1126 172 1331 c 0
 172 1532 383 1647 557 1647 c 2
 670 1647 l 2
 699 1647 830 1567 875 1534 c 1
 904 1548 l 1
 924 1505 l 1
 934 1507 947 1511 969 1520 c 1
 994 1454 l 1
 955 1436 947 1417 947 1403 c 1
 951 1376 955 1343 955 1307 c 0
 955 1149 828 1053 713 973 c 1
 715 973 715 973 719 965 c 1
 756 924 l 2
 838 834 918 756 916 614 c 0
 916 569 910 535 897 492 c 1
 897 492 897 492 899 492 c 0
 902 492 906 487 922 477 c 1
 895 442 l 1
392 1298 m 1
 418 1194 l 1
 416 1196 l 1
 451 1141 541 1032 603 1026 c 1
 619 1044 l 2
 691 1126 756 1196 756 1313 c 0
 756 1335 750 1380 740 1403 c 1
 734 1403 721 1403 705 1405 c 1
 709 1448 l 1
 668 1495 623 1534 557 1534 c 0
 457 1534 394 1386 392 1298 c 1
467 774 m 1
 439 784 l 1
 400 725 377 645 363 575 c 1
 394 455 392 487 451 395 c 1
 463 391 l 1
 461 393 l 1
 498 383 553 367 570 367 c 0
 594 367 607 377 625 395 c 1
 623 395 l 1
 695 471 721 502 721 608 c 0
 721 698 625 762 547 813 c 1
 549 813 l 1
 529 823 514 834 500 846 c 1
 488 838 476 831 465 823 c 1
 482 817 l 1
 467 774 l 1
498 848 m 1
 496 846 l 1
 498 848 l 1
EndSplineSet
EndChar

StartChar: nine
Encoding: 57 57 70
Width: 1113
Flags: MW
LayerCount: 2
Fore
SplineSet
-35 -92 m 1
 -39 -86 l 1
 -37 -92 -61 -92 -110 -92 c 1
 27 -6 117 29 205 57 c 1
 361 109 526 152 623 313 c 1
 615 313 606 313 598 313 c 0
 559 313 522 315 488 322 c 1
 483 317 479 311 473 297 c 1
 430 317 l 1
 434 326 434 326 465 326 c 1
 301 375 285 408 242 500 c 1
 242 498 l 1
 240 498 221 535 209 557 c 1
 211 557 l 1
 209 559 209 561 203 561 c 0
 197 561 182 559 158 553 c 1
 129 612 l 1
 146 616 l 1
 129 647 l 1
 164 668 168 670 168 672 c 0
 184 717 186 754 186 786 c 0
 186 803 186 819 186 834 c 0
 186 885 194 931 252 1006 c 0
 260 1016 264 1022 264 1034 c 0
 264 1047 258 1061 244 1085 c 1
 313 1130 l 1
 334 1100 346 1090 361 1090 c 0
 367 1090 373 1092 379 1094 c 0
 463 1118 576 1167 635 1167 c 0
 692 1167 705 1143 782 1130 c 1
 778 1116 l 1
 907 1042 991 924 991 762 c 0
 991 569 948 332 789 199 c 0
 651 84 412 -76 211 -119 c 1
 211 -131 l 1
 105 -131 94 -137 84 -188 c 1
 -18 -166 l 1
 -16 -147 -14 -135 -14 -125 c 0
 -14 -106 -20 -100 -35 -92 c 1
449 965 m 1
 449 967 l 1
 414 913 395 860 391 793 c 1
 393 793 397 788 416 768 c 1
 397 750 l 1
 410 686 l 1
 426 602 432 545 510 449 c 1
 602 418 l 1
 625 426 l 1
 623 424 l 1
 670 444 l 1
 711 479 748 606 748 662 c 2
 748 788 l 2
 748 846 672 999 617 1014 c 1
 541 1040 l 1
 494 1040 473 1004 449 965 c 1
EndSplineSet
EndChar

StartChar: colon
Encoding: 58 58 71
Width: 640
Flags: MW
LayerCount: 2
Fore
SplineSet
209 831 m 1
 153 883 l 1
 178 907 186 924 186 938 c 0
 186 944 184 948 182 954 c 1
 184 954 l 1
 176 963 l 1
 112 932 l 1
 94 975 l 1
 334 1098 l 1
 280 1085 l 1
 272 1130 l 1
 282 1133 297 1147 299 1198 c 1
 385 1198 l 1
 385 1182 387 1169 389 1159 c 1
 397 1165 405 1174 416 1184 c 1
 438 1167 l 1
 450 1178 455 1198 455 1198 c 1
 502 1159 l 1
 473 1137 l 1
 481 1130 l 1
 481 1130 448 1087 448 1071 c 2
 448 1067 l 1
 457 1057 473 1051 498 1051 c 0
 502 1051 506 1051 510 1051 c 1
 512 958 l 1
 491 958 477 954 465 950 c 1
 471 938 481 924 498 911 c 1
 438 840 l 1
 422 852 407 860 395 864 c 1
 391 852 389 840 389 825 c 0
 389 821 391 815 391 809 c 1
 293 805 l 1
 289 831 276 854 252 870 c 1
 239 864 229 854 209 831 c 1
151 330 m 1
 149 334 l 1
 137 322 l 1
 106 358 l 1
 145 391 164 408 164 442 c 0
 164 455 158 471 137 500 c 1
 196 543 l 1
 225 506 237 496 254 496 c 0
 266 496 280 502 291 502 c 0
 297 502 303 500 309 500 c 1
 315 506 313 492 348 551 c 1
 405 522 l 1
 389 496 383 477 383 461 c 0
 383 446 387 436 395 426 c 1
 395 428 l 1
 405 412 414 403 444 403 c 0
 452 403 465 403 479 406 c 1
 481 334 l 1
 473 332 467 330 461 330 c 1
 475 295 l 1
 375 258 358 231 358 178 c 1
 233 174 l 1
 231 201 223 223 209 236 c 1
 199 233 186 223 168 205 c 1
 117 258 l 1
 143 285 151 301 151 315 c 0
 151 319 151 326 149 332 c 1
 151 330 l 1
EndSplineSet
EndChar

StartChar: semicolon
Encoding: 59 59 72
Width: 627
Flags: MW
LayerCount: 2
Fore
SplineSet
167 934 m 1
 167 934 167 932 163 932 c 0
 159 932 149 934 128 938 c 1
 137 985 l 1
 161 979 l 1
 159 997 147 1010 106 1032 c 1
 141 1098 l 1
 169 1083 188 1077 200 1077 c 0
 208 1077 215 1081 223 1085 c 1
 221 1085 l 1
 223 1087 l 1
 180 1098 l 1
 192 1145 l 1
 245 1130 278 1124 301 1124 c 0
 327 1124 344 1137 368 1163 c 1
 458 1085 l 1
 434 1061 423 1042 423 1026 c 1
 432 1024 448 1022 473 1022 c 1
 473 948 l 1
 458 948 l 1
 464 932 l 1
 391 891 366 866 366 823 c 0
 366 819 368 813 368 807 c 1
 251 795 l 1
 251 819 247 836 237 850 c 1
 229 842 219 831 208 815 c 1
 147 858 l 1
 167 887 174 903 174 913 c 0
 174 922 169 928 167 934 c 1
200 -106 m 1
 200 -106 175 -119 153 -135 c 1
 128 -94 l 1
 133 -90 l 1
 126 -76 l 1
 149 -66 l 1
 147 -66 l 1
 225 -31 317 100 335 207 c 1
 325 223 298 258 280 258 c 0
 266 258 251 248 227 221 c 1
 171 274 l 1
 188 291 l 1
 145 309 l 1
 165 356 174 385 174 410 c 0
 174 428 163 449 143 471 c 1
 231 549 l 1
 253 524 274 510 294 508 c 1
 303 518 309 535 317 565 c 1
 391 551 l 1
 387 532 384 518 384 508 c 0
 384 483 393 473 407 463 c 1
 405 463 l 1
 464 416 505 358 505 270 c 0
 505 248 503 223 499 203 c 1
 499 115 382 -51 301 -86 c 1
 235 -104 245 -100 231 -102 c 2
 200 -106 l 1
188 291 m 1
 200 305 204 315 204 324 c 0
 204 326 204 328 204 330 c 2
 188 291 l 1
EndSplineSet
EndChar

StartChar: exclam
Encoding: 33 33 73
Width: 657
Flags: MW
LayerCount: 2
Fore
SplineSet
269 1710 m 1
 296 1698 l 1
 336 1679 355 1671 365 1671 c 0
 371 1671 382 1686 400 1712 c 1
 476 1647 l 1
 457 1624 l 2
 445 1610 439 1597 439 1599 c 1
 439 1589 463 1577 474 1577 c 0
 482 1577 498 1581 527 1593 c 1
 547 1522 l 1
 496 1505 490 1493 490 1475 c 0
 486 1393 476 1309 461 1229 c 1
 431 1053 439 877 390 709 c 1
 390 709 392 707 408 674 c 1
 367 651 l 1
 353 672 l 1
 336 659 l 1
 308 692 l 1
 328 713 332 715 332 715 c 1
 332 715 330 713 330 715 c 0
 324 729 308 752 308 762 c 1
 281 745 l 1
 257 784 l 1
 275 799 281 801 285 801 c 0
 287 801 287 801 287 799 c 2
 287 827 l 2
 287 936 257 1067 226 1188 c 1
 201 1300 l 1
 183 1323 l 1
 181 1331 179 1331 179 1333 c 1
 187 1343 l 1
 173 1384 164 1434 164 1473 c 0
 164 1518 183 1546 183 1561 c 0
 183 1571 169 1585 140 1606 c 1
 183 1667 l 1
 212 1642 228 1636 236 1636 c 0
 246 1636 265 1642 277 1653 c 1
 250 1667 l 1
 269 1710 l 1
429 545 m 1
 433 524 l 1
 455 455 480 436 527 436 c 1
 525 313 l 1
 498 313 478 307 470 303 c 1
 476 293 486 279 504 258 c 1
 439 207 l 1
 410 240 396 248 388 248 c 1
 375 240 365 221 365 190 c 1
 261 193 l 1
 261 209 253 227 234 244 c 1
 185 217 l 1
 150 268 l 1
 173 291 l 1
 171 291 171 291 171 293 c 1
 177 303 l 1
 183 299 l 1
 185 303 l 1
 179 307 l 1
 195 350 201 383 203 403 c 1
 201 418 187 436 171 455 c 1
 255 541 l 1
 277 520 293 506 310 506 c 1
 308 506 306 516 306 528 c 2
 306 559 l 1
 377 559 l 1
 379 522 384 506 394 496 c 1
 382 532 l 1
 429 545 l 1
222 276 m 1
 216 276 l 1
 214 270 l 1
 222 276 l 1
EndSplineSet
EndChar

StartChar: quotedbl
Encoding: 34 34 74
Width: 871
Flags: MW
LayerCount: 2
Fore
SplineSet
180 1022 m 1
 183 1345 184 1392 190 1669 c 1
 196 1669 205 1681 260 1726 c 1
 334 1698 l 1
 352 1667 360 1655 360 1651 c 0
 360 1638 373 1618 379 1599 c 1
 379 1569 381 1499 381 1460 c 1
 383 1460 l 1
 381 1411 383 1366 383 1321 c 0
 383 1243 362 1171 307 1094 c 1
 233 1027 332 1036 229 1036 c 1
 180 1022 l 1
520 1022 m 1
 523 1345 524 1392 530 1669 c 1
 536 1669 545 1681 600 1726 c 1
 674 1698 l 1
 692 1667 700 1655 700 1651 c 0
 700 1638 713 1618 719 1599 c 1
 719 1569 721 1499 721 1460 c 1
 723 1460 l 1
 721 1411 723 1366 723 1321 c 0
 723 1243 702 1171 647 1094 c 1
 624 1073 l 1
 624 1069 629 1059 651 1024 c 1
 608 991 l 1
 586 1016 579 1036 569 1036 c 1
 520 1022 l 1
EndSplineSet
EndChar

